<!--?xml version="1.0" encoding="utf-8"?-->
<!-- Generator: Adobe Illustrator 22.1.0, SVG Export Plug-In . SVG Version: 6.00 Build 0)  -->
<svg version="1.1" id="_x32_" xmlns="http://www.w3.org/2000/svg" xmlns:xlink="http://www.w3.org/1999/xlink" x="0px" y="0px" viewBox="0 0 800 273.6" style="width: 100px;" xml:space="preserve" preserveAspectRatio="none">
<style type="text/css">
	.st0{fill:#231815;}
</style>
<g>
	<g>
		<path class="st0" d="M22.3,8.5C21.1,8.5,11.2,6,9.4,5.1C8.5,4.6,8.1,4.9,7.9,5.1C7.7,5.3,7.6,6,7.9,6.6c0.9,1.8,3,10.6,3.3,12.9
			c0.1,1.2,0.3,1.5,1.7,1.6c1,0.1,11.1,3.7,13.5,6c2.3,2.4,0.6,5.3,1.7,5.8c1.1,0.5,3-0.7,5.8,1.3c2.8,1.9,5.3,4.1,6.1,3.4
			c0.8-0.8-1.4-3.3-3.3-6.1c-1.9-2.8-0.7-4.8-1.2-5.9c-0.5-1.1-3.4,0.6-5.7-1.8c-2.3-2.4-5.6-12.2-6.1-13.9
			C23.4,8.9,23.5,8.5,22.3,8.5z M29.7,27.4c0,0-5.8-5.2-7.9-6c-2.2-0.8,0.2-1,0.2-1l-3.3-0.8l0.4-1.2c0,0-2.2-0.8-2.7-1
			c-0.6-0.2-0.7-1.1,0-1.4c0.7-0.3-1.1-1.9-1.1-1.9s-3.7-4-4.7-4.9c-1-1-1.4-2.6-1.4-2.6L29.7,27.4z"></path>
		<g>
			<path class="st0" d="M32.4,41.8c1-0.8,1.1-2.1,0.3-2.8c-0.8-0.7-1.9-0.7-2.6-0.2c-2.8,1.7-6.3,2.3-9.8,2.3
				c-3.5,0-7.1-0.6-10.1-1.8C8.7,38.8,7,39.6,6,41.1c-0.5,0.8-0.5,1.8-0.1,2.7c0.4,0.9,1.3,1.6,2.4,2c4.2,1,8.4,1.1,12.5,0.6
				C24.8,45.8,29,44.6,32.4,41.8z"></path>
			<path class="st0" d="M44.3,29.9c-0.8,1-2.1,1.1-2.8,0.3c-0.7-0.8-0.7-1.9-0.2-2.6c1.8-2.7,2.4-6.3,2.4-9.7
				c0-3.5-0.5-7.1-1.7-10.1c-0.4-1.6,0.3-3.2,1.9-4.3c0.8-0.5,1.8-0.5,2.7-0.1c0.9,0.4,1.6,1.3,1.9,2.4c0.9,4.3,1,8.4,0.4,12.5
				C48.4,22.4,47.2,26.6,44.3,29.9z"></path>
		</g>
		<g>
			<path class="st0" d="M20.2,32.8c-2.9-1.4-2.1-4.8,1.1-4.3c3.2,0.6,3.7,5.9,1,7.5c-2.7,1.6-13.1,1.3-14.4-4.9c1.3-0.8,4,0.3,4,0.3
				s0.2-2.3,2.2-1.1c1,0.6,1.5,2.1,2.6,2.6c1.4,0.7,3.3,2.1,4.8,0.2C22.4,32.1,20.2,32.8,20.2,32.8z"></path>
			<path class="st0" d="M35.5,17.7c-1.3-2.9-4.8-2.2-4.3,1c0.5,3.2,5.8,3.8,7.5,1.1c1.6-2.7,1.4-13.1-4.7-14.4c-0.8,1.3,0.2,4,0.2,4
				s-2.3,0.1-1.1,2.2c0.6,1,2.1,1.5,2.6,2.6c0.6,1.4,2,3.3,0.2,4.8C34.8,19.9,35.5,17.7,35.5,17.7z"></path>
		</g>
		<g>
			<path class="st0" d="M29.1,47.9c3.3,5.1,2.8,16.5-1.5,19.2c-4.3,2.8-6.2-3.3-3.3-8.1c-7.2,7.6-11-1-4.9-5
				C25.4,50.1,29.1,47.9,29.1,47.9z"></path>
			<path class="st0" d="M50.6,26.5c5.1,3.4,16.4,3,19.3-1.3c2.8-4.3-3.2-6.2-8-3.4c7.7-7.1-0.9-11-4.9-5
				C52.8,22.8,50.6,26.5,50.6,26.5z"></path>
		</g>
	</g>
	<g>
		<path class="st0" d="M15.5,136.8V71.5c0,0-4.8,3.3-8.3,2.4c-3.6-0.9-4.5,4.8-0.6,5.7c3.9,0.9,4.8-0.9,4.8-0.9v58.1L15.5,136.8z"></path>
		<path class="st0" d="M14.9,66.5c-0.9,0.3-4.8-1.2-5.7-3.3C8.3,61.1,8.9,68,8.9,68s-1.2,0-1.8,1.2c-0.6,1.2,0.3,2.4,3,1.8
			C12.8,70.4,14.9,66.5,14.9,66.5z"></path>
		<path class="st0" d="M19.6,50.9c-2.7,1-6.7,6.9-6,9.8c0.6,2.9-2.7-0.8-2.9-3.1c0,0-3.5,0.2-4.2-1.7c-0.6-1.9,4.6-3.3,4.6-3.3
			s-3.8-1.7-2.9-2.7c1-1,7.7,0.6,12.1-0.4C22.8,48.9,19.6,50.9,19.6,50.9z"></path>
		<rect x="25.1" y="71" class="st0" width="2.1" height="65.8"></rect>
		<path class="st0" d="M21.3,74.1c0,0.8-0.7,1.5-1.5,1.5c-0.8,0-1.5-0.7-1.5-1.5c0-0.8,0.7-1.5,1.5-1.5
			C20.7,72.6,21.3,73.3,21.3,74.1z"></path>
		<path class="st0" d="M21.3,80.7c0,0.8-0.7,1.5-1.5,1.5c-0.8,0-1.5-0.7-1.5-1.5c0-0.8,0.7-1.5,1.5-1.5
			C20.7,79.3,21.3,79.9,21.3,80.7z"></path>
		<path class="st0" d="M21.3,87.4c0,0.8-0.7,1.5-1.5,1.5c-0.8,0-1.5-0.7-1.5-1.5c0-0.8,0.7-1.5,1.5-1.5
			C20.7,85.9,21.3,86.6,21.3,87.4z"></path>
		<path class="st0" d="M21.3,94c0,0.8-0.7,1.5-1.5,1.5c-0.8,0-1.5-0.6-1.5-1.5c0-0.8,0.7-1.5,1.5-1.5C20.7,92.5,21.3,93.2,21.3,94z"></path>
		<path class="st0" d="M21.3,100.6c0,0.8-0.7,1.5-1.5,1.5c-0.8,0-1.5-0.7-1.5-1.5c0-0.8,0.7-1.5,1.5-1.5
			C20.7,99.2,21.3,99.8,21.3,100.6z"></path>
		<path class="st0" d="M21.3,107.3c0,0.8-0.7,1.5-1.5,1.5c-0.8,0-1.5-0.7-1.5-1.5c0-0.8,0.7-1.5,1.5-1.5
			C20.7,105.8,21.3,106.5,21.3,107.3z"></path>
		<path class="st0" d="M21.3,113.9c0,0.8-0.7,1.5-1.5,1.5c-0.8,0-1.5-0.7-1.5-1.5c0-0.8,0.7-1.5,1.5-1.5
			C20.7,112.4,21.3,113.1,21.3,113.9z"></path>
		<path class="st0" d="M21.3,120.5c0,0.8-0.7,1.5-1.5,1.5c-0.8,0-1.5-0.7-1.5-1.5c0-0.8,0.7-1.5,1.5-1.5
			C20.7,119.1,21.3,119.7,21.3,120.5z"></path>
		<path class="st0" d="M21.3,127.2c0,0.8-0.7,1.5-1.5,1.5c-0.8,0-1.5-0.7-1.5-1.5c0-0.8,0.7-1.5,1.5-1.5
			C20.7,125.7,21.3,126.4,21.3,127.2z"></path>
		<path class="st0" d="M21.3,133.8c0,0.8-0.7,1.5-1.5,1.5c-0.8,0-1.5-0.7-1.5-1.5c0-0.8,0.7-1.5,1.5-1.5
			C20.7,132.3,21.3,133,21.3,133.8z"></path>
	</g>
	<path class="st0" d="M788.9,19.6c0-1.2,2.5-11.1,3.4-12.8c0.5-0.9,0.2-1.3-0.1-1.5c-0.2-0.2-0.9-0.3-1.5-0.1
		c-1.8,0.9-10.6,3-12.9,3.3c-1.2,0.1-1.5,0.3-1.6,1.7c-0.1,1-3.7,11.1-6,13.5c-2.4,2.3-5.3,0.6-5.8,1.7c-0.5,1.1,0.6,3-1.3,5.8
		c-1.9,2.8-4.1,5.3-3.4,6.1c0.8,0.8,3.3-1.4,6.1-3.3c2.8-1.9,4.8-0.7,5.9-1.2c1.1-0.5-0.6-3.4,1.8-5.7c2.4-2.4,12.2-5.6,13.9-6.1
		C788.5,20.7,788.9,20.8,788.9,19.6z M770,27.1c0,0,5.2-5.8,6-7.9c0.8-2.2,1,0.2,1,0.2l0.8-3.3l1.2,0.4c0,0,0.8-2.2,1-2.7
		c0.2-0.6,1.1-0.7,1.4,0c0.3,0.7,1.9-1.1,1.9-1.1s4-3.7,4.9-4.7c1-1,2.6-1.4,2.6-1.4L770,27.1z"></path>
	<g>
		<path class="st0" d="M755.6,29.7c0.8,1,2.1,1.1,2.8,0.3c0.7-0.8,0.7-1.9,0.2-2.6c-1.7-2.8-2.3-6.3-2.3-9.8c0-3.5,0.6-7,1.8-10.1
			c0.5-1.6-0.3-3.2-1.9-4.3c-0.8-0.5-1.8-0.5-2.7-0.1c-0.9,0.4-1.6,1.3-2,2.4c-1,4.2-1.1,8.4-0.6,12.5
			C751.6,22.1,752.8,26.3,755.6,29.7z"></path>
		<path class="st0" d="M767.4,41.7c-1-0.8-1.1-2.1-0.3-2.8c0.8-0.7,1.9-0.7,2.6-0.2c2.7,1.8,6.3,2.4,9.7,2.4c3.5,0,7.1-0.5,10.1-1.7
			c1.6-0.4,3.2,0.3,4.3,1.9c0.5,0.8,0.5,1.8,0.1,2.7c-0.4,0.9-1.3,1.6-2.4,1.9c-4.3,0.9-8.4,1-12.5,0.4
			C775,45.8,770.8,44.6,767.4,41.7z"></path>
	</g>
	<g>
		<path class="st0" d="M764.6,17.5c1.3-2.9,4.8-2.1,4.3,1.1c-0.6,3.2-5.9,3.7-7.5,1c-1.6-2.7-1.3-13.1,4.9-14.4c0.8,1.3-0.3,4-0.3,4
			s2.3,0.2,1.1,2.2c-0.6,1-2.1,1.5-2.6,2.6c-0.7,1.4-2.1,3.3-0.2,4.8C765.3,19.8,764.6,17.5,764.6,17.5z"></path>
		<path class="st0" d="M779.7,32.8c2.9-1.3,2.2-4.8-1-4.3c-3.2,0.5-3.8,5.8-1.1,7.5c2.7,1.6,13.1,1.4,14.4-4.7c-1.3-0.8-4,0.2-4,0.2
			s-0.1-2.3-2.2-1.1c-1,0.6-1.5,2.1-2.6,2.6c-1.4,0.6-3.3,2-4.8,0.2C777.5,32.1,779.7,32.8,779.7,32.8z"></path>
	</g>
	<g>
		<path class="st0" d="M749.5,26.4c-5.1,3.3-16.5,2.8-19.2-1.5c-2.8-4.3,3.3-6.2,8.1-3.3c-7.6-7.2,1-11,5-4.9
			C747.3,22.7,749.5,26.4,749.5,26.4z"></path>
		<path class="st0" d="M770.9,48c-3.4,5.1-3,16.4,1.3,19.3c4.3,2.8,6.2-3.2,3.4-8c7.1,7.7,11-0.9,5-4.9
			C774.6,50.2,770.9,48,770.9,48z"></path>
	</g>
	<path class="st0" d="M777.7,265.1c1.2,0,11.1,2.5,12.8,3.4c0.9,0.5,1.3,0.1,1.5-0.1c0.2-0.2,0.3-0.9,0.1-1.5
		c-0.9-1.8-3-10.6-3.3-12.9c-0.1-1.2-0.3-1.5-1.7-1.6c-1-0.1-11.1-3.7-13.5-6c-2.3-2.4-0.6-5.3-1.7-5.8c-1.1-0.5-3,0.6-5.8-1.3
		c-2.8-1.9-5.3-4.1-6.1-3.4c-0.8,0.8,1.4,3.3,3.3,6.1c1.9,2.8,0.7,4.8,1.2,5.9c0.5,1.1,3.4-0.6,5.7,1.8c2.3,2.4,5.6,12.2,6.1,13.9
		C776.6,264.7,776.5,265.2,777.7,265.1z M770.3,246.3c0,0,5.8,5.2,7.9,6c2.2,0.8-0.2,1-0.2,1l3.3,0.8l-0.4,1.2c0,0,2.2,0.8,2.7,1
		c0.6,0.2,0.7,1.1,0,1.4c-0.7,0.3,1.1,1.9,1.1,1.9s3.7,4,4.7,4.9c1,1,1.4,2.6,1.4,2.6L770.3,246.3z"></path>
	<g>
		<path class="st0" d="M767.6,231.9c-1,0.8-1.1,2.1-0.3,2.8c0.8,0.7,1.9,0.7,2.6,0.2c2.8-1.7,6.3-2.3,9.8-2.3c3.5,0,7,0.6,10.1,1.8
			c1.6,0.5,3.2-0.3,4.3-1.9c0.5-0.8,0.5-1.8,0.1-2.7c-0.4-0.9-1.3-1.6-2.4-2c-4.2-1-8.4-1.1-12.5-0.6
			C775.2,227.9,771,229.1,767.6,231.9z"></path>
		<path class="st0" d="M755.7,243.7c0.8-1,2.1-1.1,2.8-0.3c0.7,0.8,0.7,1.9,0.2,2.6c-1.8,2.7-2.4,6.3-2.4,9.8
			c0,3.5,0.5,7.1,1.7,10.1c0.4,1.6-0.3,3.2-1.9,4.3c-0.8,0.5-1.8,0.5-2.7,0.1c-0.9-0.4-1.6-1.3-2-2.4c-0.9-4.3-1-8.4-0.4-12.5
			C751.6,251.3,752.8,247.1,755.7,243.7z"></path>
	</g>
	<g>
		<path class="st0" d="M779.8,240.8c2.9,1.3,2.1,4.8-1.1,4.3c-3.2-0.6-3.7-5.9-1-7.5c2.7-1.6,13.1-1.3,14.4,4.9
			c-1.3,0.8-4-0.3-4-0.3s-0.2,2.3-2.2,1.1c-1-0.6-1.5-2.1-2.6-2.6c-1.4-0.7-3.3-2.1-4.8-0.2C777.6,241.5,779.8,240.8,779.8,240.8z"></path>
		<path class="st0" d="M764.5,255.9c1.3,2.9,4.8,2.2,4.3-1c-0.5-3.2-5.8-3.8-7.5-1.1c-1.6,2.6-1.4,13.1,4.7,14.4
			c0.8-1.3-0.2-4-0.2-4s2.3-0.1,1.1-2.2c-0.6-1-2.1-1.5-2.6-2.6c-0.6-1.4-2-3.3-0.2-4.8C765.2,253.7,764.5,255.9,764.5,255.9z"></path>
	</g>
	<g>
		<path class="st0" d="M770.9,225.7c-3.3-5.1-2.8-16.5,1.5-19.2c4.3-2.8,6.2,3.3,3.3,8.1c7.2-7.6,11,1,4.9,5
			C774.6,223.6,770.9,225.7,770.9,225.7z"></path>
		<path class="st0" d="M749.4,247.1c-5.1-3.4-16.4-3-19.3,1.3c-2.8,4.3,3.2,6.2,8,3.4c-7.7,7.1,0.9,11,4.9,5
			C747.2,250.8,749.4,247.1,749.4,247.1z"></path>
	</g>
	<g>
		<path class="st0" d="M11.1,254c0,1.2-2.5,11.1-3.4,12.8c-0.5,0.9-0.2,1.3,0.1,1.5c0.2,0.2,0.9,0.3,1.5,0.1
			c1.8-0.9,10.6-3,12.9-3.3c1.2-0.1,1.5-0.3,1.6-1.7c0.1-1,3.7-11.2,6-13.5c2.4-2.3,5.3-0.6,5.8-1.7c0.5-1.1-0.6-3,1.3-5.8
			c1.9-2.8,4.1-5.3,3.4-6.1c-0.8-0.8-3.3,1.4-6.1,3.3c-2.8,1.9-4.8,0.7-5.9,1.2c-1.1,0.5,0.6,3.4-1.8,5.7
			c-2.4,2.3-12.2,5.6-13.9,6.1C11.5,252.9,11.1,252.8,11.1,254z M30,246.6c0,0-5.2,5.8-6,7.9c-0.8,2.2-1-0.2-1-0.2l-0.8,3.3
			l-1.2-0.4c0,0-0.8,2.2-1,2.7c-0.2,0.6-1.1,0.7-1.4,0c-0.3-0.7-1.9,1.1-1.9,1.1s-4,3.7-4.9,4.7c-1,1-2.6,1.4-2.6,1.4L30,246.6z"></path>
		<g>
			<path class="st0" d="M44.4,243.9c-0.8-1-2.1-1.1-2.8-0.3c-0.7,0.8-0.7,1.9-0.2,2.6c1.7,2.8,2.3,6.3,2.3,9.8c0,3.5-0.6,7-1.8,10.1
				c-0.5,1.6,0.3,3.3,1.9,4.3c0.8,0.5,1.8,0.5,2.7,0.1c0.9-0.4,1.6-1.3,2-2.4c1-4.2,1.1-8.4,0.6-12.5
				C48.4,251.5,47.2,247.3,44.4,243.9z"></path>
			<path class="st0" d="M32.6,231.9c1,0.8,1.1,2.1,0.3,2.8c-0.8,0.7-1.9,0.7-2.6,0.2c-2.7-1.8-6.3-2.4-9.7-2.4
				c-3.5,0-7.1,0.5-10.1,1.7c-1.6,0.4-3.2-0.3-4.3-1.9c-0.5-0.8-0.5-1.8-0.1-2.7c0.4-0.9,1.3-1.6,2.4-1.9c4.3-0.9,8.4-1,12.5-0.4
				C25,227.8,29.2,229.1,32.6,231.9z"></path>
		</g>
		<g>
			<path class="st0" d="M35.4,256.1c-1.3,2.9-4.8,2.1-4.3-1.1c0.6-3.2,5.9-3.7,7.5-1c1.6,2.7,1.3,13.1-4.9,14.4
				c-0.8-1.3,0.3-4,0.3-4s-2.3-0.2-1.1-2.2c0.6-1,2.1-1.5,2.6-2.6c0.7-1.4,2.1-3.3,0.2-4.8C34.7,253.8,35.4,256.1,35.4,256.1z"></path>
			<path class="st0" d="M20.3,240.8c-2.9,1.3-2.2,4.8,1,4.3c3.2-0.5,3.8-5.8,1.1-7.5c-2.7-1.6-13.1-1.4-14.4,4.7
				c1.3,0.8,4-0.2,4-0.2s0.1,2.3,2.2,1.1c1-0.6,1.5-2.1,2.6-2.6c1.4-0.6,3.3-2,4.8-0.2C22.6,241.5,20.3,240.8,20.3,240.8z"></path>
		</g>
		<g>
			<path class="st0" d="M50.5,247.2c5.1-3.3,16.5-2.8,19.2,1.5c2.8,4.3-3.3,6.2-8.1,3.3c7.6,7.2-1,11-5,4.9
				C52.7,250.9,50.5,247.2,50.5,247.2z"></path>
			<path class="st0" d="M29.1,225.7c3.4-5.1,3-16.4-1.3-19.3c-4.3-2.8-6.2,3.2-3.4,8c-7.1-7.7-11,0.9-5,4.9
				C25.5,223.4,29.1,225.7,29.1,225.7z"></path>
		</g>
	</g>
	<path class="st0" d="M515.9,12.8L515.9,12.8h209.3c0,0-3.3-4.8-2.4-8.3c0.9-3.6-4.8-4.5-5.7-0.6c-0.9,3.9,0.9,4.8,0.9,4.8H515.9
		H83.8c0,0,1.8-0.9,0.9-4.8c-0.9-3.9-6.6-3-5.7,0.6c0.9,3.6-2.4,8.3-2.4,8.3H515.9z"></path>
	<path class="st0" d="M65.8,6.6c2.1,0.9,3.6,4.8,3.3,5.7c0,0,3.9-2.1,4.5-4.8c0.6-2.7-0.6-3.6-1.8-3c-1.2,0.6-1.2,1.8-1.2,1.8
		S63.7,5.7,65.8,6.6z"></path>
	<path class="st0" d="M60.2,8c0,0,0.2-3.5-1.7-4.2c-1.9-0.6-3.3,4.6-3.3,4.6s-1.7-3.8-2.7-2.9c-1,1,0.6,7.7-0.4,12.1
		c-0.6,2.5,1.5-0.6,1.5-0.6c1-2.7,6.9-6.7,9.8-6.1C66.3,11.6,62.5,8.2,60.2,8z"></path>
	<path class="st0" d="M729.4,6.3c0,0,0-1.2-1.2-1.8c-1.2-0.6-2.4,0.3-1.8,3c0.6,2.7,4.5,4.8,4.5,4.8c-0.3-0.9,1.2-4.8,3.3-5.7
		C736.3,5.7,729.4,6.3,729.4,6.3z"></path>
	<path class="st0" d="M747.5,5.5c-1-0.8-2.7,2.9-2.7,2.9s-1.5-5.2-3.3-4.6c-1.9,0.6-1.7,4.2-1.7,4.2c-2.3,0.2-6.1,3.5-3.1,2.9
		c2.9-0.6,8.8,3.3,9.8,6.1c0,0,2.1,3.1,1.5,0.6C746.9,13.3,748.5,6.6,747.5,5.5z"></path>
	<polygon class="st0" points="725.8,22.4 515.9,22.4 76.1,22.4 76.1,24.5 515.9,24.5 725.8,24.5 	"></polygon>
	<path class="st0" d="M724.7,17.2c0-0.8-0.7-1.5-1.5-1.5c-0.8,0-1.5,0.7-1.5,1.5c0,0.8,0.7,1.5,1.5,1.5
		C724.1,18.7,724.7,18,724.7,17.2z"></path>
	<path class="st0" d="M718,17.2c0-0.8-0.7-1.5-1.5-1.5c-0.8,0-1.5,0.7-1.5,1.5c0,0.8,0.7,1.5,1.5,1.5C717.3,18.7,718,18,718,17.2z"></path>
	<path class="st0" d="M711.3,17.2c0-0.8-0.7-1.5-1.5-1.5c-0.8,0-1.5,0.7-1.5,1.5c0,0.8,0.7,1.5,1.5,1.5
		C710.6,18.7,711.3,18,711.3,17.2z"></path>
	<path class="st0" d="M704.5,17.2c0-0.8-0.7-1.5-1.5-1.5c-0.8,0-1.5,0.7-1.5,1.5c0,0.8,0.7,1.5,1.5,1.5
		C703.9,18.7,704.5,18,704.5,17.2z"></path>
	<path class="st0" d="M697.8,17.2c0-0.8-0.7-1.5-1.5-1.5c-0.8,0-1.5,0.7-1.5,1.5c0,0.8,0.7,1.5,1.5,1.5
		C697.1,18.7,697.8,18,697.8,17.2z"></path>
	<path class="st0" d="M691.1,17.2c0-0.8-0.7-1.5-1.5-1.5c-0.8,0-1.5,0.7-1.5,1.5c0,0.8,0.7,1.5,1.5,1.5
		C690.4,18.7,691.1,18,691.1,17.2z"></path>
	<path class="st0" d="M684.3,17.2c0-0.8-0.7-1.5-1.5-1.5c-0.8,0-1.5,0.7-1.5,1.5c0,0.8,0.7,1.5,1.5,1.5
		C683.7,18.7,684.3,18,684.3,17.2z"></path>
	<path class="st0" d="M677.6,17.2c0-0.8-0.7-1.5-1.5-1.5c-0.8,0-1.5,0.7-1.5,1.5c0,0.8,0.7,1.5,1.5,1.5
		C676.9,18.7,677.6,18,677.6,17.2z"></path>
	<path class="st0" d="M670.8,17.2c0-0.8-0.7-1.5-1.5-1.5c-0.8,0-1.5,0.7-1.5,1.5c0,0.8,0.7,1.5,1.5,1.5
		C670.2,18.7,670.8,18,670.8,17.2z"></path>
	<path class="st0" d="M664.1,17.2c0-0.8-0.7-1.5-1.5-1.5c-0.8,0-1.5,0.7-1.5,1.5c0,0.8,0.7,1.5,1.5,1.5
		C663.5,18.7,664.1,18,664.1,17.2z"></path>
	<path class="st0" d="M792.9,73.9c-3.6,0.9-8.3-2.4-8.3-2.4v65.3h4.2V78.7c0,0,0.9,1.8,4.8,0.9C797.4,78.7,796.5,73,792.9,73.9z"></path>
	<path class="st0" d="M790.8,63.2c-0.9,2.1-4.8,3.6-5.7,3.3c0,0,2.1,3.9,4.8,4.5c2.7,0.6,3.6-0.6,3-1.8c-0.6-1.2-1.8-1.2-1.8-1.2
		S791.7,61.1,790.8,63.2z"></path>
	<path class="st0" d="M780.4,50.9c2.7,1,6.7,6.9,6.1,9.8c-0.6,2.9,2.7-0.8,2.9-3.1c0,0,3.5,0.2,4.2-1.7c0.6-1.9-4.6-3.3-4.6-3.3
		s3.8-1.7,2.9-2.7c-1-1-7.7,0.6-12.1-0.4C777.2,48.9,780.4,50.9,780.4,50.9z"></path>
	<polygon class="st0" points="774.9,71 772.8,71 772.8,136.8 772.8,136.8 772.8,202.7 774.9,202.7 774.9,136.8 774.9,136.8 	"></polygon>
	<path class="st0" d="M780.2,75.6c0.8,0,1.5-0.7,1.5-1.5c0-0.8-0.7-1.5-1.5-1.5c-0.8,0-1.5,0.7-1.5,1.5
		C778.7,74.9,779.3,75.6,780.2,75.6z"></path>
	<path class="st0" d="M780.1,82.2c0.8,0,1.5-0.7,1.5-1.5c0-0.8-0.7-1.5-1.5-1.5c-0.8,0-1.5,0.7-1.5,1.5
		C778.7,81.5,779.3,82.2,780.1,82.2z"></path>
	<path class="st0" d="M780.1,88.8c0.8,0,1.5-0.7,1.5-1.5c0-0.8-0.7-1.5-1.5-1.5c-0.8,0-1.5,0.7-1.5,1.5
		C778.7,88.2,779.3,88.8,780.1,88.8z"></path>
	<path class="st0" d="M778.7,94c0,0.8,0.7,1.5,1.5,1.5c0.8,0,1.5-0.7,1.5-1.5c0-0.8-0.7-1.5-1.5-1.5C779.3,92.5,778.7,93.2,778.7,94
		z"></path>
	<path class="st0" d="M780.1,102.1c0.8,0,1.5-0.7,1.5-1.5c0-0.8-0.7-1.5-1.5-1.5c-0.8,0-1.5,0.7-1.5,1.5
		C778.7,101.4,779.3,102.1,780.1,102.1z"></path>
	<path class="st0" d="M780.2,105.8c-0.8,0-1.5,0.7-1.5,1.5c0,0.8,0.7,1.5,1.5,1.5c0.8,0,1.5-0.7,1.5-1.5
		C781.6,106.5,781,105.8,780.2,105.8z"></path>
	<path class="st0" d="M780.2,112.4c-0.8,0-1.5,0.7-1.5,1.5c0,0.8,0.7,1.5,1.5,1.5c0.8,0,1.5-0.7,1.5-1.5
		C781.6,113.1,781,112.4,780.2,112.4z"></path>
	<path class="st0" d="M780.1,122c0.8,0,1.5-0.7,1.5-1.5c0-0.8-0.7-1.5-1.5-1.5c-0.8,0-1.5,0.7-1.5,1.5
		C778.7,121.3,779.3,122,780.1,122z"></path>
	<path class="st0" d="M780.1,128.6c0.8,0,1.5-0.7,1.5-1.5s-0.7-1.5-1.5-1.5c-0.8,0-1.5,0.7-1.5,1.5S779.3,128.6,780.1,128.6z"></path>
	<path class="st0" d="M780.2,135.3c0.8,0,1.5-0.7,1.5-1.5c0-0.8-0.7-1.5-1.5-1.5c-0.8,0-1.5,0.7-1.5,1.5
		C778.7,134.6,779.3,135.3,780.2,135.3z"></path>
	<path class="st0" d="M793.5,194c-3.9-0.9-4.8,0.9-4.8,0.9v-58.1l-4.2,0v65.3c0,0,4.8-3.3,8.3-2.4
		C796.5,200.6,797.4,194.9,793.5,194z"></path>
	<path class="st0" d="M792.9,204.5c0.6-1.2-0.3-2.4-3-1.8c-2.7,0.6-4.8,4.5-4.8,4.5c0.9-0.3,4.8,1.2,5.7,3.3
		c0.9,2.1,0.3-4.8,0.3-4.8S792.3,205.7,792.9,204.5z"></path>
	<path class="st0" d="M789.3,216c-0.2-2.3-3.5-6.1-2.9-3.1c0.6,2.9-3.3,8.8-6.1,9.8c0,0-3.1,2.1-0.6,1.5c4.4-1,11.1,0.6,12.1-0.4
		c0.8-1-2.9-2.7-2.9-2.7s5.2-1.5,4.6-3.3C792.9,215.8,789.3,216,789.3,216z"></path>
	<path class="st0" d="M780.2,201c0.8,0,1.5-0.7,1.5-1.5c0-0.8-0.7-1.5-1.5-1.5c-0.8,0-1.5,0.7-1.5,1.5
		C778.7,200.3,779.3,201,780.2,201z"></path>
	<path class="st0" d="M780.2,191.4c-0.8,0-1.5,0.7-1.5,1.5c0,0.8,0.7,1.5,1.5,1.5c0.8,0,1.5-0.7,1.5-1.5
		C781.6,192.1,781,191.4,780.2,191.4z"></path>
	<path class="st0" d="M780.2,184.8c-0.8,0-1.5,0.7-1.5,1.5c0,0.8,0.7,1.5,1.5,1.5c0.8,0,1.5-0.7,1.5-1.5
		C781.6,185.5,781,184.8,780.2,184.8z"></path>
	<path class="st0" d="M780.2,178.2c-0.8,0-1.5,0.7-1.5,1.5c0,0.8,0.7,1.5,1.5,1.5c0.8,0,1.5-0.7,1.5-1.5
		C781.6,178.8,781,178.2,780.2,178.2z"></path>
	<path class="st0" d="M780.2,171.5c-0.8,0-1.5,0.7-1.5,1.5c0,0.8,0.7,1.5,1.5,1.5c0.8,0,1.5-0.7,1.5-1.5
		C781.6,172.2,781,171.5,780.2,171.5z"></path>
	<path class="st0" d="M780.2,164.9c-0.8,0-1.5,0.7-1.5,1.5c0,0.8,0.7,1.5,1.5,1.5c0.8,0,1.5-0.7,1.5-1.5
		C781.6,165.6,781,164.9,780.2,164.9z"></path>
	<path class="st0" d="M780.2,158.3c-0.8,0-1.5,0.7-1.5,1.5c0,0.8,0.7,1.5,1.5,1.5c0.8,0,1.5-0.7,1.5-1.5
		C781.6,158.9,781,158.3,780.2,158.3z"></path>
	<path class="st0" d="M780.2,151.6c-0.8,0-1.5,0.7-1.5,1.5c0,0.8,0.7,1.5,1.5,1.5c0.8,0,1.5-0.7,1.5-1.5
		C781.6,152.3,781,151.6,780.2,151.6z"></path>
	<path class="st0" d="M780.2,145c-0.8,0-1.5,0.7-1.5,1.5c0,0.8,0.7,1.5,1.5,1.5c0.8,0,1.5-0.7,1.5-1.5
		C781.6,145.7,781,145,780.2,145z"></path>
	<path class="st0" d="M780.2,138.4c-0.8,0-1.5,0.7-1.5,1.5c0,0.8,0.7,1.5,1.5,1.5c0.8,0,1.5-0.7,1.5-1.5
		C781.6,139,781,138.4,780.2,138.4z"></path>
	<path class="st0" d="M515.9,260.8H76.6c0,0,3.3,4.8,2.4,8.3c-0.9,3.6,4.8,4.5,5.7,0.6c0.9-3.9-0.9-4.8-0.9-4.8h432.1H718
		c0,0-1.8,0.9-0.9,4.8c0.9,3.9,6.6,3,5.7-0.6c-0.9-3.6,2.4-8.3,2.4-8.3H515.9z"></path>
	<path class="st0" d="M734.2,267.1c-2.1-0.9-3.6-4.8-3.3-5.7c0,0-3.9,2.1-4.5,4.8c-0.6,2.7,0.6,3.6,1.8,3c1.2-0.6,1.2-1.8,1.2-1.8
		S736.3,268,734.2,267.1z"></path>
	<path class="st0" d="M746.4,256.6c-1,2.7-6.9,6.7-9.8,6.1c-2.9-0.6,0.8,2.7,3.1,2.9c0,0-0.2,3.6,1.7,4.2c1.9,0.6,3.3-4.6,3.3-4.6
		s1.7,3.8,2.7,2.9c1-1-0.6-7.7,0.4-12.1C748.5,253.5,746.4,256.6,746.4,256.6z"></path>
	<polygon class="st0" points="725.8,249.1 515.9,249.1 76.1,249.1 76.1,251.2 515.9,251.2 725.8,251.2 	"></polygon>
	<path class="st0" d="M721.8,256.4c0,0.8,0.7,1.5,1.5,1.5c0.8,0,1.5-0.7,1.5-1.5c0-0.8-0.7-1.5-1.5-1.5
		C722.5,255,721.8,255.6,721.8,256.4z"></path>
	<path class="st0" d="M715.1,256.4c0,0.8,0.7,1.5,1.5,1.5c0.8,0,1.5-0.7,1.5-1.5c0-0.8-0.7-1.5-1.5-1.5
		C715.7,255,715.1,255.6,715.1,256.4z"></path>
	<path class="st0" d="M708.3,256.4c0,0.8,0.7,1.5,1.5,1.5c0.8,0,1.5-0.7,1.5-1.5c0-0.8-0.7-1.5-1.5-1.5
		C709,255,708.3,255.6,708.3,256.4z"></path>
	<path class="st0" d="M701.6,256.4c0,0.8,0.7,1.5,1.5,1.5c0.8,0,1.5-0.7,1.5-1.5c0-0.8-0.7-1.5-1.5-1.5
		C702.3,255,701.6,255.6,701.6,256.4z"></path>
	<path class="st0" d="M694.9,256.4c0,0.8,0.7,1.5,1.5,1.5c0.8,0,1.5-0.7,1.5-1.5c0-0.8-0.7-1.5-1.5-1.5
		C695.5,255,694.9,255.6,694.9,256.4z"></path>
	<path class="st0" d="M688.1,256.4c0,0.8,0.7,1.5,1.5,1.5c0.8,0,1.5-0.7,1.5-1.5c0-0.8-0.7-1.5-1.5-1.5
		C688.8,255,688.1,255.6,688.1,256.4z"></path>
	<path class="st0" d="M681.4,256.4c0,0.8,0.7,1.5,1.5,1.5c0.8,0,1.5-0.7,1.5-1.5c0-0.8-0.7-1.5-1.5-1.5
		C682.1,255,681.4,255.6,681.4,256.4z"></path>
	<path class="st0" d="M674.7,256.4c0,0.8,0.7,1.5,1.5,1.5c0.8,0,1.5-0.7,1.5-1.5c0-0.8-0.7-1.5-1.5-1.5
		C675.3,255,674.7,255.6,674.7,256.4z"></path>
	<path class="st0" d="M667.9,256.4c0,0.8,0.7,1.5,1.5,1.5c0.8,0,1.5-0.7,1.5-1.5c0-0.8-0.7-1.5-1.5-1.5
		C668.6,255,667.9,255.6,667.9,256.4z"></path>
	<path class="st0" d="M661.2,256.4c0,0.8,0.7,1.5,1.5,1.5c0.8,0,1.5-0.7,1.5-1.5c0-0.8-0.7-1.5-1.5-1.5
		C661.8,255,661.2,255.6,661.2,256.4z"></path>
	<path class="st0" d="M69.1,261.4c0.3,0.9-1.2,4.8-3.3,5.7c-2.1,0.9,4.8,0.3,4.8,0.3s0,1.2,1.2,1.8c1.2,0.6,2.4-0.3,1.8-3
		C73,263.5,69.1,261.4,69.1,261.4z"></path>
	<path class="st0" d="M63.4,262.7c-2.9,0.6-8.8-3.3-9.8-6.1c0,0-2.1-3.1-1.5-0.6c1,4.4-0.6,11.1,0.4,12.1c1,0.8,2.7-2.9,2.7-2.9
		s1.5,5.2,3.3,4.6c1.9-0.6,1.7-4.2,1.7-4.2C62.5,265.4,66.3,262.1,63.4,262.7z"></path>
	<path class="st0" d="M78.2,17.2c0-0.8-0.7-1.5-1.5-1.5c-0.8,0-1.5,0.7-1.5,1.5c0,0.8,0.7,1.5,1.5,1.5C77.5,18.7,78.2,18,78.2,17.2z
		"></path>
	<path class="st0" d="M84.9,17.2c0-0.8-0.7-1.5-1.5-1.5c-0.8,0-1.5,0.7-1.5,1.5c0,0.8,0.7,1.5,1.5,1.5C84.3,18.7,84.9,18,84.9,17.2z
		"></path>
	<path class="st0" d="M91.7,17.2c0-0.8-0.7-1.5-1.5-1.5c-0.8,0-1.5,0.7-1.5,1.5c0,0.8,0.7,1.5,1.5,1.5C91,18.7,91.7,18,91.7,17.2z"></path>
	<path class="st0" d="M98.4,17.2c0-0.8-0.7-1.5-1.5-1.5c-0.8,0-1.5,0.7-1.5,1.5c0,0.8,0.7,1.5,1.5,1.5C97.7,18.7,98.4,18,98.4,17.2z
		"></path>
	<path class="st0" d="M105.1,17.2c0-0.8-0.7-1.5-1.5-1.5c-0.8,0-1.5,0.7-1.5,1.5c0,0.8,0.7,1.5,1.5,1.5
		C104.5,18.7,105.1,18,105.1,17.2z"></path>
	<path class="st0" d="M111.9,17.2c0-0.8-0.7-1.5-1.5-1.5c-0.8,0-1.5,0.7-1.5,1.5c0,0.8,0.7,1.5,1.5,1.5
		C111.2,18.7,111.9,18,111.9,17.2z"></path>
	<path class="st0" d="M118.6,17.2c0-0.8-0.7-1.5-1.5-1.5c-0.8,0-1.5,0.7-1.5,1.5c0,0.8,0.7,1.5,1.5,1.5
		C118,18.7,118.6,18,118.6,17.2z"></path>
	<path class="st0" d="M125.3,17.2c0-0.8-0.7-1.5-1.5-1.5c-0.8,0-1.5,0.7-1.5,1.5c0,0.8,0.7,1.5,1.5,1.5
		C124.7,18.7,125.3,18,125.3,17.2z"></path>
	<path class="st0" d="M132.1,17.2c0-0.8-0.7-1.5-1.5-1.5c-0.8,0-1.5,0.7-1.5,1.5c0,0.8,0.7,1.5,1.5,1.5
		C131.4,18.7,132.1,18,132.1,17.2z"></path>
	<path class="st0" d="M138.8,17.2c0-0.8-0.7-1.5-1.5-1.5c-0.8,0-1.5,0.7-1.5,1.5c0,0.8,0.7,1.5,1.5,1.5
		C138.2,18.7,138.8,18,138.8,17.2z"></path>
	<path class="st0" d="M75.3,256.4c0,0.8,0.7,1.5,1.5,1.5c0.8,0,1.5-0.7,1.5-1.5c0-0.8-0.7-1.5-1.5-1.5
		C75.9,255,75.3,255.6,75.3,256.4z"></path>
	<path class="st0" d="M82,256.4c0,0.8,0.7,1.5,1.5,1.5c0.8,0,1.5-0.7,1.5-1.5c0-0.8-0.7-1.5-1.5-1.5C82.7,255,82,255.6,82,256.4z"></path>
	<path class="st0" d="M88.7,256.4c0,0.8,0.7,1.5,1.5,1.5c0.8,0,1.5-0.7,1.5-1.5c0-0.8-0.7-1.5-1.5-1.5
		C89.4,255,88.7,255.6,88.7,256.4z"></path>
	<path class="st0" d="M95.5,256.4c0,0.8,0.7,1.5,1.5,1.5c0.8,0,1.5-0.7,1.5-1.5c0-0.8-0.7-1.5-1.5-1.5
		C96.1,255,95.5,255.6,95.5,256.4z"></path>
	<path class="st0" d="M102.2,256.4c0,0.8,0.7,1.5,1.5,1.5c0.8,0,1.5-0.7,1.5-1.5c0-0.8-0.7-1.5-1.5-1.5
		C102.9,255,102.2,255.6,102.2,256.4z"></path>
	<path class="st0" d="M108.9,256.4c0,0.8,0.7,1.5,1.5,1.5c0.8,0,1.5-0.7,1.5-1.5c0-0.8-0.7-1.5-1.5-1.5
		C109.6,255,108.9,255.6,108.9,256.4z"></path>
	<path class="st0" d="M115.7,256.4c0,0.8,0.7,1.5,1.5,1.5c0.8,0,1.5-0.7,1.5-1.5c0-0.8-0.7-1.5-1.5-1.5
		C116.3,255,115.7,255.6,115.7,256.4z"></path>
	<path class="st0" d="M122.4,256.4c0,0.8,0.7,1.5,1.5,1.5c0.8,0,1.5-0.7,1.5-1.5c0-0.8-0.7-1.5-1.5-1.5
		C123.1,255,122.4,255.6,122.4,256.4z"></path>
	<path class="st0" d="M129.2,256.4c0,0.8,0.7,1.5,1.5,1.5c0.8,0,1.5-0.7,1.5-1.5c0-0.8-0.7-1.5-1.5-1.5
		C129.8,255,129.2,255.6,129.2,256.4z"></path>
	<path class="st0" d="M135.9,256.4c0,0.8,0.7,1.5,1.5,1.5c0.8,0,1.5-0.7,1.5-1.5c0-0.8-0.7-1.5-1.5-1.5
		C136.5,255,135.9,255.6,135.9,256.4z"></path>
	<path class="st0" d="M145.5,17.2c0-0.8-0.7-1.5-1.5-1.5c-0.8,0-1.5,0.7-1.5,1.5c0,0.8,0.7,1.5,1.5,1.5
		C144.9,18.7,145.5,18,145.5,17.2z"></path>
	<path class="st0" d="M152.3,17.2c0-0.8-0.7-1.5-1.5-1.5c-0.8,0-1.5,0.7-1.5,1.5c0,0.8,0.7,1.5,1.5,1.5
		C151.6,18.7,152.3,18,152.3,17.2z"></path>
	<path class="st0" d="M159,17.2c0-0.8-0.7-1.5-1.5-1.5c-0.8,0-1.5,0.7-1.5,1.5c0,0.8,0.7,1.5,1.5,1.5C158.4,18.7,159,18,159,17.2z"></path>
	<path class="st0" d="M165.7,17.2c0-0.8-0.7-1.5-1.5-1.5c-0.8,0-1.5,0.7-1.5,1.5c0,0.8,0.7,1.5,1.5,1.5
		C165.1,18.7,165.7,18,165.7,17.2z"></path>
	<path class="st0" d="M172.5,17.2c0-0.8-0.7-1.5-1.5-1.5c-0.8,0-1.5,0.7-1.5,1.5c0,0.8,0.7,1.5,1.5,1.5
		C171.8,18.7,172.5,18,172.5,17.2z"></path>
	<path class="st0" d="M179.2,17.2c0-0.8-0.7-1.5-1.5-1.5c-0.8,0-1.5,0.7-1.5,1.5c0,0.8,0.7,1.5,1.5,1.5
		C178.6,18.7,179.2,18,179.2,17.2z"></path>
	<path class="st0" d="M185.9,17.2c0-0.8-0.7-1.5-1.5-1.5c-0.8,0-1.5,0.7-1.5,1.5c0,0.8,0.7,1.5,1.5,1.5
		C185.3,18.7,185.9,18,185.9,17.2z"></path>
	<path class="st0" d="M192.7,17.2c0-0.8-0.7-1.5-1.5-1.5c-0.8,0-1.5,0.7-1.5,1.5c0,0.8,0.7,1.5,1.5,1.5
		C192,18.7,192.7,18,192.7,17.2z"></path>
	<path class="st0" d="M199.4,17.2c0-0.8-0.7-1.5-1.5-1.5c-0.8,0-1.5,0.7-1.5,1.5c0,0.8,0.7,1.5,1.5,1.5
		C198.8,18.7,199.4,18,199.4,17.2z"></path>
	<path class="st0" d="M206.2,17.2c0-0.8-0.7-1.5-1.5-1.5c-0.8,0-1.5,0.7-1.5,1.5c0,0.8,0.7,1.5,1.5,1.5
		C205.5,18.7,206.2,18,206.2,17.2z"></path>
	<path class="st0" d="M142.6,256.4c0,0.8,0.7,1.5,1.5,1.5c0.8,0,1.5-0.7,1.5-1.5c0-0.8-0.7-1.5-1.5-1.5
		C143.3,255,142.6,255.6,142.6,256.4z"></path>
	<path class="st0" d="M149.4,256.4c0,0.8,0.7,1.5,1.5,1.5c0.8,0,1.5-0.7,1.5-1.5c0-0.8-0.7-1.5-1.5-1.5
		C150,255,149.4,255.6,149.4,256.4z"></path>
	<path class="st0" d="M156.1,256.4c0,0.8,0.7,1.5,1.5,1.5c0.8,0,1.5-0.7,1.5-1.5c0-0.8-0.7-1.5-1.5-1.5
		C156.7,255,156.1,255.6,156.1,256.4z"></path>
	<path class="st0" d="M162.8,256.4c0,0.8,0.7,1.5,1.5,1.5c0.8,0,1.5-0.7,1.5-1.5c0-0.8-0.7-1.5-1.5-1.5
		C163.5,255,162.8,255.6,162.8,256.4z"></path>
	<path class="st0" d="M169.6,256.4c0,0.8,0.7,1.5,1.5,1.5c0.8,0,1.5-0.7,1.5-1.5c0-0.8-0.7-1.5-1.5-1.5
		C170.2,255,169.6,255.6,169.6,256.4z"></path>
	<path class="st0" d="M176.3,256.4c0,0.8,0.7,1.5,1.5,1.5c0.8,0,1.5-0.7,1.5-1.5c0-0.8-0.7-1.5-1.5-1.5
		C176.9,255,176.3,255.6,176.3,256.4z"></path>
	<path class="st0" d="M183,256.4c0,0.8,0.7,1.5,1.5,1.5c0.8,0,1.5-0.7,1.5-1.5c0-0.8-0.7-1.5-1.5-1.5C183.7,255,183,255.6,183,256.4
		z"></path>
	<path class="st0" d="M189.8,256.4c0,0.8,0.7,1.5,1.5,1.5c0.8,0,1.5-0.7,1.5-1.5c0-0.8-0.7-1.5-1.5-1.5
		C190.4,255,189.8,255.6,189.8,256.4z"></path>
	<path class="st0" d="M196.5,256.4c0,0.8,0.7,1.5,1.5,1.5c0.8,0,1.5-0.7,1.5-1.5c0-0.8-0.7-1.5-1.5-1.5
		C197.2,255,196.5,255.6,196.5,256.4z"></path>
	<path class="st0" d="M203.2,256.4c0,0.8,0.7,1.5,1.5,1.5c0.8,0,1.5-0.7,1.5-1.5c0-0.8-0.7-1.5-1.5-1.5S203.2,255.6,203.2,256.4z"></path>
	<path class="st0" d="M212.9,17.2c0-0.8-0.7-1.5-1.5-1.5c-0.8,0-1.5,0.7-1.5,1.5c0,0.8,0.7,1.5,1.5,1.5
		C212.2,18.7,212.9,18,212.9,17.2z"></path>
	<path class="st0" d="M219.6,17.2c0-0.8-0.7-1.5-1.5-1.5c-0.8,0-1.5,0.7-1.5,1.5c0,0.8,0.7,1.5,1.5,1.5
		C219,18.7,219.6,18,219.6,17.2z"></path>
	<path class="st0" d="M226.4,17.2c0-0.8-0.7-1.5-1.5-1.5c-0.8,0-1.5,0.7-1.5,1.5c0,0.8,0.7,1.5,1.5,1.5
		C225.7,18.7,226.4,18,226.4,17.2z"></path>
	<path class="st0" d="M233.1,17.2c0-0.8-0.7-1.5-1.5-1.5c-0.8,0-1.5,0.7-1.5,1.5c0,0.8,0.7,1.5,1.5,1.5
		C232.4,18.7,233.1,18,233.1,17.2z"></path>
	<path class="st0" d="M239.8,17.2c0-0.8-0.7-1.5-1.5-1.5c-0.8,0-1.5,0.7-1.5,1.5c0,0.8,0.7,1.5,1.5,1.5
		C239.2,18.7,239.8,18,239.8,17.2z"></path>
	<path class="st0" d="M246.6,17.2c0-0.8-0.7-1.5-1.5-1.5c-0.8,0-1.5,0.7-1.5,1.5c0,0.8,0.7,1.5,1.5,1.5
		C245.9,18.7,246.6,18,246.6,17.2z"></path>
	<path class="st0" d="M253.3,17.2c0-0.8-0.7-1.5-1.5-1.5c-0.8,0-1.5,0.7-1.5,1.5c0,0.8,0.7,1.5,1.5,1.5
		C252.6,18.7,253.3,18,253.3,17.2z"></path>
	<path class="st0" d="M260,17.2c0-0.8-0.6-1.5-1.5-1.5c-0.8,0-1.5,0.7-1.5,1.5c0,0.8,0.7,1.5,1.5,1.5C259.4,18.7,260,18,260,17.2z"></path>
	<path class="st0" d="M266.8,17.2c0-0.8-0.7-1.5-1.5-1.5c-0.8,0-1.5,0.7-1.5,1.5c0,0.8,0.7,1.5,1.5,1.5
		C266.1,18.7,266.8,18,266.8,17.2z"></path>
	<path class="st0" d="M273.5,17.2c0-0.8-0.7-1.5-1.5-1.5c-0.8,0-1.5,0.7-1.5,1.5c0,0.8,0.7,1.5,1.5,1.5
		C272.8,18.7,273.5,18,273.5,17.2z"></path>
	<path class="st0" d="M210,256.4c0,0.8,0.7,1.5,1.5,1.5c0.8,0,1.5-0.7,1.5-1.5c0-0.8-0.7-1.5-1.5-1.5C210.6,255,210,255.6,210,256.4
		z"></path>
	<path class="st0" d="M216.7,256.4c0,0.8,0.7,1.5,1.5,1.5c0.8,0,1.5-0.7,1.5-1.5c0-0.8-0.7-1.5-1.5-1.5
		C217.4,255,216.7,255.6,216.7,256.4z"></path>
	<path class="st0" d="M223.4,256.4c0,0.8,0.7,1.5,1.5,1.5c0.8,0,1.5-0.7,1.5-1.5c0-0.8-0.7-1.5-1.5-1.5S223.4,255.6,223.4,256.4z"></path>
	<path class="st0" d="M230.2,256.4c0,0.8,0.7,1.5,1.5,1.5c0.8,0,1.5-0.7,1.5-1.5c0-0.8-0.7-1.5-1.5-1.5
		C230.8,255,230.2,255.6,230.2,256.4z"></path>
	<path class="st0" d="M236.9,256.4c0,0.8,0.7,1.5,1.5,1.5c0.8,0,1.5-0.7,1.5-1.5c0-0.8-0.7-1.5-1.5-1.5
		C237.6,255,236.9,255.6,236.9,256.4z"></path>
	<path class="st0" d="M243.6,256.4c0,0.8,0.7,1.5,1.5,1.5c0.8,0,1.5-0.7,1.5-1.5c0-0.8-0.7-1.5-1.5-1.5
		C244.3,255,243.6,255.6,243.6,256.4z"></path>
	<path class="st0" d="M250.4,256.4c0,0.8,0.7,1.5,1.5,1.5c0.8,0,1.5-0.7,1.5-1.5c0-0.8-0.7-1.5-1.5-1.5
		C251,255,250.4,255.6,250.4,256.4z"></path>
	<path class="st0" d="M257.1,256.4c0,0.8,0.7,1.5,1.5,1.5s1.5-0.7,1.5-1.5c0-0.8-0.7-1.5-1.5-1.5C257.8,255,257.1,255.6,257.1,256.4
		z"></path>
	<path class="st0" d="M263.8,256.4c0,0.8,0.7,1.5,1.5,1.5c0.8,0,1.5-0.7,1.5-1.5c0-0.8-0.7-1.5-1.5-1.5
		C264.5,255,263.8,255.6,263.8,256.4z"></path>
	<path class="st0" d="M270.6,256.4c0,0.8,0.7,1.5,1.5,1.5c0.8,0,1.5-0.7,1.5-1.5c0-0.8-0.7-1.5-1.5-1.5
		C271.2,255,270.6,255.6,270.6,256.4z"></path>
	<path class="st0" d="M280.2,17.2c0-0.8-0.7-1.5-1.5-1.5c-0.8,0-1.5,0.7-1.5,1.5c0,0.8,0.7,1.5,1.5,1.5
		C279.6,18.7,280.2,18,280.2,17.2z"></path>
	<path class="st0" d="M287,17.2c0-0.8-0.7-1.5-1.5-1.5c-0.8,0-1.5,0.7-1.5,1.5c0,0.8,0.7,1.5,1.5,1.5C286.3,18.7,287,18,287,17.2z"></path>
	<path class="st0" d="M293.7,17.2c0-0.8-0.7-1.5-1.5-1.5c-0.8,0-1.5,0.7-1.5,1.5c0,0.8,0.7,1.5,1.5,1.5
		C293.1,18.7,293.7,18,293.7,17.2z"></path>
	<path class="st0" d="M300.4,17.2c0-0.8-0.7-1.5-1.5-1.5c-0.8,0-1.5,0.7-1.5,1.5c0,0.8,0.7,1.5,1.5,1.5
		C299.8,18.7,300.4,18,300.4,17.2z"></path>
	<path class="st0" d="M307.2,17.2c0-0.8-0.7-1.5-1.5-1.5c-0.8,0-1.5,0.7-1.5,1.5c0,0.8,0.7,1.5,1.5,1.5
		C306.5,18.7,307.2,18,307.2,17.2z"></path>
	<path class="st0" d="M313.9,17.2c0-0.8-0.7-1.5-1.5-1.5c-0.8,0-1.5,0.7-1.5,1.5c0,0.8,0.7,1.5,1.5,1.5
		C313.3,18.7,313.9,18,313.9,17.2z"></path>
	<path class="st0" d="M320.6,17.2c0-0.8-0.7-1.5-1.5-1.5c-0.8,0-1.5,0.7-1.5,1.5c0,0.8,0.7,1.5,1.5,1.5S320.6,18,320.6,17.2z"></path>
	<path class="st0" d="M327.4,17.2c0-0.8-0.7-1.5-1.5-1.5c-0.8,0-1.5,0.7-1.5,1.5c0,0.8,0.7,1.5,1.5,1.5
		C326.7,18.7,327.4,18,327.4,17.2z"></path>
	<path class="st0" d="M334.1,17.2c0-0.8-0.7-1.5-1.5-1.5c-0.8,0-1.5,0.7-1.5,1.5c0,0.8,0.7,1.5,1.5,1.5
		C333.5,18.7,334.1,18,334.1,17.2z"></path>
	<path class="st0" d="M340.8,17.2c0-0.8-0.7-1.5-1.5-1.5c-0.8,0-1.5,0.7-1.5,1.5c0,0.8,0.7,1.5,1.5,1.5
		C340.2,18.7,340.8,18,340.8,17.2z"></path>
	<path class="st0" d="M277.3,256.4c0,0.8,0.7,1.5,1.5,1.5c0.8,0,1.5-0.7,1.5-1.5c0-0.8-0.7-1.5-1.5-1.5
		C278,255,277.3,255.6,277.3,256.4z"></path>
	<path class="st0" d="M284.1,256.4c0,0.8,0.7,1.5,1.5,1.5c0.8,0,1.5-0.7,1.5-1.5c0-0.8-0.7-1.5-1.5-1.5
		C284.7,255,284.1,255.6,284.1,256.4z"></path>
	<path class="st0" d="M290.8,256.4c0,0.8,0.7,1.5,1.5,1.5c0.8,0,1.5-0.7,1.5-1.5c0-0.8-0.7-1.5-1.5-1.5
		C291.4,255,290.8,255.6,290.8,256.4z"></path>
	<path class="st0" d="M297.5,256.4c0,0.8,0.7,1.5,1.5,1.5c0.8,0,1.5-0.7,1.5-1.5c0-0.8-0.7-1.5-1.5-1.5
		C298.2,255,297.5,255.6,297.5,256.4z"></path>
	<path class="st0" d="M304.3,256.4c0,0.8,0.7,1.5,1.5,1.5c0.8,0,1.5-0.7,1.5-1.5c0-0.8-0.7-1.5-1.5-1.5
		C304.9,255,304.3,255.6,304.3,256.4z"></path>
	<path class="st0" d="M311,256.4c0,0.8,0.7,1.5,1.5,1.5c0.8,0,1.5-0.7,1.5-1.5c0-0.8-0.7-1.5-1.5-1.5C311.6,255,311,255.6,311,256.4
		z"></path>
	<path class="st0" d="M317.7,256.4c0,0.8,0.7,1.5,1.5,1.5s1.5-0.7,1.5-1.5c0-0.8-0.7-1.5-1.5-1.5C318.4,255,317.7,255.6,317.7,256.4
		z"></path>
	<path class="st0" d="M324.5,256.4c0,0.8,0.7,1.5,1.5,1.5c0.8,0,1.5-0.7,1.5-1.5c0-0.8-0.7-1.5-1.5-1.5
		C325.1,255,324.5,255.6,324.5,256.4z"></path>
	<path class="st0" d="M331.2,256.4c0,0.8,0.7,1.5,1.5,1.5c0.8,0,1.5-0.7,1.5-1.5c0-0.8-0.7-1.5-1.5-1.5
		C331.8,255,331.2,255.6,331.2,256.4z"></path>
	<path class="st0" d="M337.9,256.4c0,0.8,0.7,1.5,1.5,1.5c0.8,0,1.5-0.7,1.5-1.5c0-0.8-0.7-1.5-1.5-1.5
		C338.6,255,337.9,255.6,337.9,256.4z"></path>
	<path class="st0" d="M347.6,17.2c0-0.8-0.7-1.5-1.5-1.5c-0.8,0-1.5,0.7-1.5,1.5c0,0.8,0.7,1.5,1.5,1.5
		C346.9,18.7,347.6,18,347.6,17.2z"></path>
	<path class="st0" d="M354.3,17.2c0-0.8-0.7-1.5-1.5-1.5c-0.8,0-1.5,0.7-1.5,1.5c0,0.8,0.7,1.5,1.5,1.5
		C353.7,18.7,354.3,18,354.3,17.2z"></path>
	<path class="st0" d="M361.1,17.2c0-0.8-0.7-1.5-1.5-1.5c-0.8,0-1.5,0.7-1.5,1.5c0,0.8,0.7,1.5,1.5,1.5
		C360.4,18.7,361.1,18,361.1,17.2z"></path>
	<path class="st0" d="M367.8,17.2c0-0.8-0.7-1.5-1.5-1.5c-0.8,0-1.5,0.7-1.5,1.5c0,0.8,0.7,1.5,1.5,1.5
		C367.1,18.7,367.8,18,367.8,17.2z"></path>
	<path class="st0" d="M374.5,17.2c0-0.8-0.7-1.5-1.5-1.5c-0.8,0-1.5,0.7-1.5,1.5c0,0.8,0.7,1.5,1.5,1.5
		C373.9,18.7,374.5,18,374.5,17.2z"></path>
	<path class="st0" d="M381.3,17.2c0-0.8-0.7-1.5-1.5-1.5c-0.8,0-1.5,0.7-1.5,1.5c0,0.8,0.7,1.5,1.5,1.5
		C380.6,18.7,381.3,18,381.3,17.2z"></path>
	<path class="st0" d="M388,17.2c0-0.8-0.7-1.5-1.5-1.5c-0.8,0-1.5,0.7-1.5,1.5c0,0.8,0.7,1.5,1.5,1.5C387.3,18.7,388,18,388,17.2z"></path>
	<path class="st0" d="M394.7,17.2c0-0.8-0.7-1.5-1.5-1.5c-0.8,0-1.5,0.7-1.5,1.5c0,0.8,0.7,1.5,1.5,1.5
		C394.1,18.7,394.7,18,394.7,17.2z"></path>
	<path class="st0" d="M401.5,17.2c0-0.8-0.7-1.5-1.5-1.5c-0.8,0-1.5,0.7-1.5,1.5c0,0.8,0.7,1.5,1.5,1.5
		C400.8,18.7,401.5,18,401.5,17.2z"></path>
	<path class="st0" d="M408.2,17.2c0-0.8-0.7-1.5-1.5-1.5c-0.8,0-1.5,0.7-1.5,1.5c0,0.8,0.7,1.5,1.5,1.5
		C407.5,18.7,408.2,18,408.2,17.2z"></path>
	<path class="st0" d="M344.7,256.4c0,0.8,0.7,1.5,1.5,1.5c0.8,0,1.5-0.7,1.5-1.5c0-0.8-0.7-1.5-1.5-1.5
		C345.3,255,344.7,255.6,344.7,256.4z"></path>
	<path class="st0" d="M351.4,256.4c0,0.8,0.7,1.5,1.5,1.5c0.8,0,1.5-0.7,1.5-1.5c0-0.8-0.7-1.5-1.5-1.5
		C352,255,351.4,255.6,351.4,256.4z"></path>
	<path class="st0" d="M358.1,256.4c0,0.8,0.7,1.5,1.5,1.5c0.8,0,1.5-0.7,1.5-1.5c0-0.8-0.7-1.5-1.5-1.5S358.1,255.6,358.1,256.4z"></path>
	<path class="st0" d="M364.9,256.4c0,0.8,0.7,1.5,1.5,1.5c0.8,0,1.5-0.7,1.5-1.5c0-0.8-0.7-1.5-1.5-1.5
		C365.5,255,364.9,255.6,364.9,256.4z"></path>
	<path class="st0" d="M371.6,256.4c0,0.8,0.7,1.5,1.5,1.5s1.5-0.7,1.5-1.5c0-0.8-0.7-1.5-1.5-1.5S371.6,255.6,371.6,256.4z"></path>
	<path class="st0" d="M378.3,256.4c0,0.8,0.7,1.5,1.5,1.5c0.8,0,1.5-0.7,1.5-1.5c0-0.8-0.7-1.5-1.5-1.5
		C379,255,378.3,255.6,378.3,256.4z"></path>
	<path class="st0" d="M385.1,256.4c0,0.8,0.7,1.5,1.5,1.5c0.8,0,1.5-0.7,1.5-1.5c0-0.8-0.7-1.5-1.5-1.5
		C385.7,255,385.1,255.6,385.1,256.4z"></path>
	<path class="st0" d="M391.8,256.4c0,0.8,0.7,1.5,1.5,1.5c0.8,0,1.5-0.7,1.5-1.5c0-0.8-0.7-1.5-1.5-1.5
		C392.5,255,391.8,255.6,391.8,256.4z"></path>
	<path class="st0" d="M398.5,256.4c0,0.8,0.7,1.5,1.5,1.5c0.8,0,1.5-0.7,1.5-1.5c0-0.8-0.7-1.5-1.5-1.5S398.5,255.6,398.5,256.4z"></path>
	<path class="st0" d="M405.3,256.4c0,0.8,0.7,1.5,1.5,1.5c0.8,0,1.5-0.7,1.5-1.5c0-0.8-0.7-1.5-1.5-1.5
		C405.9,255,405.3,255.6,405.3,256.4z"></path>
	<path class="st0" d="M7.1,199.7c3.6-0.9,8.3,2.4,8.3,2.4v-65.3h-4.2v58.1c0,0-0.9-1.8-4.8-0.9C2.7,194.9,3.5,200.6,7.1,199.7z"></path>
	<path class="st0" d="M9.2,210.4c0.9-2.1,4.8-3.6,5.7-3.3c0,0-2.1-3.9-4.8-4.5c-2.7-0.6-3.6,0.6-3,1.8c0.6,1.2,1.8,1.2,1.8,1.2
		S8.3,212.5,9.2,210.4z"></path>
	<path class="st0" d="M19.6,222.7c-2.7-1-6.7-6.9-6.1-9.8c0.6-2.9-2.7,0.8-2.9,3.1c0,0-3.5-0.2-4.2,1.7c-0.6,1.9,4.6,3.3,4.6,3.3
		s-3.8,1.7-2.9,2.7c1,1,7.7-0.6,12.1,0.4C22.8,224.8,19.6,222.7,19.6,222.7z"></path>
	<rect x="25.1" y="136.8" class="st0" width="2.1" height="65.8"></rect>
	<path class="st0" d="M19.9,198.1c-0.8,0-1.5,0.7-1.5,1.5c0,0.8,0.7,1.5,1.5,1.5s1.5-0.7,1.5-1.5C21.3,198.7,20.7,198.1,19.9,198.1z
		"></path>
	<path class="st0" d="M19.9,191.4c-0.8,0-1.5,0.7-1.5,1.5c0,0.8,0.7,1.5,1.5,1.5c0.8,0,1.5-0.7,1.5-1.5
		C21.3,192.1,20.7,191.4,19.9,191.4z"></path>
	<path class="st0" d="M19.9,184.8c-0.8,0-1.5,0.7-1.5,1.5c0,0.8,0.7,1.5,1.5,1.5s1.5-0.7,1.5-1.5C21.3,185.5,20.7,184.8,19.9,184.8z
		"></path>
	<path class="st0" d="M21.3,179.6c0-0.8-0.7-1.5-1.5-1.5c-0.8,0-1.5,0.7-1.5,1.5c0,0.8,0.7,1.5,1.5,1.5
		C20.7,181.1,21.3,180.4,21.3,179.6z"></path>
	<path class="st0" d="M19.9,171.5c-0.8,0-1.5,0.7-1.5,1.5c0,0.8,0.7,1.5,1.5,1.5c0.8,0,1.5-0.7,1.5-1.5
		C21.3,172.2,20.7,171.5,19.9,171.5z"></path>
	<path class="st0" d="M19.9,167.8c0.8,0,1.5-0.7,1.5-1.5c0-0.8-0.7-1.5-1.5-1.5c-0.8,0-1.5,0.6-1.5,1.5
		C18.4,167.2,19,167.8,19.9,167.8z"></path>
	<path class="st0" d="M19.9,161.2c0.8,0,1.5-0.6,1.5-1.5c0-0.8-0.7-1.5-1.5-1.5c-0.8,0-1.5,0.7-1.5,1.5
		C18.4,160.5,19,161.2,19.9,161.2z"></path>
	<path class="st0" d="M19.9,151.6c-0.8,0-1.5,0.7-1.5,1.5c0,0.8,0.7,1.5,1.5,1.5c0.8,0,1.5-0.7,1.5-1.5
		C21.3,152.3,20.7,151.6,19.9,151.6z"></path>
	<path class="st0" d="M19.9,145c-0.8,0-1.5,0.7-1.5,1.5c0,0.8,0.7,1.5,1.5,1.5s1.5-0.7,1.5-1.5C21.3,145.7,20.7,145,19.9,145z"></path>
	<path class="st0" d="M19.9,138.4c-0.8,0-1.5,0.7-1.5,1.5c0,0.8,0.7,1.5,1.5,1.5c0.8,0,1.5-0.7,1.5-1.5
		C21.3,139,20.7,138.4,19.9,138.4z"></path>
	<path class="st0" d="M413.5,18.7c0.8,0,1.5-0.7,1.5-1.5c0-0.8-0.7-1.5-1.5-1.5c-0.8,0-1.5,0.7-1.5,1.5
		C412,18,412.7,18.7,413.5,18.7z"></path>
	<path class="st0" d="M420.2,18.7c0.8,0,1.5-0.7,1.5-1.5c0-0.8-0.7-1.5-1.5-1.5c-0.8,0-1.5,0.7-1.5,1.5
		C418.7,18,419.4,18.7,420.2,18.7z"></path>
	<path class="st0" d="M426.9,18.7c0.8,0,1.5-0.7,1.5-1.5c0-0.8-0.7-1.5-1.5-1.5c-0.8,0-1.5,0.7-1.5,1.5
		C425.5,18,426.1,18.7,426.9,18.7z"></path>
	<path class="st0" d="M433.7,18.7c0.8,0,1.5-0.7,1.5-1.5c0-0.8-0.7-1.5-1.5-1.5c-0.8,0-1.5,0.7-1.5,1.5
		C432.2,18,432.9,18.7,433.7,18.7z"></path>
	<path class="st0" d="M440.4,18.7c0.8,0,1.5-0.7,1.5-1.5c0-0.8-0.7-1.5-1.5-1.5c-0.8,0-1.5,0.7-1.5,1.5
		C438.9,18,439.6,18.7,440.4,18.7z"></path>
	<path class="st0" d="M447.1,18.7c0.8,0,1.5-0.7,1.5-1.5c0-0.8-0.7-1.5-1.5-1.5c-0.8,0-1.5,0.7-1.5,1.5
		C445.7,18,446.3,18.7,447.1,18.7z"></path>
	<path class="st0" d="M453.9,18.7c0.8,0,1.5-0.7,1.5-1.5c0-0.8-0.7-1.5-1.5-1.5c-0.8,0-1.5,0.7-1.5,1.5
		C452.4,18,453.1,18.7,453.9,18.7z"></path>
	<path class="st0" d="M460.6,18.7c0.8,0,1.5-0.7,1.5-1.5c0-0.8-0.7-1.5-1.5-1.5c-0.8,0-1.5,0.7-1.5,1.5
		C459.2,18,459.8,18.7,460.6,18.7z"></path>
	<path class="st0" d="M467.3,18.7c0.8,0,1.5-0.7,1.5-1.5c0-0.8-0.7-1.5-1.5-1.5c-0.8,0-1.5,0.7-1.5,1.5
		C465.9,18,466.5,18.7,467.3,18.7z"></path>
	<path class="st0" d="M474.1,18.7c0.8,0,1.5-0.7,1.5-1.5c0-0.8-0.7-1.5-1.5-1.5c-0.8,0-1.5,0.7-1.5,1.5
		C472.6,18,473.3,18.7,474.1,18.7z"></path>
	<path class="st0" d="M480.8,18.7c0.8,0,1.5-0.7,1.5-1.5c0-0.8-0.7-1.5-1.5-1.5c-0.8,0-1.5,0.7-1.5,1.5
		C479.4,18,480,18.7,480.8,18.7z"></path>
	<path class="st0" d="M487.5,18.7c0.8,0,1.5-0.7,1.5-1.5c0-0.8-0.7-1.5-1.5-1.5c-0.8,0-1.5,0.7-1.5,1.5
		C486.1,18,486.7,18.7,487.5,18.7z"></path>
	<path class="st0" d="M494.3,18.7c0.8,0,1.5-0.7,1.5-1.5c0-0.8-0.7-1.5-1.5-1.5c-0.8,0-1.5,0.7-1.5,1.5
		C492.8,18,493.5,18.7,494.3,18.7z"></path>
	<path class="st0" d="M501,18.7c0.8,0,1.5-0.7,1.5-1.5c0-0.8-0.7-1.5-1.5-1.5c-0.8,0-1.5,0.7-1.5,1.5C499.6,18,500.2,18.7,501,18.7z
		"></path>
	<path class="st0" d="M507.8,18.7c0.8,0,1.5-0.7,1.5-1.5c0-0.8-0.7-1.5-1.5-1.5c-0.8,0-1.5,0.7-1.5,1.5
		C506.3,18,506.9,18.7,507.8,18.7z"></path>
	<path class="st0" d="M514.5,18.7c0.8,0,1.5-0.7,1.5-1.5c0-0.8-0.7-1.5-1.5-1.5c-0.8,0-1.5,0.7-1.5,1.5
		C513,18,513.7,18.7,514.5,18.7z"></path>
	<path class="st0" d="M521.2,18.7c0.8,0,1.5-0.7,1.5-1.5c0-0.8-0.7-1.5-1.5-1.5c-0.8,0-1.5,0.7-1.5,1.5
		C519.8,18,520.4,18.7,521.2,18.7z"></path>
	<path class="st0" d="M528,18.7c0.8,0,1.5-0.7,1.5-1.5c0-0.8-0.7-1.5-1.5-1.5c-0.8,0-1.5,0.7-1.5,1.5C526.5,18,527.2,18.7,528,18.7z
		"></path>
	<path class="st0" d="M534.7,18.7c0.8,0,1.5-0.7,1.5-1.5c0-0.8-0.7-1.5-1.5-1.5c-0.8,0-1.5,0.7-1.5,1.5
		C533.2,18,533.9,18.7,534.7,18.7z"></path>
	<path class="st0" d="M541.4,18.7c0.8,0,1.5-0.7,1.5-1.5c0-0.8-0.7-1.5-1.5-1.5c-0.8,0-1.5,0.7-1.5,1.5
		C540,18,540.6,18.7,541.4,18.7z"></path>
	<path class="st0" d="M548.2,18.7c0.8,0,1.5-0.7,1.5-1.5c0-0.8-0.7-1.5-1.5-1.5c-0.8,0-1.5,0.7-1.5,1.5
		C546.7,18,547.4,18.7,548.2,18.7z"></path>
	<path class="st0" d="M554.9,18.7c0.8,0,1.5-0.7,1.5-1.5c0-0.8-0.7-1.5-1.5-1.5c-0.8,0-1.5,0.7-1.5,1.5
		C553.4,18,554.1,18.7,554.9,18.7z"></path>
	<path class="st0" d="M561.6,18.7c0.8,0,1.5-0.7,1.5-1.5c0-0.8-0.7-1.5-1.5-1.5c-0.8,0-1.5,0.7-1.5,1.5
		C560.2,18,560.8,18.7,561.6,18.7z"></path>
	<path class="st0" d="M568.4,18.7c0.8,0,1.5-0.7,1.5-1.5c0-0.8-0.7-1.5-1.5-1.5c-0.8,0-1.5,0.7-1.5,1.5
		C566.9,18,567.6,18.7,568.4,18.7z"></path>
	<path class="st0" d="M575.1,18.7c0.8,0,1.5-0.7,1.5-1.5c0-0.8-0.7-1.5-1.5-1.5c-0.8,0-1.5,0.7-1.5,1.5
		C573.6,18,574.3,18.7,575.1,18.7z"></path>
	<path class="st0" d="M581.8,18.7c0.8,0,1.5-0.7,1.5-1.5c0-0.8-0.7-1.5-1.5-1.5c-0.8,0-1.5,0.7-1.5,1.5
		C580.4,18,581,18.7,581.8,18.7z"></path>
	<path class="st0" d="M588.6,18.7c0.8,0,1.5-0.7,1.5-1.5c0-0.8-0.7-1.5-1.5-1.5c-0.8,0-1.5,0.7-1.5,1.5
		C587.1,18,587.8,18.7,588.6,18.7z"></path>
	<path class="st0" d="M595.3,18.7c0.8,0,1.5-0.7,1.5-1.5c0-0.8-0.7-1.5-1.5-1.5c-0.8,0-1.5,0.7-1.5,1.5
		C593.8,18,594.5,18.7,595.3,18.7z"></path>
	<path class="st0" d="M602,18.7c0.8,0,1.5-0.7,1.5-1.5c0-0.8-0.7-1.5-1.5-1.5c-0.8,0-1.5,0.7-1.5,1.5C600.6,18,601.2,18.7,602,18.7z
		"></path>
	<path class="st0" d="M608.8,18.7c0.8,0,1.5-0.7,1.5-1.5c0-0.8-0.7-1.5-1.5-1.5c-0.8,0-1.5,0.7-1.5,1.5
		C607.3,18,608,18.7,608.8,18.7z"></path>
	<path class="st0" d="M615.5,18.7c0.8,0,1.5-0.7,1.5-1.5c0-0.8-0.7-1.5-1.5-1.5c-0.8,0-1.5,0.7-1.5,1.5
		C614,18,614.7,18.7,615.5,18.7z"></path>
	<path class="st0" d="M622.2,18.7c0.8,0,1.5-0.7,1.5-1.5c0-0.8-0.7-1.5-1.5-1.5c-0.8,0-1.5,0.7-1.5,1.5
		C620.8,18,621.4,18.7,622.2,18.7z"></path>
	<path class="st0" d="M629,18.7c0.8,0,1.5-0.7,1.5-1.5c0-0.8-0.7-1.5-1.5-1.5c-0.8,0-1.5,0.7-1.5,1.5C627.5,18,628.2,18.7,629,18.7z
		"></path>
	<path class="st0" d="M635.7,18.7c0.8,0,1.5-0.7,1.5-1.5c0-0.8-0.7-1.5-1.5-1.5c-0.8,0-1.5,0.7-1.5,1.5
		C634.3,18,634.9,18.7,635.7,18.7z"></path>
	<path class="st0" d="M642.4,18.7c0.8,0,1.5-0.7,1.5-1.5c0-0.8-0.7-1.5-1.5-1.5c-0.8,0-1.5,0.7-1.5,1.5
		C641,18,641.6,18.7,642.4,18.7z"></path>
	<path class="st0" d="M649.2,18.7c0.8,0,1.5-0.7,1.5-1.5c0-0.8-0.7-1.5-1.5-1.5c-0.8,0-1.5,0.7-1.5,1.5
		C647.7,18,648.4,18.7,649.2,18.7z"></path>
	<path class="st0" d="M655.9,18.7c0.8,0,1.5-0.7,1.5-1.5c0-0.8-0.7-1.5-1.5-1.5c-0.8,0-1.5,0.7-1.5,1.5
		C654.5,18,655.1,18.7,655.9,18.7z"></path>
	<path class="st0" d="M413.5,257.9c0.8,0,1.5-0.7,1.5-1.5c0-0.8-0.7-1.5-1.5-1.5c-0.8,0-1.5,0.7-1.5,1.5
		C412,257.2,412.7,257.9,413.5,257.9z"></path>
	<path class="st0" d="M420.2,257.9c0.8,0,1.5-0.7,1.5-1.5c0-0.8-0.7-1.5-1.5-1.5c-0.8,0-1.5,0.7-1.5,1.5
		C418.7,257.2,419.4,257.9,420.2,257.9z"></path>
	<path class="st0" d="M426.9,257.9c0.8,0,1.5-0.7,1.5-1.5c0-0.8-0.7-1.5-1.5-1.5c-0.8,0-1.5,0.7-1.5,1.5
		C425.5,257.2,426.1,257.9,426.9,257.9z"></path>
	<path class="st0" d="M433.7,257.9c0.8,0,1.5-0.7,1.5-1.5c0-0.8-0.7-1.5-1.5-1.5c-0.8,0-1.5,0.7-1.5,1.5
		C432.2,257.2,432.9,257.9,433.7,257.9z"></path>
	<path class="st0" d="M440.4,257.9c0.8,0,1.5-0.7,1.5-1.5c0-0.8-0.7-1.5-1.5-1.5c-0.8,0-1.5,0.7-1.5,1.5
		C438.9,257.2,439.6,257.9,440.4,257.9z"></path>
	<path class="st0" d="M447.1,257.9c0.8,0,1.5-0.7,1.5-1.5c0-0.8-0.7-1.5-1.5-1.5c-0.8,0-1.5,0.7-1.5,1.5
		C445.7,257.2,446.3,257.9,447.1,257.9z"></path>
	<path class="st0" d="M453.9,257.9c0.8,0,1.5-0.7,1.5-1.5c0-0.8-0.7-1.5-1.5-1.5c-0.8,0-1.5,0.7-1.5,1.5
		C452.4,257.2,453.1,257.9,453.9,257.9z"></path>
	<path class="st0" d="M460.6,257.9c0.8,0,1.5-0.7,1.5-1.5c0-0.8-0.7-1.5-1.5-1.5c-0.8,0-1.5,0.7-1.5,1.5
		C459.2,257.2,459.8,257.9,460.6,257.9z"></path>
	<path class="st0" d="M467.3,257.9c0.8,0,1.5-0.7,1.5-1.5c0-0.8-0.7-1.5-1.5-1.5c-0.8,0-1.5,0.7-1.5,1.5
		C465.9,257.2,466.5,257.9,467.3,257.9z"></path>
	<path class="st0" d="M474.1,257.9c0.8,0,1.5-0.7,1.5-1.5c0-0.8-0.7-1.5-1.5-1.5c-0.8,0-1.5,0.7-1.5,1.5
		C472.6,257.2,473.3,257.9,474.1,257.9z"></path>
	<path class="st0" d="M480.8,257.9c0.8,0,1.5-0.7,1.5-1.5c0-0.8-0.7-1.5-1.5-1.5c-0.8,0-1.5,0.7-1.5,1.5
		C479.4,257.2,480,257.9,480.8,257.9z"></path>
	<path class="st0" d="M487.5,257.9c0.8,0,1.5-0.7,1.5-1.5c0-0.8-0.7-1.5-1.5-1.5c-0.8,0-1.5,0.7-1.5,1.5
		C486.1,257.2,486.7,257.9,487.5,257.9z"></path>
	<path class="st0" d="M494.3,257.9c0.8,0,1.5-0.7,1.5-1.5c0-0.8-0.7-1.5-1.5-1.5c-0.8,0-1.5,0.7-1.5,1.5
		C492.8,257.2,493.5,257.9,494.3,257.9z"></path>
	<path class="st0" d="M501,257.9c0.8,0,1.5-0.7,1.5-1.5c0-0.8-0.7-1.5-1.5-1.5c-0.8,0-1.5,0.7-1.5,1.5
		C499.6,257.2,500.2,257.9,501,257.9z"></path>
	<path class="st0" d="M507.8,257.9c0.8,0,1.5-0.7,1.5-1.5c0-0.8-0.7-1.5-1.5-1.5c-0.8,0-1.5,0.7-1.5,1.5
		C506.3,257.2,506.9,257.9,507.8,257.9z"></path>
	<path class="st0" d="M514.5,257.9c0.8,0,1.5-0.7,1.5-1.5c0-0.8-0.7-1.5-1.5-1.5c-0.8,0-1.5,0.7-1.5,1.5
		C513,257.2,513.7,257.9,514.5,257.9z"></path>
	<path class="st0" d="M521.2,257.9c0.8,0,1.5-0.7,1.5-1.5c0-0.8-0.7-1.5-1.5-1.5c-0.8,0-1.5,0.7-1.5,1.5
		C519.8,257.2,520.4,257.9,521.2,257.9z"></path>
	<path class="st0" d="M528,257.9c0.8,0,1.5-0.7,1.5-1.5c0-0.8-0.7-1.5-1.5-1.5c-0.8,0-1.5,0.7-1.5,1.5
		C526.5,257.2,527.2,257.9,528,257.9z"></path>
	<path class="st0" d="M534.7,257.9c0.8,0,1.5-0.7,1.5-1.5c0-0.8-0.7-1.5-1.5-1.5c-0.8,0-1.5,0.7-1.5,1.5
		C533.2,257.2,533.9,257.9,534.7,257.9z"></path>
	<path class="st0" d="M541.4,257.9c0.8,0,1.5-0.7,1.5-1.5c0-0.8-0.7-1.5-1.5-1.5c-0.8,0-1.5,0.7-1.5,1.5
		C540,257.2,540.6,257.9,541.4,257.9z"></path>
	<path class="st0" d="M548.2,257.9c0.8,0,1.5-0.7,1.5-1.5c0-0.8-0.7-1.5-1.5-1.5c-0.8,0-1.5,0.7-1.5,1.5
		C546.7,257.2,547.4,257.9,548.2,257.9z"></path>
	<path class="st0" d="M554.9,257.9c0.8,0,1.5-0.7,1.5-1.5c0-0.8-0.7-1.5-1.5-1.5c-0.8,0-1.5,0.7-1.5,1.5
		C553.4,257.2,554.1,257.9,554.9,257.9z"></path>
	<path class="st0" d="M561.6,257.9c0.8,0,1.5-0.7,1.5-1.5c0-0.8-0.7-1.5-1.5-1.5c-0.8,0-1.5,0.7-1.5,1.5
		C560.2,257.2,560.8,257.9,561.6,257.9z"></path>
	<path class="st0" d="M568.4,257.9c0.8,0,1.5-0.7,1.5-1.5c0-0.8-0.7-1.5-1.5-1.5c-0.8,0-1.5,0.7-1.5,1.5
		C566.9,257.2,567.6,257.9,568.4,257.9z"></path>
	<path class="st0" d="M575.1,257.9c0.8,0,1.5-0.7,1.5-1.5c0-0.8-0.7-1.5-1.5-1.5c-0.8,0-1.5,0.7-1.5,1.5
		C573.6,257.2,574.3,257.9,575.1,257.9z"></path>
	<path class="st0" d="M581.8,257.9c0.8,0,1.5-0.7,1.5-1.5c0-0.8-0.7-1.5-1.5-1.5c-0.8,0-1.5,0.7-1.5,1.5
		C580.4,257.2,581,257.9,581.8,257.9z"></path>
	<path class="st0" d="M588.6,257.9c0.8,0,1.5-0.7,1.5-1.5c0-0.8-0.7-1.5-1.5-1.5c-0.8,0-1.5,0.7-1.5,1.5
		C587.1,257.2,587.8,257.9,588.6,257.9z"></path>
	<path class="st0" d="M595.3,257.9c0.8,0,1.5-0.7,1.5-1.5c0-0.8-0.7-1.5-1.5-1.5c-0.8,0-1.5,0.7-1.5,1.5
		C593.8,257.2,594.5,257.9,595.3,257.9z"></path>
	<path class="st0" d="M602,257.9c0.8,0,1.5-0.7,1.5-1.5c0-0.8-0.7-1.5-1.5-1.5c-0.8,0-1.5,0.7-1.5,1.5
		C600.6,257.2,601.2,257.9,602,257.9z"></path>
	<path class="st0" d="M608.8,257.9c0.8,0,1.5-0.7,1.5-1.5c0-0.8-0.7-1.5-1.5-1.5c-0.8,0-1.5,0.7-1.5,1.5
		C607.3,257.2,608,257.9,608.8,257.9z"></path>
	<path class="st0" d="M615.5,257.9c0.8,0,1.5-0.7,1.5-1.5c0-0.8-0.7-1.5-1.5-1.5c-0.8,0-1.5,0.7-1.5,1.5
		C614,257.2,614.7,257.9,615.5,257.9z"></path>
	<path class="st0" d="M622.2,257.9c0.8,0,1.5-0.7,1.5-1.5c0-0.8-0.7-1.5-1.5-1.5c-0.8,0-1.5,0.7-1.5,1.5
		C620.8,257.2,621.4,257.9,622.2,257.9z"></path>
	<path class="st0" d="M629,257.9c0.8,0,1.5-0.7,1.5-1.5c0-0.8-0.7-1.5-1.5-1.5c-0.8,0-1.5,0.7-1.5,1.5
		C627.5,257.2,628.2,257.9,629,257.9z"></path>
	<path class="st0" d="M635.7,257.9c0.8,0,1.5-0.7,1.5-1.5c0-0.8-0.7-1.5-1.5-1.5c-0.8,0-1.5,0.7-1.5,1.5
		C634.3,257.2,634.9,257.9,635.7,257.9z"></path>
	<path class="st0" d="M642.4,257.9c0.8,0,1.5-0.7,1.5-1.5c0-0.8-0.7-1.5-1.5-1.5c-0.8,0-1.5,0.7-1.5,1.5
		C641,257.2,641.6,257.9,642.4,257.9z"></path>
	<path class="st0" d="M649.2,257.9c0.8,0,1.5-0.7,1.5-1.5c0-0.8-0.7-1.5-1.5-1.5c-0.8,0-1.5,0.7-1.5,1.5
		C647.7,257.2,648.4,257.9,649.2,257.9z"></path>
	<path class="st0" d="M655.9,257.9c0.8,0,1.5-0.7,1.5-1.5c0-0.8-0.7-1.5-1.5-1.5c-0.8,0-1.5,0.7-1.5,1.5
		C654.5,257.2,655.1,257.9,655.9,257.9z"></path>
</g>
</svg>