<!--?xml version="1.0" encoding="utf-8"?-->
<!-- Generator: Adobe Illustrator 22.1.0, SVG Export Plug-In . SVG Version: 6.00 Build 0)  -->
<svg version="1.1" id="_x37_" xmlns="http://www.w3.org/2000/svg" xmlns:xlink="http://www.w3.org/1999/xlink" x="0px" y="0px" viewBox="0 0 800 536.2" style="enable-background:new 0 0 800 536.2;" xml:space="preserve" preserveAspectRatio="none">
<style type="text/css">
	.st0{fill:#221714;}
</style>
<g>
	<g>
		<path class="st0" d="M33.5,33.8C32.1,32.5,17.4,23.4,9,37.2c-7.9,12.9,4.9,23,11.3,18.7c1.8-1.3,1.8-3.9,1.5-4.7
			c1-0.2,3.3,2.4,1.6,5c1.8,1.2-1.5,4.7-5.1,4.3C14.7,60,3.6,53.9,5.9,42.6c2.3-11.2,12.7-15.9,20.7-13.2
			C31.6,31.7,33.5,33.8,33.5,33.8z"></path>
		<path class="st0" d="M6.4,41.5c-1,4.1-3.9,15.4,7.9,27.8c12.5,13.1,5.1,20.5-2.1,29.5C2.9,110.5,7,120.3,16.9,121
			c5.5-0.7,2.5-6.9,0.9-8c-1.6-1-0.6-1.2,1.9-1c2.5,0.1,6.5,5,2.1,9.4c-6.3,6.3-18.6-1.8-16.7-12.8c1.9-11.1,9.8-13,13-20.7
			c3.1-7.5,1.6-10.5-7.7-21.8C1.3,54.9,5.4,43.5,6.4,41.5z"></path>
		<path class="st0" d="M18.1,87.2c-1.9,2.8-5.1,6.7-8.6,5c-3.4-1.7-3.1-4.5-2.1-5.4c1.1-0.9,3.3,0.3,2.9,2.6c1.2-1,0.7-1.1,1-2
			c0.3-0.9,0.3-4-2.4-3.9c-2.7,0.1-5.5,2.2-4,6.4c1.5,4.2,7.5,5.3,9.9,2.5C17.4,89.4,18.1,87.2,18.1,87.2z"></path>
		<path class="st0" d="M15.3,69.1c5.7,6.9,7.2,10.6,6.5,14.6c-0.9,5.4-1.3,4.8-5.1,10.8c-2,3-1.8,6.7,0.6,8.9c2.2,2,6.5,3,8.2-1.3
			c1.4-3.6-1.4-5.7-3.1-4.7c-1.8,1-1.3,2.3-1.9,2.7c-0.6,0.4,0.6,0.8,1.6,0.4c1-0.4,1,1.1-0.5,2.1c-1.6,1-6.6-2.2-3.7-7.1
			c2.9-4.9,4.7-8.5,4.9-12.1c0.3-4.8-2.7-8.8-3.7-10.1C17.4,71.2,15.3,69.1,15.3,69.1z"></path>
		<path class="st0" d="M17.7,18.7c0,0,3,5.8-2.1,9.5c-3.9,2.8-8.5-0.8-7.8-3.8c0.7-3,2.7-0.3,1.7-0.1c-1,0.8,0.7,1.9,1.6,0.6
			c0.9-1.3-0.8-3.5-2.8-3c-3.1,0.8-2.9,4.5-0.7,6.6c2.3,2.1,6,3,9.2,0.5C20.5,26.2,20.8,21.4,17.7,18.7z"></path>
		<path class="st0" d="M5,109.9c-1.1,2.9-1.2,10.2,1.9,17.8c3.1,7.6,17,19.4,19.5,32.3c2.9,15-11.6,26.8-17.9,22.2
			c-1.9-1.5-0.5-3.2,0.6-3.3c-0.6,1,0.5,2.7,2,1.4c1.5-1.3,0.6-5.1-2.3-5c-2.8,0.1-5.6,2.9-3.9,6.7c1.7,3.8,8.8,7.4,16.2,0.9
			c7.8-6.8,14.7-21.3,0.1-38.9C9.9,130.4,5.6,126.2,4.9,113.5C5,111.8,5,109.9,5,109.9z"></path>
		<path class="st0" d="M6.7,128.7c0.6,2.4,6,9.4,9.5,13.5c3,3.3,8.5,12.9,9.2,17.5c0.7,4.1-1.5,6-3.1,7.9c-1.7,1.9-1.6,3.5-2,3.1
			c-0.4-0.4-2.6-4.1-0.7-9.1c-0.2-0.4-0.2,0.8-2,2.4c-0.8,0.6-0.6,0.2-0.5-0.7c0.1-0.9-0.3-4.2,1.6-8.1c0.4-0.4-1.8,2.6-2,1.8
			c-0.2-2.6,2-5.1,0.8-9.4c-1.2-4.3-5.5-8.5-7.7-11.8C6.9,131,6.7,128.7,6.7,128.7z"></path>
		<path class="st0" d="M12.8,132.2c-0.7-1.6,8,9.1,12.2,8.1c4.3-1,0.4-6.6-2.2-3.7c-0.3-1.5,0.9-2.1,1.2-2.7c1.9-4,9.7,1.5,7.7,6.2
			c-2.5,5.7-8.1,3.7-11.5,0.9C16.8,138.3,13.2,133.1,12.8,132.2z"></path>
		<path class="st0" d="M35.2,32.2c-1.3-1.3-10.4-16.1,3.3-24.5c12.9-7.9,23,4.9,18.7,11.3c-1.3,1.9-3.9,1.9-4.7,1.5
			c-0.2,1,2.4,3.3,4.9,1.6c1.2,1.8,4.7-1.5,4.3-5.1c-0.4-3.6-6.5-14.8-17.8-12.4C32.7,6.9,28,17.3,30.8,25.3
			C33,30.3,35.2,32.2,35.2,32.2z"></path>
		<path class="st0" d="M42.9,5c4.1-1,15.4-3.9,27.8,7.9c13.1,12.5,20.5,5.1,29.5-2.1c11.7-9.3,21.4-5.2,22.1,4.7
			c-0.7,5.5-6.9,2.5-8,0.9c-1-1.6-1.2-0.6-1,1.9c0.2,2.5,5,6.5,9.4,2.1c6.3-6.3-1.8-18.6-12.8-16.7c-11.1,1.9-13,9.8-20.7,13
			c-7.5,3.1-10.5,1.6-21.8-7.7C56.2,0,44.8,4.1,42.9,5z"></path>
		<path class="st0" d="M88.5,16.8c2.9-1.9,6.7-5.1,5-8.6c-1.7-3.4-4.5-3.2-5.4-2.1c-0.9,1.1,0.3,3.2,2.6,3c-1,1.2-1.1,0.7-2,1
			c-0.9,0.3-4,0.3-3.9-2.4c0.1-2.7,2.2-5.5,6.4-4c4.2,1.5,5.3,7.5,2.5,9.9C90.7,16.1,88.5,16.8,88.5,16.8z"></path>
		<path class="st0" d="M70.4,14c6.9,5.7,10.6,7.2,14.6,6.5c5.4-0.9,4.8-1.3,10.8-5.1c3-2,6.7-1.8,8.8,0.6c2,2.2,3.1,6.5-1.3,8.2
			c-3.6,1.4-5.7-1.4-4.7-3.1c1-1.8,2.3-1.3,2.7-1.9c0.4-0.6,0.8,0.6,0.4,1.6c-0.4,1,1.1,1,2.1-0.5c1-1.6-2.2-6.6-7.1-3.7
			c-4.9,3-8.5,4.7-12.1,4.9c-4.8,0.3-8.8-2.7-10.1-3.7C72.5,16,70.4,14,70.4,14z"></path>
		<path class="st0" d="M20,16.4c0,0,5.8,3,9.5-2.1c2.8-3.9-0.8-8.5-3.8-7.8s-0.3,2.7-0.1,1.7c0.8-1,1.9,0.7,0.6,1.6
			c-1.3,0.9-3.4-0.8-3-2.8c0.8-3.1,4.5-2.9,6.6-0.7c2.1,2.3,3,6,0.5,9.1C27.5,19.1,22.8,19.5,20,16.4z"></path>
		<g>
			<path class="st0" d="M30.5,32.8c0,0-2.6-1.8-6.7-2.3c-2-0.3-4.4-0.1-6.5,0.7c-2.1,0.8-4,2.3-5.1,3.8c-0.6,0.8-1.2,1.7-1.6,2.7
				c-0.4,1-0.7,2.2-0.7,3.3c0,2.4,1.2,4.7,3,5.9c0.9,0.6,1.9,1,2.8,1.1c0.9,0.1,1.8,0,2.4-0.2c1.3-0.4,1.9-1,1.8-1.2
				c-0.1-0.2-0.8,0.1-2,0.3c-1.1,0.2-2.9,0.2-4.4-0.9c-1.6-1-2.8-3-2.9-5.1c-0.1-1.1,0.1-2.1,0.5-3.1c0.4-1,0.9-1.9,1.5-2.6
				c1.1-1.5,2.9-2.9,4.9-3.7c2.1-0.8,4.3-0.9,6.3-0.7C27.8,31.2,30.5,32.9,30.5,32.8z"></path>
			<path class="st0" d="M34.1,29.2c0.1,0-1.5-2.7-2-6.7c-0.2-2-0.1-4.3,0.7-6.3c0.8-2.1,2.2-3.8,3.7-4.9c0.8-0.6,1.6-1.1,2.6-1.5
				c1-0.4,2-0.6,3.1-0.5c2.2,0.1,4.1,1.3,5.1,2.9c1,1.6,1.1,3.3,0.9,4.4c-0.2,1.2-0.6,1.8-0.3,2c0.2,0.1,0.8-0.5,1.2-1.8
				c0.2-0.6,0.3-1.5,0.2-2.4c-0.1-0.9-0.5-1.9-1.1-2.8c-1.2-1.8-3.6-3-5.9-3c-1.2,0-2.3,0.3-3.3,0.7c-1,0.4-1.9,1-2.7,1.6
				c-1.6,1.2-3.1,3-3.8,5.1c-0.8,2.1-0.9,4.5-0.7,6.5C32.3,26.5,34.1,29.2,34.1,29.2z"></path>
		</g>
		<path class="st0" d="M111.2,3.7c2.8-1.1,10.2-1.2,17.8,1.9c7.6,3,19.4,17,32.3,19.5c14.9,2.8,26.8-11.6,22.2-17.9
			c-1.5-1.9-3.2-0.5-3.3,0.6c1-0.6,2.7,0.5,1.4,2c-1.3,1.5-5.1,0.6-5-2.3c0.1-2.9,2.9-5.6,6.7-3.9c3.8,1.7,7.4,8.8,0.9,16.2
			c-6.8,7.8-21.3,14.6-38.9,0.1C131.7,8.6,127.5,4.3,114.8,3.6C113.2,3.7,111.2,3.7,111.2,3.7z"></path>
		<path class="st0" d="M130,5.4c2.4,0.6,9.4,6,13.5,9.5c3.3,3,12.9,8.5,17.5,9.2c4.1,0.7,6-1.5,7.9-3.1c1.9-1.7,3.5-1.6,3.1-2
			c-0.4-0.4-4.1-2.6-9.2-0.7c-0.4-0.2,0.8-0.2,2.4-2c0.6-0.8,0.2-0.6-0.7-0.5c-0.9,0.1-4.2-0.3-8.1,1.6c-0.4,0.4,2.6-1.8,1.8-2
			c-2.6-0.2-5.1,2-9.4,0.8c-4.3-1.2-8.5-5.5-11.8-7.7C132.3,5.6,130,5.4,130,5.4z"></path>
		<path class="st0" d="M133.5,11.5c-1.6-0.7,9.1,8,8.1,12.2c-1,4.3-6.6,0.4-3.7-2.2c-1.5-0.3-2.1,0.9-2.7,1.2
			c-4,1.9,1.5,9.7,6.2,7.7c5.7-2.5,3.7-8.1,0.9-11.5C139.6,15.4,134.4,11.9,133.5,11.5z"></path>
		<g>
			<path class="st0" d="M26.6,40.2c0.7-1.1,3.3-6.8,7.9-2.3c0.1,0.1,0.2,0.3,0.4,0.4l1.1-1.1c-0.2-0.2-0.3-0.3-0.5-0.5
				c-3.3-3.3-7.2-3.4-8.3-1.6c-3.2,0.7-2.1,4.1-1,4.9C26.4,40.4,26.3,40.7,26.6,40.2z"></path>
			<path class="st0" d="M16.5,23.3c2.5-2.5,0-6,0-6c8.8,7.5,15.4,13.8,20.3,19.1l0.9-0.9C32.4,30.6,26.1,24,18.6,15.2
				c0,0,3.5,2.5,6,0c2.5-2.5,0-5.7-1.6-3.7c-1.6,1.9-7.4,0.4-9.7-1.9c-2.3-2.3-1.8-5,0.2-5.1c-0.9-0.9-2.8-1.1-3.9,0
				C6.8,1.6,4.4,3.2,4.4,3.2S2.9,5.5,5.7,8.3c-1.1,1.1-0.9,3,0,3.9c0.2-1.9,2.8-2.5,5.1-0.2c2.3,2.3,3.9,8.1,1.9,9.7
				C10.8,23.3,14,25.8,16.5,23.3z"></path>
			<path class="st0" d="M36.4,26c-1.8,1-1.7,4.9,1.6,8.3c0.2,0.2,0.3,0.3,0.5,0.5l1.1-1.1c-0.1-0.1-0.3-0.2-0.4-0.4
				c-4.5-4.5,1.1-7.2,2.3-7.9c0.5-0.3,0.2-0.2-0.1-0.4C40.5,23.8,37.1,22.8,36.4,26z"></path>
			<path class="st0" d="M34.3,55.4c-1.3,1.1,2,2.8,3.7,0.4c1.6,1,6.5-6.3-0.1-15.4l-1,1C39.2,45.8,39,51.4,34.3,55.4z"></path>
			<path class="st0" d="M37.9,40.4c6.3,7.9,7,19.2,6.1,22.6c0.1,1.1,3.3-2.2,3.3-4.7c4.4-0.4-2.9-11.4-9-18.4L37.9,40.4z"></path>
			<path class="st0" d="M40.4,37.9l-1.2,1.2c7.9,9,10.6,14.7,11.4,18c0.7,1.7,2.4,1.1,4.4,1.8c4.3,1.3,5.2,0,5.2,0s1.4-0.8,0-5.1
				c-0.6-2-0.1-3.7-1.8-4.4C55,48.6,49.3,45.9,40.4,37.9z"></path>
			<path class="st0" d="M57.1,36.8c2.4-1.8,0.7-5-0.4-3.7c-4,4.7-9.6,5-14.1,2.7l-1,1C50.8,43.3,58,38.4,57.1,36.8z"></path>
			<path class="st0" d="M59.5,46.1c2.6,0,5.8-3.2,4.7-3.3c-3.4,0.9-14.8,0.2-22.6-6.1l-0.5,0.5C48.2,43.3,59.1,50.5,59.5,46.1z"></path>
		</g>
		<path class="st0" d="M42.4,33.3c0.4,0.4,0.4,1,0,1.4l-6.5,6.5c-0.4,0.4-1,0.4-1.4,0l0,0c-0.4-0.4-0.4-1,0-1.4l6.5-6.5
			C41.4,32.9,42,32.9,42.4,33.3L42.4,33.3z"></path>
	</g>
	<g>
		<path class="st0" d="M764.9,32.2c1.3-1.3,10.4-16.1-3.3-24.5c-12.9-7.9-23,4.9-18.7,11.3c1.3,1.9,3.9,1.9,4.7,1.5
			c0.2,1-2.4,3.3-4.9,1.6c-1.2,1.8-4.7-1.5-4.3-5.1c0.4-3.6,6.5-14.8,17.8-12.4c11.2,2.3,15.9,12.8,13.2,20.7
			C767,30.3,764.9,32.2,764.9,32.2z"></path>
		<path class="st0" d="M757.2,5c-4.1-1-15.4-3.9-27.8,7.9c-13.1,12.5-20.5,5.1-29.5-2.1c-11.7-9.3-21.4-5.2-22.1,4.7
			c0.7,5.5,6.9,2.5,8,0.9c1-1.6,1.2-0.6,1,1.9c-0.1,2.5-5,6.5-9.4,2.1c-6.3-6.3,1.8-18.6,12.8-16.7c11.1,1.9,13,9.8,20.7,13
			c7.5,3.1,10.5,1.6,21.8-7.7C743.9,0,755.2,4.1,757.2,5z"></path>
		<path class="st0" d="M711.6,16.8c-2.9-1.9-6.7-5.1-5-8.6c1.7-3.4,4.5-3.1,5.4-2.1c0.9,1.1-0.3,3.2-2.6,3c1,1.2,1.1,0.7,2,1
			c0.9,0.3,4,0.3,3.9-2.4c-0.1-2.7-2.2-5.5-6.4-4c-4.2,1.5-5.3,7.5-2.5,9.9C709.3,16.1,711.6,16.8,711.6,16.8z"></path>
		<path class="st0" d="M729.6,14c-7,5.7-10.6,7.2-14.6,6.5c-5.4-0.9-4.8-1.3-10.8-5.1c-3.1-2-6.7-1.8-8.9,0.6c-2,2.2-3,6.5,1.3,8.2
			c3.6,1.4,5.7-1.4,4.7-3.1c-1-1.8-2.3-1.3-2.7-1.9c-0.4-0.6-0.8,0.6-0.4,1.6c0.4,1-1.1,1-2.1-0.5c-1-1.6,2.2-6.6,7.1-3.7
			c4.9,2.9,8.5,4.7,12.1,4.9c4.8,0.3,8.8-2.7,10.1-3.7C727.6,16,729.6,14,729.6,14z"></path>
		<path class="st0" d="M780.1,16.4c0,0-5.8,3-9.5-2.1c-2.8-3.9,0.8-8.5,3.8-7.8c3,0.7,0.3,2.7,0.1,1.7c-0.8-1-1.9,0.7-0.6,1.6
			c1.3,0.9,3.5-0.8,3-2.8c-0.8-3.1-4.5-2.9-6.6-0.7c-2.1,2.3-3,6-0.5,9.1C772.6,19.1,777.3,19.5,780.1,16.4z"></path>
		<path class="st0" d="M688.9,3.7c-2.9-1.1-10.2-1.2-17.8,1.9c-7.6,3-19.4,17-32.3,19.5c-15,2.9-26.8-11.6-22.2-17.9
			c1.5-1.9,3.2-0.5,3.3,0.6c-1-0.6-2.7,0.5-1.4,2c1.3,1.5,5.1,0.6,5-2.3c-0.1-2.9-2.8-5.6-6.7-3.9c-3.8,1.7-7.4,8.8-0.9,16.2
			c6.8,7.8,21.3,14.7,38.9,0.1c13.5-11.2,17.7-15.5,30.4-16.2C686.9,3.7,688.9,3.7,688.9,3.7z"></path>
		<path class="st0" d="M670.1,5.4c-2.4,0.6-9.4,6-13.5,9.5c-3.3,3-12.9,8.5-17.5,9.3c-4.1,0.7-6-1.5-7.9-3.1c-1.9-1.7-3.5-1.6-3.1-2
			c0.4-0.4,4.1-2.6,9.2-0.7c0.4-0.2-0.8-0.2-2.4-2c-0.6-0.8-0.2-0.6,0.7-0.5c0.9,0.1,4.2-0.3,8.1,1.6c0.4,0.4-2.6-1.8-1.8-2
			c2.6-0.2,5.1,2,9.4,0.8c4.3-1.2,8.5-5.5,11.8-7.7C667.7,5.6,670.1,5.4,670.1,5.4z"></path>
		<path class="st0" d="M666.5,11.5c1.6-0.7-9.2,8-8.1,12.2c1,4.3,6.6,0.4,3.7-2.2c1.5-0.3,2.1,0.9,2.7,1.2c4,1.9-1.5,9.7-6.2,7.7
			c-5.7-2.5-3.7-8.1-0.9-11.5C660.5,15.4,665.7,11.9,666.5,11.5z"></path>
		<path class="st0" d="M766.6,33.8c1.3-1.3,16.1-10.4,24.5,3.3c7.9,12.9-4.9,23-11.3,18.7c-1.8-1.3-1.8-3.9-1.5-4.7
			c-1-0.2-3.3,2.4-1.6,5c-1.8,1.2,1.5,4.7,5.1,4.3c3.6-0.4,14.8-6.5,12.4-17.8c-2.4-11.2-12.8-15.9-20.7-13.2
			C768.5,31.7,766.6,33.8,766.6,33.8z"></path>
		<path class="st0" d="M793.7,41.5c1,4.1,3.9,15.4-7.9,27.8c-12.5,13.1-5.1,20.5,2.1,29.5c9.3,11.7,5.2,21.4-4.7,22.1
			c-5.5-0.7-2.5-6.9-0.9-8c1.6-1,0.6-1.2-1.9-1c-2.5,0.1-6.5,5-2.1,9.4c6.3,6.3,18.6-1.8,16.7-12.8c-1.9-11.1-9.8-13-13-20.7
			c-3.1-7.5-1.6-10.5,7.7-21.8C798.8,54.9,794.7,43.5,793.7,41.5z"></path>
		<path class="st0" d="M782,87.2c1.9,2.8,5.1,6.7,8.6,5c3.4-1.7,3.1-4.5,2.1-5.4c-1.1-0.9-3.2,0.3-2.9,2.6c-1.2-1-0.7-1.1-1-2
			c-0.3-0.9-0.3-4,2.4-3.9c2.7,0.1,5.5,2.2,4,6.4c-1.5,4.2-7.5,5.3-9.9,2.5C782.7,89.4,782,87.2,782,87.2z"></path>
		<path class="st0" d="M784.8,69.1c-5.7,6.9-7.2,10.6-6.5,14.6c0.9,5.4,1.3,4.8,5.1,10.8c2,3,1.8,6.7-0.6,8.9c-2.2,2-6.5,3-8.2-1.3
			c-1.4-3.6,1.4-5.7,3.1-4.7c1.8,1,1.3,2.3,1.9,2.7c0.6,0.4-0.6,0.8-1.6,0.4c-1-0.4-1,1.1,0.5,2.1c1.6,1,6.6-2.2,3.7-7.1
			c-3-4.9-4.7-8.5-4.9-12.1c-0.3-4.8,2.7-8.8,3.7-10.1C782.7,71.2,784.8,69.1,784.8,69.1z"></path>
		<path class="st0" d="M782.4,18.7c0,0-3,5.8,2.1,9.5c3.9,2.8,8.5-0.8,7.8-3.8c-0.7-3-2.7-0.3-1.7-0.1c1,0.8-0.7,1.9-1.6,0.6
			c-0.9-1.3,0.8-3.5,2.8-3c3.2,0.8,3,4.5,0.7,6.6c-2.3,2.1-6,3-9.1,0.5C779.6,26.2,779.2,21.4,782.4,18.7z"></path>
		<g>
			<path class="st0" d="M766,29.2c0,0,1.8-2.6,2.3-6.7c0.3-2,0.1-4.4-0.7-6.5c-0.8-2.1-2.3-4-3.8-5.1c-0.8-0.6-1.7-1.2-2.7-1.6
				c-1-0.4-2.2-0.7-3.3-0.7c-2.3,0-4.7,1.2-5.9,3c-0.6,0.9-1,1.9-1.1,2.8c-0.1,0.9,0,1.8,0.2,2.4c0.4,1.3,1,1.9,1.2,1.8
				c0.2-0.1-0.1-0.8-0.3-2c-0.2-1.1-0.2-2.9,0.9-4.4c1-1.6,3-2.8,5.1-2.9c1.1-0.1,2.1,0.1,3.1,0.5c1,0.4,1.9,0.9,2.6,1.5
				c1.5,1.1,3,2.9,3.7,4.9c0.8,2.1,0.9,4.3,0.7,6.3C767.5,26.4,765.9,29.2,766,29.2z"></path>
			<path class="st0" d="M769.6,32.8c0,0.1,2.7-1.5,6.7-2c2-0.2,4.3-0.1,6.3,0.7c2.1,0.8,3.8,2.2,4.9,3.7c0.6,0.8,1.1,1.6,1.5,2.6
				c0.4,1,0.6,2,0.5,3.1c-0.1,2.1-1.3,4.1-2.9,5.1c-1.6,1-3.3,1.1-4.4,0.9c-1.2-0.2-1.8-0.6-2-0.3c-0.1,0.2,0.5,0.8,1.8,1.2
				c0.7,0.2,1.5,0.3,2.4,0.2c0.9-0.1,1.9-0.5,2.8-1.1c1.8-1.2,3-3.6,3-5.9c0-1.2-0.3-2.3-0.7-3.3c-0.4-1-1-1.9-1.6-2.7
				c-1.2-1.6-3-3.1-5.1-3.8c-2.1-0.8-4.5-0.9-6.5-0.7C772.2,31,769.5,32.7,769.6,32.8z"></path>
		</g>
		<path class="st0" d="M795.1,109.9c1.1,2.9,1.2,10.2-1.9,17.8c-3,7.6-17,19.4-19.5,32.3c-2.9,15,11.6,26.8,17.9,22.2
			c1.9-1.5,0.5-3.2-0.6-3.3c0.6,1-0.5,2.7-2,1.4c-1.5-1.3-0.6-5.1,2.3-5c2.9,0.1,5.6,2.9,3.9,6.7c-1.7,3.8-8.8,7.4-16.2,0.9
			c-7.8-6.8-14.7-21.3-0.1-38.9c11.2-13.5,15.5-17.7,16.2-30.4C795.1,111.8,795.1,109.9,795.1,109.9z"></path>
		<path class="st0" d="M793.4,128.7c-0.6,2.4-6,9.4-9.5,13.5c-3,3.3-8.5,12.9-9.2,17.5c-0.7,4.1,1.5,6,3.1,7.9
			c1.7,1.9,1.6,3.5,2,3.1c0.4-0.4,2.6-4.1,0.7-9.1c0.2-0.4,0.2,0.8,2,2.4c0.8,0.6,0.6,0.2,0.5-0.7c-0.1-0.9,0.3-4.2-1.6-8.1
			c-0.4-0.4,1.8,2.6,2,1.8c0.2-2.6-2-5.1-0.8-9.4c1.2-4.3,5.5-8.5,7.7-11.8C793.2,131,793.4,128.7,793.4,128.7z"></path>
		<path class="st0" d="M787.3,132.2c0.7-1.6-8,9.2-12.2,8.1c-4.3-1-0.4-6.6,2.2-3.7c0.3-1.5-0.9-2.1-1.2-2.7c-1.9-4-9.7,1.5-7.7,6.2
			c2.5,5.7,8.1,3.7,11.5,0.9C783.3,138.3,786.9,133.1,787.3,132.2z"></path>
		<g>
			<path class="st0" d="M758.6,25.3c1.1,0.7,6.8,3.4,2.3,7.9c-0.1,0.1-0.3,0.2-0.4,0.4l1.1,1.1c0.2-0.2,0.3-0.3,0.5-0.5
				c3.3-3.3,3.3-7.2,1.6-8.3c-0.7-3.2-4.1-2.1-4.9-1C758.4,25.1,758.1,25,758.6,25.3z"></path>
			<path class="st0" d="M775.4,15.1c2.5,2.5,6,0,6,0c-7.5,8.8-13.8,15.4-19.1,20.3l0.9,0.9c4.9-5.3,11.5-11.6,20.3-19.1
				c0,0-2.5,3.5,0,6c2.5,2.5,5.7,0,3.7-1.6c-1.9-1.6-0.4-7.4,1.9-9.7c2.3-2.3,4.9-1.8,5.1,0.2c0.9-0.9,1.1-2.8,0-3.9
				c2.8-2.8,1.2-5.1,1.2-5.1s-2.3-1.6-5.1,1.2c-1.1-1.1-3-0.9-3.9,0c1.9,0.2,2.5,2.8,0.2,5.1c-2.3,2.3-8.1,3.9-9.7,1.9
				C775.4,9.5,772.9,12.7,775.4,15.1z"></path>
			<path class="st0" d="M772.8,35.1c-1-1.8-4.9-1.7-8.3,1.6c-0.2,0.2-0.3,0.3-0.5,0.5l1.1,1.1c0.1-0.1,0.2-0.3,0.4-0.4
				c4.5-4.5,7.2,1.1,7.9,2.3c0.3,0.5,0.2,0.2,0.4-0.1C774.9,39.1,776,35.7,772.8,35.1z"></path>
			<path class="st0" d="M743.3,33c-1.1-1.3-2.8,2-0.4,3.7c-1,1.6,6.3,6.5,15.4-0.1l-1-1C753,37.9,747.3,37.7,743.3,33z"></path>
			<path class="st0" d="M758.4,36.6c-7.9,6.3-19.2,7-22.6,6.1c-1.1,0.1,2.2,3.3,4.7,3.3c0.4,4.4,11.4-2.9,18.4-9L758.4,36.6z"></path>
			<path class="st0" d="M760.8,39l-1.2-1.2c-9,7.9-14.7,10.6-18,11.4c-1.7,0.7-1.1,2.4-1.8,4.4c-1.3,4.3,0,5.2,0,5.2s0.8,1.4,5.2,0
				c2-0.6,3.7-0.1,4.4-1.8C750.2,53.7,752.9,48,760.8,39z"></path>
			<path class="st0" d="M762,55.7c1.8,2.4,5,0.7,3.7-0.4c-4.8-4-5-9.6-2.7-14.1l-1-1C755.5,49.4,760.4,56.7,762,55.7z"></path>
			<path class="st0" d="M752.6,58.2c0,2.6,3.2,5.8,3.3,4.7c-0.9-3.4-0.2-14.8,6.1-22.6l-0.5-0.5C755.5,46.8,748.2,57.8,752.6,58.2z"></path>
		</g>
		<path class="st0" d="M765.4,41.1c-0.4,0.4-1,0.4-1.4,0l-6.5-6.5c-0.4-0.4-0.4-1,0-1.4l0,0c0.4-0.4,1-0.4,1.4,0l6.5,6.5
			C765.8,40.1,765.8,40.7,765.4,41.1L765.4,41.1z"></path>
	</g>
	<g>
		<path class="st0" d="M766.5,502.4c1.3,1.3,16.1,10.4,24.5-3.3c7.9-12.9-4.9-23-11.3-18.7c-1.8,1.3-1.8,3.9-1.5,4.7
			c-1,0.2-3.3-2.4-1.6-5c-1.8-1.2,1.5-4.7,5.1-4.3c3.6,0.4,14.8,6.6,12.4,17.8c-2.4,11.2-12.7,15.9-20.7,13.2
			C768.4,504.5,766.5,502.4,766.5,502.4z"></path>
		<path class="st0" d="M793.6,494.7c1-4.1,3.9-15.4-7.9-27.8c-12.5-13.1-5.1-20.5,2.1-29.5c9.3-11.7,5.2-21.4-4.7-22.1
			c-5.5,0.7-2.5,6.9-0.9,8c1.6,1,0.6,1.2-1.9,1c-2.5-0.2-6.5-5-2.1-9.4c6.3-6.3,18.6,1.8,16.7,12.8c-1.9,11.1-9.8,13-13,20.7
			c-3.1,7.5-1.6,10.5,7.7,21.8C798.7,481.3,794.6,492.7,793.6,494.7z"></path>
		<path class="st0" d="M781.9,449.1c1.9-2.8,5.1-6.7,8.6-5c3.4,1.7,3.1,4.5,2.1,5.4c-1.1,0.9-3.2-0.3-3-2.6c-1.2,1-0.7,1.1-1,2
			c-0.3,0.9-0.3,4,2.4,3.9c2.7-0.1,5.5-2.2,4-6.4c-1.5-4.2-7.5-5.3-9.9-2.5C782.6,446.8,781.9,449.1,781.9,449.1z"></path>
		<path class="st0" d="M784.7,467.1c-5.7-6.9-7.2-10.6-6.5-14.6c0.9-5.4,1.3-4.8,5.1-10.8c2-3,1.8-6.7-0.6-8.9c-2.2-2-6.5-3-8.2,1.3
			c-1.4,3.6,1.4,5.7,3.2,4.7c1.8-1,1.3-2.3,1.9-2.7c0.6-0.4-0.6-0.8-1.6-0.4c-1,0.4-1-1.1,0.5-2.1c1.6-1,6.6,2.2,3.7,7.1
			c-3,4.9-4.7,8.5-4.9,12.1c-0.3,4.8,2.7,8.8,3.7,10.1C782.6,465,784.7,467.1,784.7,467.1z"></path>
		<path class="st0" d="M782.3,517.5c0,0-3-5.8,2.1-9.5c3.9-2.8,8.5,0.8,7.8,3.8c-0.7,3.1-2.7,0.3-1.7,0.1c1-0.8-0.7-1.9-1.6-0.6
			c-0.9,1.3,0.8,3.5,2.8,3c3.1-0.8,3-4.5,0.7-6.6c-2.3-2.1-6-3-9.1-0.5C779.5,510.1,779.1,514.8,782.3,517.5z"></path>
		<path class="st0" d="M795,426.3c1.1-2.9,1.2-10.2-1.9-17.8c-3-7.6-17-19.4-19.5-32.3c-2.9-15,11.6-26.8,17.9-22.2
			c1.9,1.5,0.5,3.2-0.6,3.3c0.6-1-0.5-2.7-2-1.4c-1.5,1.3-0.6,5.1,2.3,5c2.9-0.1,5.6-2.9,3.9-6.7c-1.7-3.8-8.8-7.4-16.2-0.9
			c-7.8,6.8-14.7,21.3-0.1,38.9c11.2,13.5,15.5,17.7,16.2,30.4C795,424.4,795,426.3,795,426.3z"></path>
		<path class="st0" d="M793.3,407.5c-0.6-2.4-6-9.4-9.5-13.5c-2.9-3.3-8.5-12.9-9.2-17.5c-0.7-4.1,1.5-6,3.1-7.9
			c1.7-1.9,1.6-3.5,2-3.1c0.4,0.4,2.6,4.1,0.7,9.1c0.2,0.4,0.2-0.8,2-2.4c0.8-0.6,0.6-0.2,0.5,0.7c-0.1,0.9,0.3,4.2-1.6,8.1
			c-0.4,0.4,1.8-2.6,2-1.8c0.2,2.6-2,5.1-0.8,9.4c1.2,4.3,5.5,8.5,7.7,11.8C793.1,405.2,793.3,407.5,793.3,407.5z"></path>
		<path class="st0" d="M787.2,404c0.7,1.6-8-9.1-12.3-8.1c-4.3,1-0.4,6.6,2.2,3.7c0.3,1.5-0.9,2.1-1.2,2.7c-1.9,4-9.7-1.5-7.7-6.2
			c2.5-5.7,8.1-3.7,11.5-0.9C783.2,398,786.8,403.2,787.2,404z"></path>
		<path class="st0" d="M764.8,504.1c1.3,1.3,10.4,16.1-3.3,24.5c-12.9,7.9-23-4.9-18.7-11.3c1.3-1.9,3.9-1.9,4.7-1.5
			c0.2-1-2.4-3.3-4.9-1.6c-1.2-1.8-4.7,1.5-4.3,5.1c0.4,3.6,6.5,14.8,17.8,12.4c11.2-2.3,15.9-12.8,13.2-20.7
			C767,506,764.8,504.1,764.8,504.1z"></path>
		<path class="st0" d="M757.1,531.2c-4.1,1-15.4,3.9-27.8-7.9c-13.1-12.5-20.5-5.1-29.5,2.1c-11.7,9.3-21.4,5.2-22.1-4.7
			c0.7-5.5,6.9-2.5,8-0.9c1,1.6,1.2,0.6,1-1.9c-0.1-2.5-5-6.5-9.4-2.1c-6.3,6.3,1.8,18.6,12.8,16.7c11.1-1.9,13-9.8,20.7-13
			c7.5-3.1,10.5-1.6,21.8,7.7C743.8,536.3,755.2,532.1,757.1,531.2z"></path>
		<path class="st0" d="M711.5,519.4c-2.9,1.9-6.7,5.1-5,8.6c1.7,3.4,4.5,3.1,5.4,2.1c0.9-1.1-0.3-3.3-2.6-3c1-1.2,1.1-0.7,2-1
			c0.9-0.3,4-0.3,3.9,2.4c-0.1,2.7-2.2,5.5-6.4,4c-4.2-1.5-5.3-7.5-2.5-9.9C709.3,520.1,711.5,519.4,711.5,519.4z"></path>
		<path class="st0" d="M729.6,522.3c-7-5.7-10.6-7.2-14.6-6.5c-5.4,0.9-4.8,1.3-10.8,5.1c-3.1,2-6.7,1.8-8.9-0.6
			c-2-2.2-3-6.5,1.3-8.2c3.6-1.4,5.7,1.4,4.7,3.1c-1,1.8-2.3,1.3-2.7,1.9c-0.4,0.6-0.8-0.6-0.4-1.6c0.4-1-1.1-1-2.1,0.5
			c-1,1.6,2.2,6.6,7.1,3.7c4.9-3,8.5-4.7,12.1-4.9c4.8-0.3,8.8,2.7,10.1,3.7C727.5,520.2,729.6,522.3,729.6,522.3z"></path>
		<path class="st0" d="M780,519.8c0,0-5.8-3-9.5,2.1c-2.8,3.9,0.8,8.5,3.8,7.8c3.1-0.7,0.3-2.7,0.1-1.7c-0.8,1-1.9-0.7-0.6-1.6
			c1.3-0.9,3.4,0.8,3,2.8c-0.8,3.1-4.5,2.9-6.6,0.7c-2.1-2.3-3-6-0.5-9.1C772.5,517.1,777.2,516.7,780,519.8z"></path>
		<g>
			<path class="st0" d="M769.5,503.5c0,0,2.6,1.8,6.7,2.3c2,0.3,4.4,0.1,6.5-0.7c2.1-0.8,4-2.3,5.1-3.8c0.6-0.8,1.2-1.7,1.6-2.7
				c0.4-1,0.7-2.2,0.7-3.3c0-2.4-1.2-4.7-3-5.9c-0.9-0.6-1.9-1-2.8-1.1c-0.9-0.1-1.8,0-2.4,0.2c-1.3,0.4-1.9,1-1.8,1.2
				c0.1,0.2,0.8-0.1,2-0.3c1.1-0.2,2.9-0.2,4.4,0.9c1.6,1,2.8,3,2.9,5.1c0.1,1.1-0.1,2.1-0.5,3.1c-0.4,1-0.9,1.9-1.5,2.6
				c-1.1,1.5-2.9,2.9-4.9,3.7c-2,0.8-4.3,0.9-6.3,0.7C772.2,505,769.5,503.4,769.5,503.5z"></path>
			<path class="st0" d="M765.9,507c-0.1,0,1.5,2.7,2,6.7c0.2,2,0.1,4.3-0.7,6.3c-0.8,2.1-2.2,3.8-3.7,4.9c-0.8,0.6-1.6,1.1-2.6,1.5
				c-1,0.4-2.1,0.6-3.1,0.5c-2.1-0.1-4.1-1.3-5.1-2.9c-1-1.6-1.1-3.3-0.9-4.4c0.2-1.2,0.6-1.8,0.3-2c-0.2-0.1-0.8,0.5-1.2,1.8
				c-0.2,0.7-0.3,1.5-0.2,2.4c0.1,0.9,0.5,1.9,1.1,2.8c1.2,1.8,3.6,3,5.9,3c1.2,0,2.3-0.3,3.3-0.7c1-0.4,1.9-1,2.7-1.6
				c1.6-1.2,3.1-3,3.8-5.1c0.8-2.1,0.9-4.5,0.7-6.5C767.7,509.7,765.9,507,765.9,507z"></path>
		</g>
		<path class="st0" d="M688.8,532.5c-2.9,1.1-10.2,1.2-17.8-1.9c-7.6-3.1-19.4-17-32.3-19.5c-15-2.9-26.8,11.6-22.2,17.9
			c1.5,1.9,3.2,0.5,3.3-0.6c-1,0.6-2.7-0.5-1.4-2c1.3-1.5,5.1-0.6,5,2.3c-0.1,2.8-2.9,5.6-6.7,3.9c-3.8-1.7-7.4-8.8-0.9-16.2
			c6.8-7.8,21.3-14.7,38.9-0.1c13.5,11.2,17.7,15.5,30.4,16.2C686.8,532.5,688.8,532.5,688.8,532.5z"></path>
		<path class="st0" d="M670,530.9c-2.4-0.6-9.4-6-13.5-9.5c-3.3-3-12.9-8.5-17.5-9.2c-4.1-0.7-6,1.5-7.9,3.1c-1.9,1.7-3.5,1.6-3.1,2
			c0.4,0.4,4.1,2.6,9.2,0.7c0.4,0.2-0.8,0.2-2.4,2c-0.6,0.8-0.2,0.6,0.7,0.5c0.9-0.1,4.2,0.3,8.1-1.6c0.4-0.4-2.6,1.8-1.8,2
			c2.6,0.2,5.1-2,9.4-0.8c4.3,1.2,8.5,5.5,11.8,7.7C667.7,530.6,670,530.9,670,530.9z"></path>
		<path class="st0" d="M666.5,524.8c1.6,0.7-9.1-8-8.1-12.3c1-4.3,6.6-0.4,3.7,2.2c1.5,0.3,2.1-0.9,2.7-1.2c4-1.9-1.5-9.7-6.2-7.7
			c-5.7,2.5-3.7,8.1-0.9,11.5C660.4,520.8,665.6,524.4,666.5,524.8z"></path>
		<g>
			<path class="st0" d="M773.4,496c-0.7,1.1-3.3,6.8-7.9,2.3c-0.1-0.1-0.2-0.3-0.4-0.4L764,499c0.2,0.2,0.3,0.3,0.5,0.5
				c3.3,3.3,7.2,3.3,8.3,1.6c3.2-0.7,2.1-4.1,1-4.9C773.6,495.8,773.7,495.6,773.4,496z"></path>
			<path class="st0" d="M783.5,512.9c-2.5,2.5,0,6,0,6c-8.8-7.5-15.4-13.8-20.3-19.1l-0.9,0.9c5.3,4.9,11.6,11.5,19.1,20.3
				c0,0-3.5-2.5-6,0c-2.5,2.5,0,5.7,1.6,3.7c1.6-1.9,7.4-0.4,9.7,1.9c2.3,2.3,1.8,5-0.2,5.1c0.9,0.9,2.8,1.1,3.9,0
				c2.8,2.8,5.1,1.2,5.1,1.2s1.6-2.3-1.2-5.1c1.1-1.1,0.9-3,0-3.9c-0.2,1.9-2.8,2.5-5.1,0.2c-2.3-2.3-3.9-8.1-1.9-9.7
				C789.2,512.9,786,510.4,783.5,512.9z"></path>
			<path class="st0" d="M763.6,510.3c1.8-1,1.7-4.9-1.6-8.3c-0.2-0.2-0.3-0.3-0.5-0.5l-1.1,1.1c0.1,0.1,0.3,0.2,0.4,0.4
				c4.5,4.5-1.1,7.2-2.3,7.9c-0.5,0.3-0.2,0.2,0.1,0.4C759.5,512.4,762.9,513.4,763.6,510.3z"></path>
			<path class="st0" d="M765.7,480.8c1.3-1.1-2-2.8-3.7-0.4c-1.6-1-6.5,6.3,0.1,15.4l1-1C760.8,490.4,761,484.8,765.7,480.8z"></path>
			<path class="st0" d="M762.1,495.9c-6.3-7.9-7-19.2-6.1-22.6c-0.1-1.1-3.3,2.2-3.3,4.7c-4.4,0.4,2.9,11.4,9,18.4L762.1,495.9z"></path>
			<path class="st0" d="M759.6,498.3l1.2-1.2c-7.9-9-10.6-14.7-11.4-18c-0.7-1.7-2.4-1.1-4.4-1.8c-4.3-1.3-5.2,0-5.2,0
				s-1.4,0.8,0,5.1c0.6,2,0.1,3.7,1.8,4.4C745,487.6,750.7,490.4,759.6,498.3z"></path>
			<path class="st0" d="M742.9,499.4c-2.4,1.8-0.7,5,0.4,3.7c4-4.7,9.6-4.9,14.1-2.7l1-1C749.2,492.9,742,497.9,742.9,499.4z"></path>
			<path class="st0" d="M740.5,490.1c-2.6,0-5.8,3.2-4.7,3.3c3.4-0.9,14.8-0.2,22.6,6.1l0.5-0.5C751.8,493,740.9,485.7,740.5,490.1z
				"></path>
		</g>
		<path class="st0" d="M757.6,502.9c-0.4-0.4-0.4-1,0-1.4l6.5-6.5c0.4-0.4,1-0.4,1.4,0l0,0c0.4,0.4,0.4,1,0,1.4l-6.5,6.5
			C758.6,503.3,758,503.3,757.6,502.9L757.6,502.9z"></path>
	</g>
	<g>
		<path class="st0" d="M35.1,504.1c-1.3,1.3-10.4,16.1,3.3,24.5c12.9,7.9,23-4.9,18.7-11.3c-1.3-1.9-3.9-1.9-4.7-1.5
			c-0.2-1,2.4-3.3,5-1.6c1.2-1.8,4.7,1.5,4.3,5.1c-0.4,3.6-6.5,14.8-17.8,12.4c-11.2-2.3-15.9-12.8-13.2-20.7
			C33,506,35.1,504.1,35.1,504.1z"></path>
		<path class="st0" d="M42.8,531.2c4.1,1,15.4,3.9,27.8-7.9c13.1-12.5,20.5-5.1,29.5,2.1c11.7,9.3,21.4,5.2,22.1-4.7
			c-0.7-5.5-6.9-2.5-8-0.9c-1,1.6-1.2,0.6-1-1.9c0.1-2.5,5-6.5,9.4-2.1c6.3,6.3-1.8,18.6-12.8,16.7c-11.1-1.9-13-9.8-20.7-13
			c-7.5-3.1-10.5-1.6-21.8,7.7C56.1,536.3,44.8,532.1,42.8,531.2z"></path>
		<path class="st0" d="M88.4,519.4c2.8,1.9,6.7,5.1,5,8.6c-1.7,3.4-4.5,3.1-5.4,2.1c-0.9-1.1,0.3-3.3,2.6-3c-1-1.2-1.1-0.7-2-1
			c-0.9-0.3-4-0.3-3.9,2.4c0.1,2.7,2.2,5.5,6.4,4c4.2-1.5,5.3-7.5,2.5-9.9C90.7,520.1,88.4,519.4,88.4,519.4z"></path>
		<path class="st0" d="M70.4,522.3c6.9-5.7,10.6-7.2,14.6-6.5c5.4,0.9,4.8,1.3,10.8,5.1c3,2,6.7,1.8,8.9-0.6c2-2.2,3-6.5-1.3-8.2
			c-3.6-1.4-5.7,1.4-4.7,3.1c1,1.8,2.3,1.3,2.7,1.9c0.4,0.6,0.8-0.6,0.4-1.6c-0.4-1,1.1-1,2.1,0.5c1,1.6-2.2,6.6-7.1,3.7
			c-4.9-2.9-8.5-4.7-12.1-4.9c-4.8-0.3-8.8,2.7-10.1,3.7C72.4,520.2,70.4,522.3,70.4,522.3z"></path>
		<path class="st0" d="M19.9,519.8c0,0,5.8-3,9.5,2.1c2.8,3.9-0.8,8.5-3.8,7.8c-3-0.7-0.3-2.7-0.1-1.7c0.8,1,1.9-0.7,0.6-1.6
			c-1.3-0.9-3.5,0.8-3,2.8c0.8,3.1,4.5,2.9,6.6,0.7c2.1-2.3,3-6,0.5-9.1C27.4,517.1,22.7,516.7,19.9,519.8z"></path>
		<path class="st0" d="M111.1,532.5c2.9,1.1,10.2,1.2,17.8-1.9c7.6-3.1,19.4-17,32.3-19.5c15-2.9,26.8,11.6,22.2,17.9
			c-1.5,1.9-3.3,0.5-3.3-0.6c1,0.6,2.7-0.5,1.4-2c-1.3-1.5-5.1-0.6-5,2.3c0.1,2.8,2.9,5.6,6.7,3.9c3.8-1.7,7.4-8.8,0.9-16.2
			c-6.8-7.8-21.3-14.7-38.9-0.1c-13.5,11.2-17.7,15.5-30.4,16.2C113.1,532.5,111.1,532.5,111.1,532.5z"></path>
		<path class="st0" d="M129.9,530.9c2.4-0.6,9.4-6,13.5-9.5c3.3-3,12.9-8.5,17.5-9.2c4.1-0.7,6,1.5,7.9,3.1c1.9,1.7,3.5,1.6,3.1,2
			c-0.4,0.4-4.1,2.6-9.2,0.7c-0.4,0.2,0.8,0.2,2.4,2c0.6,0.8,0.2,0.6-0.7,0.5c-0.9-0.1-4.2,0.3-8.1-1.6c-0.4-0.4,2.6,1.8,1.8,2
			c-2.6,0.2-5.1-2-9.4-0.8c-4.3,1.2-8.5,5.5-11.8,7.7C132.3,530.6,129.9,530.9,129.9,530.9z"></path>
		<path class="st0" d="M133.5,524.8c-1.6,0.7,9.1-8,8.1-12.3c-1-4.3-6.6-0.4-3.7,2.2c-1.5,0.3-2.1-0.9-2.7-1.2
			c-4-1.9,1.5-9.7,6.2-7.7c5.7,2.5,3.7,8.1,0.9,11.5C139.5,520.8,134.3,524.4,133.5,524.8z"></path>
		<path class="st0" d="M33.4,502.4c-1.3,1.3-16.1,10.4-24.5-3.3c-7.9-12.9,4.9-23,11.3-18.7c1.9,1.3,1.9,3.9,1.5,4.7
			c1,0.2,3.3-2.4,1.6-5c1.8-1.2-1.5-4.7-5.1-4.3c-3.6,0.4-14.8,6.5-12.4,17.8c2.3,11.2,12.8,15.9,20.7,13.2
			C31.5,504.5,33.4,502.4,33.4,502.4z"></path>
		<path class="st0" d="M6.3,494.7c-1-4.1-3.9-15.4,7.9-27.8c12.5-13.1,5.1-20.5-2.1-29.5C2.8,425.7,7,416,16.9,415.2
			c5.5,0.7,2.5,6.9,0.9,8c-1.6,1-0.6,1.2,1.9,1c2.5-0.2,6.5-5,2.1-9.4c-6.3-6.3-18.6,1.8-16.7,12.8c1.9,11.1,9.8,13,13,20.7
			c3.1,7.5,1.6,10.5-7.7,21.8C1.2,481.3,5.3,492.7,6.3,494.7z"></path>
		<path class="st0" d="M18,449.1c-1.9-2.8-5.1-6.7-8.6-5c-3.4,1.7-3.1,4.5-2.1,5.4c1.1,0.9,3.2-0.3,3-2.6c1.2,1,0.7,1.1,1,2
			c0.3,0.9,0.3,4-2.4,3.9s-5.5-2.2-4-6.4c1.5-4.2,7.5-5.3,9.9-2.5C17.3,446.8,18,449.1,18,449.1z"></path>
		<path class="st0" d="M15.2,467.1c5.7-6.9,7.2-10.6,6.5-14.6c-0.9-5.4-1.3-4.8-5.2-10.8c-2-3-1.8-6.7,0.6-8.9c2.2-2,6.5-3,8.2,1.3
			c1.4,3.6-1.4,5.7-3.1,4.7c-1.8-1-1.3-2.3-1.9-2.7c-0.6-0.4,0.6-0.8,1.6-0.4c1,0.4,1-1.1-0.5-2.1c-1.6-1-6.6,2.2-3.7,7.1
			c3,4.9,4.7,8.5,4.9,12.1c0.3,4.8-2.7,8.8-3.7,10.1C17.3,465,15.2,467.1,15.2,467.1z"></path>
		<path class="st0" d="M17.6,517.5c0,0,3-5.8-2.1-9.5c-3.9-2.8-8.5,0.8-7.8,3.8c0.7,3.1,2.7,0.3,1.7,0.1c-1-0.8,0.7-1.9,1.6-0.6
			c0.9,1.3-0.8,3.5-2.8,3c-3.1-0.8-2.9-4.5-0.7-6.6c2.3-2.1,6-3,9.1-0.5C20.4,510.1,20.8,514.8,17.6,517.5z"></path>
		<g>
			<path class="st0" d="M34,507c0,0-1.8,2.6-2.3,6.7c-0.3,2-0.1,4.3,0.7,6.5c0.8,2.1,2.3,4,3.8,5.1c0.8,0.6,1.7,1.2,2.7,1.6
				c1,0.4,2.2,0.7,3.3,0.7c2.4,0,4.7-1.2,5.9-3c0.6-0.9,1-1.9,1.1-2.8c0.1-0.9,0-1.8-0.2-2.4c-0.4-1.3-1-1.9-1.2-1.8
				c-0.2,0.1,0.1,0.8,0.3,2c0.2,1.1,0.2,2.9-0.9,4.4c-1,1.6-3,2.8-5.1,2.9c-1.1,0.1-2.1-0.1-3.1-0.5c-1-0.4-1.9-0.9-2.6-1.5
				c-1.5-1.1-3-2.9-3.7-4.9c-0.8-2.1-0.9-4.3-0.7-6.3C32.5,509.8,34.1,507.1,34,507z"></path>
			<path class="st0" d="M30.4,503.5c0-0.1-2.7,1.5-6.7,2c-2,0.2-4.3,0.1-6.3-0.7c-2.1-0.8-3.8-2.2-4.9-3.7c-0.6-0.8-1.1-1.6-1.5-2.6
				c-0.4-1-0.6-2-0.5-3.1c0.1-2.1,1.3-4.1,2.9-5.1c1.6-1,3.3-1.1,4.4-0.9c1.2,0.2,1.8,0.6,2,0.3c0.1-0.2-0.5-0.8-1.8-1.2
				c-0.6-0.2-1.5-0.3-2.4-0.2c-0.9,0.1-1.9,0.5-2.8,1.1c-1.8,1.2-3,3.6-3,5.9c0,1.2,0.3,2.3,0.7,3.3c0.4,1,1,1.9,1.6,2.7
				c1.2,1.6,3,3.1,5.1,3.8c2.1,0.8,4.5,0.9,6.5,0.7C27.8,505.2,30.5,503.5,30.4,503.5z"></path>
		</g>
		<path class="st0" d="M4.9,426.3c-1.1-2.9-1.2-10.2,1.9-17.8c3.1-7.6,17-19.4,19.5-32.3c2.9-15-11.6-26.8-17.9-22.2
			c-1.9,1.5-0.5,3.2,0.6,3.3c-0.6-1,0.5-2.7,2-1.4c1.5,1.3,0.6,5.1-2.3,5c-2.8-0.1-5.6-2.9-3.9-6.7c1.7-3.8,8.8-7.4,16.2-0.9
			c7.8,6.8,14.7,21.3,0.1,38.9C9.8,405.8,5.5,410,4.8,422.7C4.9,424.4,4.9,426.3,4.9,426.3z"></path>
		<path class="st0" d="M6.6,407.5c0.6-2.4,6-9.4,9.5-13.5c3-3.3,8.5-12.9,9.2-17.5c0.7-4.1-1.5-6-3.1-7.9c-1.7-1.9-1.6-3.5-2-3.1
			c-0.4,0.4-2.6,4.1-0.7,9.1c-0.2,0.4-0.2-0.8-2-2.4c-0.8-0.6-0.6-0.2-0.5,0.7c0.1,0.9-0.3,4.2,1.6,8.1c0.4,0.4-1.8-2.6-2-1.8
			c-0.2,2.6,2,5.1,0.8,9.4c-1.2,4.3-5.5,8.5-7.7,11.8C6.8,405.2,6.6,407.5,6.6,407.5z"></path>
		<path class="st0" d="M12.7,404c-0.7,1.6,8-9.2,12.2-8.1c4.3,1,0.4,6.6-2.2,3.7c-0.3,1.5,0.9,2.1,1.2,2.7c1.9,4,9.7-1.5,7.7-6.2
			c-2.5-5.7-8.1-3.7-11.5-0.9C16.7,398,13.1,403.2,12.7,404z"></path>
		<g>
			<path class="st0" d="M41.4,510.9c-1.1-0.7-6.8-3.4-2.3-7.9c0.1-0.1,0.3-0.3,0.4-0.4l-1.1-1.1c-0.2,0.2-0.3,0.3-0.5,0.5
				c-3.3,3.3-3.3,7.2-1.6,8.3c0.7,3.2,4.1,2.1,4.9,1C41.6,511.1,41.9,511.2,41.4,510.9z"></path>
			<path class="st0" d="M24.6,521.1c-2.5-2.5-6,0-6,0c7.5-8.8,13.8-15.4,19.1-20.3l-0.9-0.9c-4.9,5.3-11.5,11.6-20.3,19.1
				c0,0,2.5-3.5,0-6c-2.5-2.5-5.7,0-3.7,1.6c1.9,1.6,0.4,7.4-1.9,9.7c-2.3,2.3-4.9,1.8-5.1-0.2c-0.9,0.9-1.1,2.8,0,3.9
				c-2.8,2.8-1.2,5.1-1.2,5.1s2.3,1.6,5.1-1.2c1.1,1.1,3,0.9,3.9,0c-1.9-0.2-2.5-2.8-0.2-5.1c2.3-2.3,8.1-3.9,9.7-1.9
				C24.6,526.7,27.1,523.5,24.6,521.1z"></path>
			<path class="st0" d="M27.2,501.1c1,1.8,4.9,1.7,8.3-1.6c0.2-0.1,0.3-0.3,0.5-0.5l-1.1-1.1c-0.1,0.1-0.3,0.3-0.4,0.4
				c-4.5,4.5-7.2-1.1-7.9-2.3c-0.3-0.5-0.2-0.2-0.4,0.1C25.1,497.1,24,500.5,27.2,501.1z"></path>
			<path class="st0" d="M56.7,503.2c1.1,1.3,2.8-2,0.4-3.7c1-1.6-6.3-6.5-15.4,0.1l1,1C47,498.3,52.7,498.5,56.7,503.2z"></path>
			<path class="st0" d="M41.6,499.6c7.9-6.3,19.2-7,22.6-6.1c1.1-0.1-2.2-3.3-4.7-3.3c-0.4-4.4-11.4,2.9-18.4,9L41.6,499.6z"></path>
			<path class="st0" d="M39.2,497.2l1.2,1.2c9-7.9,14.7-10.6,18-11.4c1.7-0.7,1.1-2.4,1.8-4.4c1.3-4.3,0-5.2,0-5.2s-0.8-1.4-5.2,0
				c-2,0.6-3.7,0.1-4.4,1.8C49.8,482.5,47.1,488.2,39.2,497.2z"></path>
			<path class="st0" d="M38,480.5c-1.8-2.4-5-0.7-3.7,0.4c4.7,4,5,9.6,2.7,14.1l1,1C44.5,486.8,39.6,479.5,38,480.5z"></path>
			<path class="st0" d="M47.4,478c0-2.6-3.2-5.8-3.3-4.7c0.9,3.4,0.2,14.8-6.1,22.6l0.5,0.5C44.5,489.4,51.8,478.4,47.4,478z"></path>
		</g>
		<path class="st0" d="M34.6,495.1c0.4-0.4,1-0.4,1.4,0l6.5,6.5c0.4,0.4,0.4,1,0,1.4l0,0c-0.4,0.4-1,0.4-1.4,0l-6.5-6.5
			C34.2,496.1,34.2,495.5,34.6,495.1L34.6,495.1z"></path>
	</g>
</g>
</svg>