<!--?xml version="1.0" encoding="utf-8"?-->
<!-- Generator: Adobe Illustrator 22.1.0, SVG Export Plug-In . SVG Version: 6.00 Build 0)  -->
<svg version="1.1" id="_x38_" xmlns="http://www.w3.org/2000/svg" xmlns:xlink="http://www.w3.org/1999/xlink" x="0px" y="0px" viewBox="0 0 800 494.1" style="enable-background:new 0 0 800 494.1;" xml:space="preserve" preserveAspectRatio="none">
<g>
	<g>
		<g>
			<g>
				<g>
					<path d="M15.7,2.5c-0.9-0.4-0.2,4.3-2.5,3.4S8.5,2.9,4.9,3.4c-0.4,3.6,1.6,6,2.5,8.3c0.9,2.2-3.8,1.6-3.4,2.5
						c0.4,0.9,3.1,4,6.3,3.1c3.1-0.9,7.2,0,8.7,1.6c1.6,1.6,1.3,3.1,2.2,4c0.9,0.9,5.8,2.7,5.8,2.7s-1.8-4.9-2.7-5.8
						c-0.9-0.9-2.5-0.7-4-2.2c-1.6-1.6-2.5-5.6-1.6-8.7C19.7,5.6,16.6,2.9,15.7,2.5z M15,10.1c-0.4,1.5,0.4,3.7,0.4,3.7
						s-2.3-0.8-3.7-0.4c-1.5,0.4-1.7-0.5-1.4-0.8c0.3-0.3,0.7-1.5,0.1-1.8C9.7,10.5,9.1,8.8,9.6,8c0.7-0.4,2.5,0.1,2.8,0.7
						c0.3,0.6,1.5,0.2,1.8-0.1C14.5,8.4,15.4,8.6,15,10.1z"></path>
					<g>
						<g>
							<path d="M21.2,83.4c-2.5,0.9-5-2.5-7.2-3.4c-3.5-1.5-5.4,4.5,0.7,5.2C18.5,85.6,21.2,83.4,21.2,83.4z"></path>
							<g>
								<g>
									<g>
										<path d="M19.3,51.4c-3.6,1.5-1.4,8.4,4.4,6.9c8-2.1,7.1-16.5-4.9-17.5c-12.1-1-20.2,16.1-9.6,27.7
											c11.2,12.1,34.3,6,35.3-14.1c1-19.9-17.1-29.7-32.7-26.1c-4.3,1-5.5,1.1-7.1,1c0.9,2.1,3.6,4.3,6.4,3.1
											c0.2,2,2.9,3.4,4.6,2c-2.2-4.1,0.8-5.7,3.4-5.6c2.4,0.2,12.2,0.6,17.4,8c0,0-1.7,1-3.2,0.5c-0.5,2.5,2.2,4.2,3.9,4.9
											c1.7,0.7,5.5,4.5,5.5,8.6c-2.7-1.3-3.4,2.7-1.5,6.6c1.8,3.9-4.2,11.9-10.1,14.8c-5.9,2.9-14.6,1.8-21.2-4.4
											c-6.6-6.2-4.7-16.1-1.8-20c2.5-3.5,6.4-0.3,8.2-2.2c1.8-1.8,0.5-2.9,0.5-2.9s5.2-1.5,8.6,2.2c3.4,3.7,1.7,6,0,6.7
											s0.8,2.2,0.8,2.2s-1,2.7-2.9,1.5c-1.8-1.2-2.2-2.9-3-1C19.7,53.6,19.3,51.4,19.3,51.4z"></path>
									</g>
									<path d="M18.5,23.5c0-1.6-2.9-4.7-5.4-3.8c-2.5,0.9-5.7,0.1-6.6-0.3c-0.7,1.3,1.1,3.1,2.5,3.4c-1.6,0.7-2.2,0.9-1.9,1.2
										c0.3,0.3,1.9,2.1,4.7,0.7C14,23.4,17.8,22.6,18.5,23.5z"></path>
								</g>
								<path d="M46.8,48.6C47.3,49.8,49,59,44.9,66c-1.7,2.8,3.6,1.1,4.5-1.8c0.9-2.9-1.2-2.4-0.8-3.2c0.4-0.9,1.9-0.8,2.1-1.9
									c0.2-1.1-2.1-1.1-1.8-2.7C49.2,54.9,47.7,49.8,46.8,48.6z"></path>
								<path d="M35.2,69.8c-2.5,0.7-3.4-4.3-7.2-3.8c-3.8,0.4-3.8,6.3,2.2,6.9C35.2,71.6,35.2,69.8,35.2,69.8z"></path>
								<path d="M21.9,74c-2.2-0.4-2.1-2.8-3.6-4.9c-1.5-2.1-6.3-2-3.1,3.1C17.3,73.4,21.9,74,21.9,74z"></path>
								<path d="M8.4,66.2c-1.2-2.4-0.9-3.5,1.6-6c1.9-2-0.2-4.5-2.5-3.8C5.2,57.1,4.4,61.9,8.4,66.2z"></path>
								<path d="M33.7,36c-0.6-0.6-5.4-4.5-9.7-3.5c-4.4,1-3.2,5.9-0.4,5.6c0.2-2,0.7-3.4,1.5-3.5c0.2,1.1,0.6,2.4,1.9,1
									C28.2,34.3,32,35.2,33.7,36z"></path>
								<path d="M10.4,97.6c5.6-1.5,5.7,8.2-0.4,7.8C5.4,105.2,1,98,7,90.9c7.6-9,19.5-5.6,30.2-16.3l1-1c0,0,1.2,0.1,0.8,0.8
									c-0.4,0.7-6.3,6.3-13.3,8.6c-7,2.3-15.8,4.4-18.9,10c-2.8,4.8-1.7,7.3,0,9.4c1.7,2.1,4.1,2.1,5.6,0.4
									c1.5-1.7,0.4-3.4-0.3-2.6c-1.8,1.8-2.8,1.4-3.4,0C8.3,99,9.2,97.9,10.4,97.6z"></path>
								<path d="M40.2,69.4c-1.3,1.8,1.6,4.3,2.7,2.7C44.5,69.7,41.3,67.8,40.2,69.4z"></path>
								<path d="M34.8,77.9c-3.4,3-3.4,5.5-5,6.6c-1.4,0.9-1.1-1.4-1.8-0.8c-0.8,0.6-0.5,2.9-2.5,3.7c-1.5,0.6-4.8-2.1,0.1-4.8
									C30.3,79.8,33.6,79.3,34.8,77.9z"></path>
							</g>
							<path d="M12.2,88c-2,2.2-0.4,5.6-1.5,6.4c-1,0.8-3.5-0.6-2.6-3.2C9,88.4,12.2,88,12.2,88z"></path>
						</g>
						<g>
							<path d="M84.9,19.7c0.9-2.5-2.5-5-3.4-7.2c-1.5-3.5,4.5-5.4,5.2,0.7C87.1,17,84.9,19.7,84.9,19.7z"></path>
							<g>
								<g>
									<g>
										<path d="M52.9,17.8c1.5-3.6,8.4-1.4,6.9,4.4c-2.1,8-16.5,7.1-17.5-4.9C41.3,5.2,58.5-3,70,7.7C82.2,18.9,76.1,42,55.9,43
											C36,44,26.2,25.8,29.9,10.3c1-4.3,1.1-5.5,1-7.1c2.1,1,4.3,3.6,3.1,6.4c2,0.2,3.4,2.9,2,4.6c-4.1-2.2-5.7,0.8-5.6,3.4
											c0.2,2.4,0.6,12.2,8,17.4c0,0,1-1.7,0.5-3.2c2.5-0.5,4.2,2.2,4.9,3.9c0.7,1.7,4.5,5.5,8.6,5.5c-1.3-2.7,2.7-3.4,6.6-1.5
											c3.9,1.8,11.9-4.2,14.8-10.1c2.9-5.9,1.8-14.6-4.4-21.2c-6.2-6.6-16.1-4.7-20-1.8c-3.5,2.5-0.3,6.4-2.2,8.2
											c-1.8,1.8-2.9,0.5-2.9,0.5s-1.5,5.2,2.2,8.6c3.7,3.4,6,1.7,6.7,0c0.7-1.7,2.2,0.8,2.2,0.8s2.7-1,1.5-2.9
											c-1.2-1.8-2.9-2.2-1-3C55.1,18.2,52.9,17.8,52.9,17.8z"></path>
									</g>
									<path d="M25,16.9c-1.6,0-4.7-2.9-3.8-5.4c0.9-2.5,0.1-5.7-0.3-6.6c1.3-0.7,3.1,1.1,3.4,2.5c0.7-1.6,0.9-2.2,1.2-1.9
										c0.3,0.3,2.1,1.9,0.7,4.7C24.9,12.5,24.1,16.3,25,16.9z"></path>
								</g>
								<path d="M50.1,45.3c1.2,0.4,10.4,2.1,17.4-1.9c2.8-1.7,1.1,3.6-1.8,4.5c-2.9,0.9-2.4-1.2-3.2-0.8c-0.9,0.4-0.8,1.9-1.9,2.1
									c-1.1,0.2-1.1-2.1-2.7-1.8C56.5,47.7,51.3,46.2,50.1,45.3z"></path>
								<path d="M71.3,33.7c0.7-2.5-4.3-3.4-3.8-7.2c0.4-3.8,6.3-3.8,6.9,2.2C73.1,33.7,71.3,33.7,71.3,33.7z"></path>
								<path d="M75.5,20.4c-0.4-2.2-2.8-2.1-4.9-3.6c-2.1-1.5-2-6.3,3.1-3.1C74.9,15.8,75.5,20.4,75.5,20.4z"></path>
								<path d="M67.8,6.8c-2.4-1.2-3.5-0.9-6,1.6c-2,1.9-4.5-0.2-3.8-2.5C58.6,3.7,63.4,2.9,67.8,6.8z"></path>
								<path d="M37.5,32.1c-0.6-0.6-4.5-5.4-3.5-9.7c1-4.4,5.9-3.3,5.6-0.4c-2,0.2-3.4,0.7-3.5,1.5c1.1,0.2,2.4,0.6,1,1.9
									C35.9,26.7,36.8,30.5,37.5,32.1z"></path>
								<path d="M99.1,8.9c-1.5,5.6,8.2,5.7,7.8-0.4c-0.2-4.6-7.4-9-14.6-2.9c-9,7.6-5.6,19.5-16.3,30.2l-1,1c0,0,0.1,1.2,0.8,0.8
									c0.7-0.4,6.3-6.3,8.6-13.3c2.3-7,4.4-15.8,10-18.9c4.8-2.8,7.3-1.7,9.4,0c2.1,1.7,2.1,4.1,0.4,5.6c-1.7,1.5-3.4,0.4-2.6-0.3
									c1.8-1.8,1.4-2.8,0-3.4C100.6,6.7,99.5,7.6,99.1,8.9z"></path>
								<path d="M70.9,38.6c1.8-1.3,4.3,1.6,2.7,2.7C71.3,43,69.3,39.8,70.9,38.6z"></path>
								<path d="M79.4,33.2c3-3.4,5.5-3.4,6.6-5c0.9-1.4-1.4-1.1-0.8-1.8c0.6-0.8,2.9-0.5,3.7-2.5c0.6-1.5-2.1-4.8-4.8,0.1
									C81.4,28.8,80.8,32.1,79.4,33.2z"></path>
							</g>
							<path d="M89.5,10.6c2.2-2,5.6-0.4,6.4-1.5c0.8-1-0.6-3.5-3.2-2.6C89.9,7.5,89.5,10.6,89.5,10.6z"></path>
						</g>
					</g>
				</g>
			</g>
			<g>
				<g>
					<path d="M18.8,485.3c-0.9-3.1,0-7.2,1.6-8.7c1.6-1.6,3.1-1.3,4-2.2c0.9-0.9,2.7-5.8,2.7-5.8s-4.9,1.8-5.8,2.7
						c-0.9,0.9-0.7,2.5-2.2,4c-1.6,1.6-5.6,2.5-8.7,1.6c-3.1-0.9-5.8,2.2-6.3,3.1c-0.4,0.9,4.3,0.2,3.4,2.5
						c-0.9,2.2-2.9,4.7-2.5,8.3c3.6,0.4,6-1.6,8.3-2.5c2.2-0.9,1.6,3.8,2.5,3.4C16.6,491.1,19.7,488.4,18.8,485.3z M14.2,485.4
						c-0.3-0.3-1.5-0.7-1.8-0.1c-0.3,0.6-2.1,1.2-2.8,0.7c-0.4-0.7,0.1-2.5,0.7-2.8c0.6-0.3,0.2-1.5-0.1-1.8
						c-0.3-0.3-0.1-1.2,1.4-0.8c1.5,0.4,3.7-0.4,3.7-0.4s-0.8,2.3-0.4,3.7C15.4,485.4,14.5,485.7,14.2,485.4z"></path>
					<g>
						<g>
							<path d="M21.2,410.7c-2.5-0.9-5,2.5-7.2,3.4c-3.5,1.5-5.4-4.5,0.7-5.2C18.5,408.5,21.2,410.7,21.2,410.7z"></path>
							<g>
								<g>
									<g>
										<path d="M19.3,442.7c-3.6-1.5-1.4-8.4,4.4-6.9c8,2.1,7.1,16.5-4.9,17.5c-12.1,1-20.2-16.1-9.6-27.7
											c11.2-12.1,34.3-6,35.3,14.1c1,19.9-17.1,29.7-32.7,26.1c-4.3-1-5.5-1.1-7.1-1c0.9-2.1,3.6-4.3,6.4-3.1
											c0.2-2,2.9-3.4,4.6-2c-2.2,4.1,0.8,5.7,3.4,5.6c2.4-0.2,12.2-0.6,17.4-8c0,0-1.7-1-3.2-0.5c-0.5-2.5,2.2-4.2,3.9-4.9
											c1.7-0.7,5.5-4.5,5.5-8.6c-2.7,1.3-3.4-2.7-1.5-6.5c1.8-3.9-4.2-11.9-10.1-14.8c-5.9-2.9-14.6-1.8-21.2,4.4
											c-6.6,6.2-4.7,16.1-1.8,20c2.5,3.5,6.4,0.3,8.2,2.2c1.8,1.8,0.5,2.9,0.5,2.9s5.2,1.5,8.6-2.2c3.4-3.7,1.7-6,0-6.7
											c-1.7-0.7,0.8-2.2,0.8-2.2s-1-2.7-2.9-1.5c-1.8,1.2-2.2,2.9-3,1C19.7,440.5,19.3,442.7,19.3,442.7z"></path>
									</g>
									<path d="M18.5,470.6c0,1.6-2.9,4.7-5.4,3.8c-2.5-0.9-5.7-0.1-6.6,0.3c-0.7-1.3,1.1-3.1,2.5-3.4c-1.6-0.7-2.2-0.9-1.9-1.2
										c0.3-0.3,1.9-2.1,4.7-0.7C14,470.7,17.8,471.5,18.5,470.6z"></path>
								</g>
								<path d="M46.8,445.5c0.4-1.2,2.1-10.4-1.9-17.4c-1.7-2.8,3.6-1.1,4.5,1.8c0.9,2.9-1.2,2.4-0.8,3.2c0.4,0.9,1.9,0.8,2.1,1.9
									c0.2,1.1-2.1,1.1-1.8,2.7C49.2,439.1,47.7,444.3,46.8,445.5z"></path>
								<path d="M35.2,424.3c-2.5-0.7-3.4,4.3-7.2,3.8c-3.8-0.4-3.8-6.3,2.2-6.9C35.2,422.5,35.2,424.3,35.2,424.3z"></path>
								<path d="M21.9,420.1c-2.2,0.4-2.1,2.8-3.6,4.9c-1.5,2.1-6.3,2-3.1-3.1C17.3,420.7,21.9,420.1,21.9,420.1z"></path>
								<path d="M8.4,427.8c-1.2,2.4-0.9,3.5,1.6,6c1.9,2-0.2,4.5-2.5,3.8C5.2,437,4.4,432.2,8.4,427.8z"></path>
								<path d="M33.7,458.1c-0.6,0.6-5.4,4.5-9.7,3.5c-4.4-1-3.2-5.9-0.4-5.6c0.2,2,0.7,3.4,1.5,3.5c0.2-1.1,0.6-2.4,1.9-1
									C28.2,459.7,32,458.8,33.7,458.1z"></path>
								<path d="M10.4,396.5c5.6,1.5,5.7-8.2-0.4-7.8c-4.6,0.2-9,7.4-2.9,14.6c7.6,9,19.5,5.6,30.2,16.3l1,1c0,0,1.2-0.1,0.8-0.8
									c-0.4-0.7-6.3-6.3-13.3-8.6c-7-2.3-15.8-4.4-18.9-10c-2.8-4.8-1.7-7.3,0-9.4c1.7-2.1,4.1-2.1,5.6-0.4
									c1.5,1.7,0.4,3.4-0.3,2.6c-1.8-1.8-2.8-1.4-3.4,0C8.3,395,9.2,396.1,10.4,396.5z"></path>
								<path d="M40.2,424.7c-1.3-1.8,1.6-4.3,2.7-2.7C44.5,424.3,41.3,426.3,40.2,424.7z"></path>
								<path d="M34.8,416.2c-3.4-3-3.4-5.5-5-6.5c-1.4-0.9-1.1,1.4-1.8,0.8c-0.8-0.6-0.5-2.9-2.5-3.7c-1.5-0.6-4.8,2.1,0.1,4.8
									C30.3,414.2,33.6,414.8,34.8,416.2z"></path>
							</g>
							<path d="M12.2,406.1c-2-2.2-0.4-5.6-1.5-6.4c-1-0.8-3.5,0.6-2.6,3.2C9,405.7,12.2,406.1,12.2,406.1z"></path>
						</g>
						<g>
							<path d="M84.9,474.4c0.9,2.5-2.5,5-3.4,7.2c-1.5,3.5,4.5,5.4,5.2-0.7C87.1,477.1,84.9,474.4,84.9,474.4z"></path>
							<g>
								<g>
									<g>
										<path d="M52.9,476.3c1.5,3.6,8.4,1.4,6.9-4.4c-2.1-8-16.5-7.1-17.5,4.9c-1,12.1,16.1,20.2,27.7,9.6
											c12.1-11.2,6-34.3-14.1-35.3c-19.9-1-29.7,17.1-26.1,32.7c1,4.3,1.1,5.5,1,7.1c2.1-0.9,4.3-3.6,3.1-6.4
											c2-0.2,3.4-2.9,2-4.6c-4.1,2.2-5.7-0.8-5.6-3.4c0.2-2.4,0.6-12.2,8-17.4c0,0,1,1.7,0.5,3.2c2.5,0.5,4.2-2.2,4.9-3.9
											c0.7-1.7,4.5-5.5,8.6-5.5c-1.3,2.7,2.7,3.4,6.6,1.5c3.9-1.8,11.9,4.2,14.8,10.1c2.9,5.9,1.8,14.6-4.4,21.2
											c-6.2,6.6-16.1,4.7-20,1.8c-3.5-2.5-0.3-6.4-2.2-8.2c-1.8-1.8-2.9-0.5-2.9-0.5s-1.5-5.2,2.2-8.6c3.7-3.4,6-1.7,6.7,0
											c0.7,1.7,2.2-0.8,2.2-0.8s2.7,1,1.5,2.9c-1.2,1.8-2.9,2.2-1,3C55.1,475.9,52.9,476.3,52.9,476.3z"></path>
									</g>
									<path d="M25,477.1c-1.6,0-4.7,2.9-3.8,5.4c0.9,2.5,0.1,5.7-0.3,6.6c1.3,0.7,3.1-1.1,3.4-2.5c0.7,1.6,0.9,2.2,1.2,1.9
										c0.3-0.3,2.1-1.9,0.7-4.7C24.9,481.6,24.1,477.8,25,477.1z"></path>
								</g>
								<path d="M50.1,448.8c1.2-0.4,10.4-2.1,17.4,1.9c2.8,1.7,1.1-3.6-1.8-4.5c-2.9-0.9-2.4,1.2-3.2,0.8c-0.9-0.4-0.8-1.9-1.9-2.1
									c-1.1-0.2-1.1,2.1-2.7,1.8C56.5,446.4,51.3,447.9,50.1,448.8z"></path>
								<path d="M71.3,460.4c0.7,2.5-4.3,3.4-3.8,7.2c0.4,3.8,6.3,3.8,6.9-2.2C73.1,460.4,71.3,460.4,71.3,460.4z"></path>
								<path d="M75.5,473.7c-0.4,2.2-2.8,2.1-4.9,3.6c-2.1,1.5-2,6.3,3.1,3.1C74.9,478.3,75.5,473.7,75.5,473.7z"></path>
								<path d="M67.8,487.2c-2.4,1.2-3.5,0.9-6-1.6c-2-1.9-4.5,0.2-3.8,2.5C58.6,490.4,63.4,491.1,67.8,487.2z"></path>
								<path d="M37.5,461.9c-0.6,0.6-4.5,5.4-3.5,9.7c1,4.4,5.9,3.2,5.6,0.4c-2-0.2-3.4-0.7-3.5-1.5c1.1-0.2,2.4-0.6,1-1.9
									C35.9,467.4,36.8,463.6,37.5,461.9z"></path>
								<path d="M99.1,485.2c-1.5-5.6,8.2-5.7,7.8,0.4c-0.2,4.6-7.4,9-14.6,2.9c-9-7.6-5.6-19.5-16.3-30.2l-1-1c0,0,0.1-1.2,0.8-0.8
									c0.7,0.4,6.3,6.3,8.6,13.3c2.3,7,4.4,15.8,10,18.9c4.8,2.8,7.3,1.7,9.4,0c2.1-1.7,2.1-4.1,0.4-5.6c-1.7-1.5-3.4-0.4-2.6,0.3
									c1.8,1.8,1.4,2.8,0,3.4C100.6,487.3,99.5,486.4,99.1,485.2z"></path>
								<path d="M70.9,455.4c1.8,1.3,4.3-1.6,2.7-2.7C71.3,451.1,69.3,454.3,70.9,455.4z"></path>
								<path d="M79.4,460.8c3,3.4,5.5,3.4,6.6,5c0.9,1.4-1.4,1.1-0.8,1.8c0.6,0.8,2.9,0.5,3.7,2.5c0.6,1.5-2.1,4.8-4.8-0.1
									C81.4,465.3,80.8,462,79.4,460.8z"></path>
							</g>
							<path d="M89.5,483.4c2.2,2,5.6,0.4,6.4,1.5c0.8,1-0.6,3.5-3.2,2.6C89.9,486.6,89.5,483.4,89.5,483.4z"></path>
						</g>
					</g>
				</g>
			</g>
		</g>
		<g>
			<rect x="4" y="108.6" width="2.2" height="276.9"></rect>
			<rect x="9.7" y="110.6" width="0.5" height="272.9"></rect>
		</g>
	</g>
	<g>
		<g>
			<rect x="110.1" y="489.4" width="579.8" height="2.2"></rect>
			<rect x="112.1" y="485.4" width="575.8" height="0.5"></rect>
		</g>
	</g>
	<g>
		<g>
			<g>
				<g>
					<path d="M781.2,8.8c0.9,3.1,0,7.2-1.6,8.7c-1.6,1.6-3.1,1.3-4,2.2c-0.9,0.9-2.7,5.8-2.7,5.8s4.9-1.8,5.8-2.7
						c0.9-0.9,0.7-2.5,2.2-4c1.6-1.6,5.6-2.5,8.7-1.6c3.1,0.9,5.8-2.2,6.3-3.1c0.4-0.9-4.3-0.2-3.4-2.5c0.9-2.2,2.9-4.7,2.5-8.3
						c-3.6-0.4-6,1.6-8.3,2.5c-2.2,0.9-1.6-3.8-2.5-3.4C783.4,3,780.3,5.6,781.2,8.8z M785.8,8.7c0.3,0.3,1.5,0.7,1.8,0.1
						c0.3-0.6,2.1-1.2,2.8-0.7c0.4,0.7-0.1,2.5-0.7,2.8c-0.6,0.3-0.2,1.5,0.1,1.8c0.3,0.3,0.1,1.2-1.4,0.8c-1.5-0.4-3.7,0.4-3.7,0.4
						s0.8-2.3,0.4-3.7C784.6,8.6,785.5,8.4,785.8,8.7z"></path>
					<g>
						<g>
							<path d="M778.8,83.4c2.5,0.9,5-2.5,7.2-3.4c3.5-1.5,5.4,4.5-0.7,5.2C781.5,85.6,778.8,83.4,778.8,83.4z"></path>
							<g>
								<g>
									<g>
										<path d="M780.7,51.4c3.6,1.5,1.4,8.4-4.4,6.9c-8-2.1-7.1-16.5,4.9-17.5c12.1-1,20.2,16.1,9.6,27.7
											c-11.2,12.1-34.3,6-35.3-14.1c-1-19.9,17.1-29.7,32.7-26.1c4.3,1,5.5,1.1,7.1,1c-0.9,2.1-3.6,4.3-6.4,3.1
											c-0.2,2-2.9,3.4-4.6,2c2.2-4.1-0.8-5.7-3.4-5.6c-2.4,0.2-12.2,0.6-17.4,8c0,0,1.7,1,3.2,0.5c0.5,2.5-2.2,4.2-3.9,4.9
											c-1.7,0.7-5.5,4.5-5.5,8.6c2.7-1.3,3.4,2.7,1.5,6.6c-1.8,3.9,4.2,11.9,10.1,14.8c5.9,2.9,14.6,1.8,21.2-4.4
											c6.6-6.2,4.7-16.1,1.8-20c-2.5-3.5-6.4-0.3-8.2-2.2c-1.8-1.8-0.5-2.9-0.5-2.9s-5.2-1.5-8.6,2.2c-3.4,3.7-1.7,6,0,6.7
											s-0.8,2.2-0.8,2.2s1,2.7,2.9,1.5c1.8-1.2,2.2-2.9,3-1C780.3,53.6,780.7,51.4,780.7,51.4z"></path>
									</g>
									<path d="M781.5,23.5c0-1.6,2.9-4.7,5.4-3.8c2.5,0.9,5.7,0.1,6.6-0.3c0.7,1.3-1.1,3.1-2.5,3.4c1.6,0.7,2.2,0.9,1.9,1.2
										c-0.3,0.3-1.9,2.1-4.7,0.7C786,23.4,782.2,22.6,781.5,23.5z"></path>
								</g>
								<path d="M753.2,48.6c-0.4,1.2-2.1,10.4,1.9,17.4c1.7,2.8-3.6,1.1-4.5-1.8c-0.9-2.9,1.2-2.4,0.8-3.2
									c-0.4-0.9-1.9-0.8-2.1-1.9s2.1-1.1,1.8-2.7C750.8,54.9,752.3,49.8,753.2,48.6z"></path>
								<path d="M764.8,69.8c2.5,0.7,3.4-4.3,7.2-3.8c3.8,0.4,3.8,6.3-2.2,6.9C764.8,71.6,764.8,69.8,764.8,69.8z"></path>
								<path d="M778.1,74c2.2-0.4,2.1-2.8,3.6-4.9c1.5-2.1,6.3-2,3.1,3.1C782.7,73.4,778.1,74,778.1,74z"></path>
								<path d="M791.6,66.2c1.2-2.4,0.9-3.5-1.6-6c-1.9-2,0.2-4.5,2.5-3.8C794.8,57.1,795.5,61.9,791.6,66.2z"></path>
								<path d="M766.3,36c0.6-0.6,5.4-4.5,9.7-3.5c4.4,1,3.2,5.9,0.4,5.6c-0.2-2-0.7-3.4-1.5-3.5c-0.2,1.1-0.6,2.4-1.9,1
									C771.8,34.3,768,35.2,766.3,36z"></path>
								<path d="M789.6,97.6c-5.6-1.5-5.7,8.2,0.4,7.8c4.6-0.2,9-7.4,2.9-14.6c-7.6-9-19.5-5.6-30.2-16.3l-1-1c0,0-1.2,0.1-0.8,0.8
									c0.4,0.7,6.3,6.3,13.3,8.6c7,2.3,15.8,4.4,18.9,10c2.8,4.8,1.7,7.3,0,9.4c-1.7,2.1-4.1,2.1-5.6,0.4
									c-1.5-1.7-0.4-3.4,0.3-2.6c1.8,1.8,2.8,1.4,3.4,0C791.7,99,790.8,97.9,789.6,97.6z"></path>
								<path d="M759.8,69.4c1.3,1.8-1.6,4.3-2.7,2.7C755.5,69.7,758.7,67.8,759.8,69.4z"></path>
								<path d="M765.2,77.9c3.4,3,3.4,5.5,5,6.6c1.4,0.9,1.1-1.4,1.8-0.8c0.8,0.6,0.5,2.9,2.5,3.7c1.5,0.6,4.8-2.1-0.1-4.8
									C769.7,79.8,766.4,79.3,765.2,77.9z"></path>
							</g>
							<path d="M787.8,88c2,2.2,0.4,5.6,1.5,6.4c1,0.8,3.5-0.6,2.6-3.2C791,88.4,787.8,88,787.8,88z"></path>
						</g>
						<g>
							<path d="M715.1,19.7c-0.9-2.5,2.5-5,3.4-7.2c1.5-3.5-4.5-5.4-5.2,0.7C712.9,17,715.1,19.7,715.1,19.7z"></path>
							<g>
								<g>
									<g>
										<path d="M747.1,17.8c-1.5-3.6-8.4-1.4-6.9,4.4c2.1,8,16.5,7.1,17.5-4.9c1-12.1-16.1-20.2-27.7-9.6
											c-12.1,11.2-6,34.3,14.1,35.3c19.9,1,29.7-17.1,26.1-32.7c-1-4.3-1.1-5.5-1-7.1c-2.1,0.9-4.3,3.6-3.1,6.5
											c-2,0.2-3.4,2.9-2,4.6c4.1-2.2,5.7,0.8,5.6,3.4c-0.2,2.4-0.6,12.2-8,17.4c0,0-1-1.7-0.5-3.2c-2.5-0.5-4.2,2.2-4.9,3.9
											c-0.7,1.7-4.5,5.5-8.6,5.5c1.3-2.7-2.7-3.4-6.6-1.5c-3.9,1.8-11.9-4.2-14.8-10.1c-2.9-5.9-1.8-14.6,4.4-21.2
											c6.2-6.6,16.1-4.7,20-1.8c3.5,2.5,0.3,6.4,2.2,8.2c1.8,1.8,2.9,0.5,2.9,0.5s1.5,5.2-2.2,8.6c-3.7,3.4-6,1.7-6.7,0
											c-0.7-1.7-2.2,0.8-2.2,0.8s-2.7-1-1.5-2.9c1.2-1.8,2.9-2.2,1-3C744.9,18.2,747.1,17.8,747.1,17.8z"></path>
									</g>
									<path d="M775,16.9c1.6,0,4.7-2.9,3.8-5.4c-0.9-2.5-0.1-5.7,0.3-6.6c-1.3-0.7-3.1,1.1-3.4,2.5c-0.7-1.6-0.9-2.2-1.2-1.9
										c-0.3,0.3-2.1,1.9-0.7,4.7C775.1,12.5,775.9,16.3,775,16.9z"></path>
								</g>
								<path d="M749.9,45.3c-1.2,0.4-10.4,2.1-17.4-1.9c-2.8-1.7-1.1,3.6,1.8,4.5c2.9,0.9,2.4-1.2,3.2-0.8c0.9,0.4,0.8,1.9,1.9,2.1
									c1.1,0.2,1.1-2.1,2.7-1.8C743.5,47.7,748.7,46.2,749.9,45.3z"></path>
								<path d="M728.7,33.7c-0.7-2.5,4.3-3.4,3.8-7.2c-0.4-3.8-6.3-3.8-6.9,2.2C726.9,33.7,728.7,33.7,728.7,33.7z"></path>
								<path d="M724.5,20.4c0.4-2.2,2.8-2.1,4.9-3.6c2.1-1.5,2-6.3-3.1-3.1C725.1,15.8,724.5,20.4,724.5,20.4z"></path>
								<path d="M732.2,6.8c2.4-1.2,3.5-0.9,6,1.6c2,1.9,4.5-0.2,3.8-2.5C741.4,3.7,736.6,2.9,732.2,6.8z"></path>
								<path d="M762.5,32.1c0.6-0.6,4.5-5.4,3.5-9.7c-1-4.4-5.9-3.2-5.6-0.4c2,0.2,3.4,0.7,3.5,1.5c-1.1,0.2-2.4,0.6-1,1.9
									C764.1,26.7,763.2,30.5,762.5,32.1z"></path>
								<path d="M700.9,8.9c1.5,5.6-8.2,5.7-7.8-0.4c0.2-4.6,7.4-9,14.6-2.9c9,7.6,5.6,19.5,16.3,30.2l1,1c0,0-0.1,1.2-0.8,0.8
									c-0.7-0.4-6.3-6.3-8.6-13.3c-2.3-7-4.4-15.8-10-18.9c-4.8-2.8-7.3-1.7-9.4,0c-2.1,1.7-2.1,4.1-0.4,5.6
									c1.7,1.5,3.4,0.4,2.6-0.3c-1.8-1.8-1.4-2.8,0-3.4C699.4,6.7,700.5,7.6,700.9,8.9z"></path>
								<path d="M729.1,38.6c-1.8-1.3-4.3,1.6-2.7,2.7C728.7,43,730.7,39.8,729.1,38.6z"></path>
								<path d="M720.6,33.2c-3-3.4-5.5-3.4-6.5-5c-0.9-1.4,1.4-1.1,0.8-1.8c-0.6-0.8-2.9-0.5-3.7-2.5c-0.6-1.5,2.1-4.8,4.8,0.1
									C718.6,28.8,719.2,32.1,720.6,33.2z"></path>
							</g>
							<path d="M710.5,10.6c-2.2-2-5.6-0.4-6.4-1.5c-0.8-1,0.6-3.5,3.2-2.6C710.1,7.5,710.5,10.6,710.5,10.6z"></path>
						</g>
					</g>
				</g>
			</g>
			<g>
				<g>
					<path d="M784.3,491.6c0.9,0.4,0.2-4.3,2.5-3.4c2.2,0.9,4.7,2.9,8.3,2.5c0.4-3.6-1.6-6-2.5-8.3c-0.9-2.2,3.8-1.6,3.4-2.5
						c-0.4-0.9-3.1-4-6.3-3.1c-3.1,0.9-7.2,0-8.7-1.6c-1.6-1.6-1.3-3.1-2.2-4c-0.9-0.9-5.8-2.7-5.8-2.7s1.8,4.9,2.7,5.8
						c0.9,0.9,2.5,0.7,4,2.2c1.6,1.6,2.5,5.6,1.6,8.7C780.3,488.4,783.4,491.1,784.3,491.6z M785,484c0.4-1.5-0.4-3.7-0.4-3.7
						s2.3,0.8,3.7,0.4c1.5-0.4,1.7,0.5,1.4,0.8c-0.3,0.3-0.7,1.5-0.1,1.8c0.6,0.3,1.2,2.1,0.7,2.8c-0.7,0.4-2.5-0.1-2.8-0.7
						c-0.3-0.6-1.5-0.2-1.8,0.1C785.5,485.7,784.6,485.4,785,484z"></path>
					<g>
						<g>
							<path d="M778.8,410.7c2.5-0.9,5,2.5,7.2,3.4c3.5,1.5,5.4-4.5-0.7-5.2C781.5,408.5,778.8,410.7,778.8,410.7z"></path>
							<g>
								<g>
									<g>
										<path d="M780.7,442.7c3.6-1.5,1.4-8.4-4.4-6.9c-8,2.1-7.1,16.5,4.9,17.5c12.1,1,20.2-16.1,9.6-27.7
											c-11.2-12.1-34.3-6-35.3,14.1c-1,19.9,17.1,29.7,32.7,26.1c4.3-1,5.5-1.1,7.1-1c-0.9-2.1-3.6-4.3-6.4-3.1
											c-0.2-2-2.9-3.4-4.6-2c2.2,4.1-0.8,5.7-3.4,5.6c-2.4-0.2-12.2-0.6-17.4-8c0,0,1.7-1,3.2-0.5c0.5-2.5-2.2-4.2-3.9-4.9
											c-1.7-0.7-5.5-4.5-5.5-8.6c2.7,1.3,3.4-2.7,1.5-6.6c-1.8-3.9,4.2-11.9,10.1-14.8c5.9-2.9,14.6-1.8,21.2,4.4
											c6.6,6.2,4.7,16.1,1.8,20c-2.5,3.5-6.4,0.3-8.2,2.2c-1.8,1.8-0.5,2.9-0.5,2.9s-5.2,1.5-8.6-2.2c-3.4-3.7-1.7-6,0-6.7
											c1.7-0.7-0.8-2.2-0.8-2.2s1-2.7,2.9-1.5c1.8,1.2,2.2,2.9,3,1C780.3,440.5,780.7,442.7,780.7,442.7z"></path>
									</g>
									<path d="M781.5,470.6c0,1.6,2.9,4.7,5.4,3.8c2.5-0.9,5.7-0.1,6.6,0.3c0.7-1.3-1.1-3.1-2.5-3.4c1.6-0.7,2.2-0.9,1.9-1.2
										c-0.3-0.3-1.9-2.1-4.7-0.7C786,470.7,782.2,471.5,781.5,470.6z"></path>
								</g>
								<path d="M753.2,445.5c-0.4-1.2-2.1-10.4,1.9-17.4c1.7-2.8-3.6-1.1-4.5,1.8c-0.9,2.9,1.2,2.4,0.8,3.2
									c-0.4,0.9-1.9,0.8-2.1,1.9c-0.2,1.1,2.1,1.1,1.8,2.7C750.8,439.1,752.3,444.3,753.2,445.5z"></path>
								<path d="M764.8,424.3c2.5-0.7,3.4,4.3,7.2,3.8c3.8-0.4,3.8-6.3-2.2-6.9C764.8,422.5,764.8,424.3,764.8,424.3z"></path>
								<path d="M778.1,420.1c2.2,0.4,2.1,2.8,3.6,4.9c1.5,2.1,6.3,2,3.1-3.1C782.7,420.7,778.1,420.1,778.1,420.1z"></path>
								<path d="M791.6,427.8c1.2,2.4,0.9,3.5-1.6,6c-1.9,2,0.2,4.5,2.5,3.8C794.8,437,795.5,432.2,791.6,427.8z"></path>
								<path d="M766.3,458.1c0.6,0.6,5.4,4.5,9.7,3.5c4.4-1,3.2-5.9,0.4-5.6c-0.2,2-0.7,3.4-1.5,3.5c-0.2-1.1-0.6-2.4-1.9-1
									C771.8,459.7,768,458.8,766.3,458.1z"></path>
								<path d="M789.6,396.5c-5.6,1.5-5.7-8.2,0.4-7.8c4.6,0.2,9,7.4,2.9,14.6c-7.6,9-19.5,5.6-30.2,16.3l-1,1c0,0-1.2-0.1-0.8-0.8
									c0.4-0.7,6.3-6.3,13.3-8.6c7-2.3,15.8-4.4,18.9-10c2.8-4.8,1.7-7.3,0-9.4c-1.7-2.1-4.1-2.1-5.6-0.4
									c-1.5,1.7-0.4,3.4,0.3,2.6c1.8-1.8,2.8-1.4,3.4,0C791.7,395,790.8,396.1,789.6,396.5z"></path>
								<path d="M759.8,424.7c1.3-1.8-1.6-4.3-2.7-2.7C755.5,424.3,758.7,426.3,759.8,424.7z"></path>
								<path d="M765.2,416.2c3.4-3,3.4-5.5,5-6.5c1.4-0.9,1.1,1.4,1.8,0.8c0.8-0.6,0.5-2.9,2.5-3.7c1.5-0.6,4.8,2.1-0.1,4.8
									C769.7,414.2,766.4,414.8,765.2,416.2z"></path>
							</g>
							<path d="M787.8,406.1c2-2.2,0.4-5.6,1.5-6.4c1-0.8,3.5,0.6,2.6,3.2C791,405.7,787.8,406.1,787.8,406.1z"></path>
						</g>
						<g>
							<path d="M715.1,474.4c-0.9,2.5,2.5,5,3.4,7.2c1.5,3.5-4.5,5.4-5.2-0.7C712.9,477.1,715.1,474.4,715.1,474.4z"></path>
							<g>
								<g>
									<g>
										<path d="M747.1,476.3c-1.5,3.6-8.4,1.4-6.9-4.4c2.1-8,16.5-7.1,17.5,4.9c1,12.1-16.1,20.2-27.7,9.6
											c-12.1-11.2-6-34.3,14.1-35.3c19.9-1,29.7,17.1,26.1,32.7c-1,4.3-1.1,5.5-1,7.1c-2.1-1-4.3-3.6-3.1-6.4
											c-2-0.2-3.4-2.9-2-4.6c4.1,2.2,5.7-0.8,5.6-3.4c-0.2-2.4-0.6-12.2-8-17.4c0,0-1,1.7-0.5,3.2c-2.5,0.5-4.2-2.2-4.9-3.9
											c-0.7-1.7-4.5-5.5-8.6-5.5c1.3,2.7-2.7,3.4-6.6,1.5c-3.9-1.8-11.9,4.2-14.8,10.1c-2.9,5.9-1.8,14.6,4.4,21.2
											c6.2,6.6,16.1,4.7,20,1.8c3.5-2.5,0.3-6.4,2.2-8.2c1.8-1.8,2.9-0.5,2.9-0.5s1.5-5.2-2.2-8.6c-3.7-3.4-6-1.7-6.7,0
											c-0.7,1.7-2.2-0.8-2.2-0.8s-2.7,1-1.5,2.9c1.2,1.8,2.9,2.2,1,3C744.9,475.9,747.1,476.3,747.1,476.3z"></path>
									</g>
									<path d="M775,477.1c1.6,0,4.7,2.9,3.8,5.4c-0.9,2.5-0.1,5.7,0.3,6.6c-1.3,0.7-3.1-1.1-3.4-2.5c-0.7,1.6-0.9,2.2-1.2,1.9
										c-0.3-0.3-2.1-1.9-0.7-4.7C775.1,481.6,775.9,477.8,775,477.1z"></path>
								</g>
								<path d="M749.9,448.8c-1.2-0.4-10.4-2.1-17.4,1.9c-2.8,1.7-1.1-3.6,1.8-4.5c2.9-0.9,2.4,1.2,3.2,0.8
									c0.9-0.4,0.8-1.9,1.9-2.1c1.1-0.2,1.1,2.1,2.7,1.8C743.5,446.4,748.7,447.9,749.9,448.8z"></path>
								<path d="M728.7,460.4c-0.7,2.5,4.3,3.4,3.8,7.2c-0.4,3.8-6.3,3.8-6.9-2.2C726.9,460.4,728.7,460.4,728.7,460.4z"></path>
								<path d="M724.5,473.7c0.4,2.2,2.8,2.1,4.9,3.6c2.1,1.5,2,6.3-3.1,3.1C725.1,478.3,724.5,473.7,724.5,473.7z"></path>
								<path d="M732.2,487.2c2.4,1.2,3.5,0.9,6-1.6c2-1.9,4.5,0.2,3.8,2.5C741.4,490.4,736.6,491.2,732.2,487.2z"></path>
								<path d="M762.5,461.9c0.6,0.6,4.5,5.4,3.5,9.7c-1,4.4-5.9,3.2-5.6,0.4c2-0.2,3.4-0.7,3.5-1.5c-1.1-0.2-2.4-0.6-1-1.9
									C764.1,467.4,763.2,463.6,762.5,461.9z"></path>
								<path d="M700.9,485.2c1.5-5.6-8.2-5.7-7.8,0.4c0.2,4.6,7.4,9,14.6,2.9c9-7.6,5.6-19.5,16.3-30.2l1-1c0,0-0.1-1.2-0.8-0.8
									c-0.7,0.4-6.3,6.3-8.6,13.3c-2.3,7-4.4,15.8-10,18.9c-4.8,2.8-7.3,1.7-9.4,0c-2.1-1.7-2.1-4.1-0.4-5.6
									c1.7-1.5,3.4-0.4,2.6,0.3c-1.8,1.8-1.4,2.8,0,3.4C699.4,487.3,700.5,486.4,700.9,485.2z"></path>
								<path d="M729.1,455.4c-1.8,1.3-4.3-1.6-2.7-2.7C728.7,451.1,730.7,454.3,729.1,455.4z"></path>
								<path d="M720.6,460.8c-3,3.4-5.5,3.4-6.5,5c-0.9,1.4,1.4,1.1,0.8,1.8c-0.6,0.8-2.9,0.5-3.7,2.5c-0.6,1.5,2.1,4.8,4.8-0.1
									C718.6,465.3,719.2,462,720.6,460.8z"></path>
							</g>
							<path d="M710.5,483.4c-2.2,2-5.6,0.4-6.4,1.5c-0.8,1,0.6,3.5,3.2,2.6C710.1,486.6,710.5,483.4,710.5,483.4z"></path>
						</g>
					</g>
				</g>
			</g>
		</g>
		<g>
			<rect x="793.8" y="108.6" width="2.2" height="276.9"></rect>
			<rect x="789.8" y="110.6" width="0.5" height="272.9"></rect>
		</g>
	</g>
	<g>
		<g>
			<rect x="110.1" y="2.5" width="579.8" height="2.2"></rect>
			<rect x="112.1" y="8.2" width="575.8" height="0.5"></rect>
		</g>
	</g>
</g>
</svg>