<!--?xml version="1.0" encoding="utf-8"?-->
<!-- Generator: Adobe Illustrator 22.1.0, SVG Export Plug-In . SVG Version: 6.00 Build 0)  -->
<svg version="1.1" id="_x35_" xmlns="http://www.w3.org/2000/svg" xmlns:xlink="http://www.w3.org/1999/xlink" x="0px" y="0px" viewBox="0 0 800 630.3" style="enable-background:new 0 0 800 630.3;" xml:space="preserve" preserveAspectRatio="none">
<style type="text/css">
	.st0{fill:#383838;}
</style>
<g>
	<path class="st0" d="M377,154.1c0.9-2,1.8-4.6,2.3-7.8c0.5-3.2,0.8-7-0.6-11.1c-0.7-2-1.9-4.1-3.8-5.6c-1.9-1.5-4.3-2.5-6.9-2.8
		c-5.2-0.6-10.9,1.4-15.7,4.9c-2.4,1.8-4.7,4-6.4,6.7c-1.7,2.7-3,6.2-1.7,9.7c0.6,1.7,1.9,3.1,3.4,4.1c1.5,1.1,3.6,1.5,5.5,0.8
		c3.7-1.5,5.6-5.1,7-8.5c2.8-7.1,3.6-15,3.5-23.2c-0.1-8.1-0.9-16.7-3.6-25.1c-2.5-8.4-6.3-16.8-11.1-24.8c-2.4-4-5.1-8-8.1-11.7
		c-3-3.7-6.3-7.4-10.4-10.4c-2-1.4-4.3-2.8-7.1-2.8c-1.4,0-2.8,0.7-3.7,1.8c-0.9,1.1-1.3,2.5-1.4,3.8c-0.1,5.4,2.3,10.2,4.8,14.7
		c5.4,8.9,12.8,16.9,22.1,22.5c4.6,2.8,9.8,4.9,15.3,5.8c5.5,0.8,11.3,0.2,16.5-2.1c10.4-4.6,18.2-13.8,23.4-23.9
		c5.1-10.3,8.1-21.7,9.1-33.3c0.5-5.8,0.5-11.7-0.2-17.6c-0.4-2.9-1-5.9-2-8.7c-0.5-1.4-1.2-2.8-2.2-4c-1-1.2-2.4-2.4-4.2-2.3
		c-1.8,0-3.2,1.1-4.2,2.3c-1,1.2-1.6,2.6-2.2,4c-1.1,2.8-1.6,5.8-2,8.7c-0.8,5.9-0.7,11.8-0.2,17.6c1,11.6,4,23.1,9.1,33.3
		c5.1,10.2,12.9,19.4,23.4,23.9c5.2,2.2,11,2.9,16.5,2.1c5.5-0.8,10.7-3,15.3-5.8c9.3-5.7,16.7-13.6,22.1-22.5
		c2.5-4.5,4.9-9.3,4.8-14.7c-0.1-1.3-0.5-2.7-1.4-3.8c-0.9-1.1-2.3-1.8-3.7-1.8c-2.8,0-5.1,1.4-7.1,2.8c-4.1,2.9-7.4,6.6-10.4,10.4
		c-3,3.8-5.7,7.7-8.1,11.7c-4.8,8.1-8.6,16.4-11.1,24.8c-2.6,8.4-3.5,17-3.6,25.1c0,8.1,0.7,16.1,3.5,23.2c1.4,3.4,3.4,7,7,8.5
		c1.8,0.7,4,0.2,5.5-0.8c1.5-1,2.8-2.4,3.4-4.1c1.3-3.5-0.1-7.1-1.7-9.7c-1.7-2.7-4-5-6.4-6.7c-4.8-3.5-10.5-5.5-15.7-4.9
		c-2.6,0.3-5,1.3-6.9,2.8c-1.9,1.5-3.1,3.6-3.8,5.6c-1.3,4.1-1.1,7.9-0.6,11.1c0.5,3.2,1.4,5.8,2.3,7.8c1.3,2.9,2.4,4.2,3,4.9
		c0.6,0.6,0.8,0.6,0.8,0.6c0.1-0.1,0-0.1-0.6-0.8c-0.5-0.7-1.5-2-2.7-4.8c-0.8-2-1.6-4.6-2.1-7.7c-0.5-3.1-0.7-6.9,0.6-10.7
		c0.7-1.9,1.8-3.8,3.5-5.2c1.7-1.4,4-2.3,6.4-2.6c4.9-0.6,10.3,1.3,15,4.7c2.3,1.7,4.5,3.9,6.2,6.4c1.6,2.5,2.8,5.8,1.7,8.8
		c-1.1,2.8-4.3,5.5-7.4,4.4c-3.1-1.1-5.1-4.5-6.4-7.8c-2.7-6.8-3.5-14.7-3.5-22.7c0.1-8.1,0.9-16.5,3.5-24.8
		c2.5-8.3,6.2-16.6,11-24.6c4.8-7.9,10.4-15.9,18.1-21.8c1.9-1.4,4.2-2.6,6.4-2.7c2.3-0.1,4,2,4.1,4.4c0.2,4.8-2.1,9.6-4.6,14
		c-5.2,8.7-12.6,16.6-21.6,22.2c-4.5,2.7-9.5,4.8-14.9,5.6c-5.3,0.8-10.8,0.2-15.8-1.9c-10.1-4.4-17.7-13.4-22.8-23.4
		c-5.1-10.1-8-21.4-9-32.9c-0.5-5.8-0.5-11.6,0.2-17.4c0.4-2.9,0.9-5.8,2-8.4c1-2.5,2.6-5.5,5.3-5.6c2.6,0.1,4.3,3.1,5.3,5.6
		c1,2.7,1.6,5.6,2,8.4c0.7,5.8,0.7,11.6,0.2,17.4c-1,11.5-3.9,22.8-9,32.9c-5.1,10-12.7,19-22.8,23.4c-5,2.2-10.6,2.7-15.8,1.9
		c-5.3-0.8-10.3-2.9-14.9-5.6c-9-5.6-16.4-13.4-21.6-22.2c-2.5-4.4-4.8-9.2-4.6-14c0.1-2.3,1.8-4.5,4.1-4.4c2.3,0,4.5,1.3,6.4,2.7
		c7.7,5.9,13.3,13.9,18.1,21.8c4.7,8,8.5,16.2,11,24.6c2.6,8.3,3.4,16.7,3.5,24.8c0,8-0.8,15.9-3.5,22.7c-1.4,3.3-3.3,6.7-6.4,7.8
		c-3.1,1-6.4-1.7-7.4-4.4c-1.1-3,0.1-6.2,1.7-8.8c1.6-2.6,3.8-4.7,6.2-6.4c4.6-3.4,10.1-5.3,15-4.7c2.4,0.3,4.7,1.2,6.4,2.6
		c1.7,1.4,2.8,3.3,3.5,5.2c1.3,3.9,1,7.6,0.6,10.7c-0.5,3.1-1.3,5.7-2.1,7.7c-1.2,2.8-2.2,4.2-2.7,4.8c-0.5,0.6-0.6,0.7-0.6,0.8
		c0,0,0.2,0.1,0.8-0.6C374.7,158.3,375.8,157,377,154.1z"></path>
	<path class="st0" d="M373.3,104.1c1.3-1.3,3.1-3.5,4.5-6.8c1.4-3.3,2.2-7.7,2-12.7c-0.3-5-1.4-10.8-4.3-16.5
		c-0.7-1.4-1.6-2.8-2.6-4.2c-1.1-1.3-2.3-2.7-4.2-3.3c-0.9-0.3-2.1-0.2-3,0.4c-0.8,0.5-1.5,1.3-2,2.1c-1,1.7-1.2,3.7-1.1,5.6
		c0.8,7.7,5.1,14.7,9.9,21.5c4.9,6.8,10.8,13.3,17.2,19.7c6.4,6.3,12.2,13.9,15.4,22.9c1.5,4.5,2.4,9.3,1.9,14.1
		c-0.3,2.4-0.9,4.7-2.1,6.8c-0.6,1-1.4,1.9-2.3,2.6c-0.9,0.6-2.5,1.1-1.9,0.6l0,0.2l-0.1,0l-0.4-0.1l-0.8-0.3c-0.5-0.2-1-0.6-1.4-1
		c-0.8-0.8-1.5-1.8-2-2.8c-1.1-2.1-1.6-4.5-1.7-6.9c-0.3-4.8,0.6-9.6,2.2-14c3.3-8.9,9.2-16.3,15.6-22.5
		c6.4-6.3,12.2-12.9,17.1-19.6c2.4-3.4,4.6-6.8,6.3-10.4c1.7-3.5,3.1-7.2,3.3-11.1c0.1-1.9-0.2-3.9-1.3-5.5c-0.5-0.8-1.2-1.5-2.1-2
		c-0.9-0.5-2.1-0.5-3-0.1c-3.5,1.7-5.1,4.8-6.6,7.6c-2.8,5.7-3.9,11.4-4.2,16.4c-0.2,5,0.6,9.4,2,12.6c1.4,3.3,3.1,5.5,4.5,6.8
		c1.9,1.9,2.2,1.8,2.3,1.7c0.1-0.1-0.1-0.2-1.8-2.1c-1.2-1.3-2.9-3.5-4.1-6.7c-1.3-3.2-2-7.4-1.8-12.3c0.3-4.9,1.4-10.5,4.1-16
		c1.4-2.6,3.1-5.7,5.9-7c1.4-0.7,2.8,0.3,3.7,1.6c0.9,1.3,1.2,3.1,1.1,4.8c-0.1,3.5-1.5,7.1-3.2,10.6c-1.7,3.5-3.8,6.9-6.2,10.2
		c-4.8,6.7-10.6,13.2-16.9,19.5c-6.5,6.3-12.5,13.9-15.9,23c-1.7,4.5-2.7,9.5-2.3,14.5c0.2,2.5,0.7,5,1.9,7.3
		c0.6,1.2,1.3,2.2,2.3,3.2c0.5,0.5,1,0.9,1.7,1.2l1,0.4l0.5,0.1l0.8,0.1c0.2-0.9-0.3-0.5-0.6-0.6h-0.5l-0.2,0l0.1,0.3
		c0,0.4,0.5,0.1,0.7,0.1l0.5-0.1c0.7-0.2,1.3-0.5,1.9-0.9c1.1-0.8,2-1.8,2.6-2.9c1.3-2.3,2-4.8,2.3-7.3c0.5-5-0.4-10-1.9-14.6
		c-3.3-9.2-9.2-17-15.7-23.3c-6.4-6.3-12.3-12.8-17.1-19.5c-4.7-6.7-9-13.7-9.7-20.9c-0.1-1.8,0.1-3.5,1-4.9c0.9-1.4,2.2-2.5,3.6-2
		c2.9,1.1,4.7,4.3,6.1,6.9c2.8,5.5,3.9,11.2,4.2,16c0.3,4.9-0.5,9.2-1.8,12.4c-1.2,3.2-2.9,5.4-4.1,6.7c-1.8,1.9-2,1.9-1.8,2.1
		C371.1,105.9,371.4,105.9,373.3,104.1z"></path>
	<path class="st0" d="M140.6,180.9c0.4,1.9-0.5,4.6-2.5,6.7c-1,1.1-2.3,2-4,2.2c-1.6,0.2-3.5-0.2-5-1.3c-3.2-2.1-4.9-6.9-2.8-11.2
		c0.8-2.2,2.2-4.3,4.2-5.8c2-1.5,4.6-2.3,7.3-2.3c5.4,0,11.3,3,14.8,8.1c3.6,5.1,4.2,12.4,1.7,18.8c-2.4,6.5-7,12.6-12.7,17.6
		c-5.8,5-13,8.8-20.8,11.5c-15.6,5.3-34.2,6-52,0.7c-17.9-5.1-34.9-16.8-46.7-33.4c-12-16.4-17.9-37.9-16.7-59.4
		c0.6-10.8,3-21.6,7.4-31.7c4.4-10.1,10.9-19.4,19.4-26.7c8.4-7.3,18.7-12.4,29.4-14.9c10.7-2.5,21.7-3.8,32.5-3.8
		c21.7-0.1,42.5,5,61.4,12.4c19,7.5,36.2,17.1,52.1,27c8,4.9,15.5,10,23,14.8c7.5,4.8,14.9,9.2,22.2,13.2c14.6,8,28.9,14.6,42.7,18
		c13.8,3.5,27.4,2.9,37.8-1.9c5.2-2.4,9.3-6.8,9.9-11.9c0.6-5-1.4-9.5-4.2-12.4c-1.4-1.4-3.2-2.5-5.1-2.7c-1.8-0.2-3.5,0-5,0.5
		c-3,0.9-5.2,2.6-6.4,4.4c-1.8,2.6-1.1,4.7-0.7,5.3c0.4,0.8,0.6,0.8,0.6,0.8c0.1-0.1,0-0.1-0.3-0.9c-0.2-0.7-0.8-2.4,0.8-4.8
		c1.2-1.6,3.3-3.2,6.1-4.1c2.8-0.8,6.7-1,9.3,2c2.6,2.7,4.6,7,4,11.7c-0.5,4.7-4.3,8.9-9.3,11.2c-10.1,4.7-23.5,5.3-37.1,1.8
		c-13.7-3.3-27.9-9.9-42.4-17.9c-7.3-4-14.7-8.5-22.2-13.2c-7.5-4.8-15.1-9.9-23.1-14.8c-16-9.9-33.3-19.6-52.3-27.1
		c-19-7.5-40-12.7-61.9-12.5c-10.9,0-21.9,1.3-32.8,3.9C50.5,61.3,40,66.4,31.4,73.9c-8.6,7.4-15.2,16.9-19.7,27.1
		c-4.5,10.2-6.9,21.2-7.5,32.1c-1.2,21.8,4.8,43.5,16.9,60.2c11.9,16.8,29.2,28.7,47.4,33.8c18.2,5.3,36.9,4.6,52.8-0.8
		c7.9-2.7,15.2-6.6,21.2-11.7c5.9-5.1,10.5-11.3,13-18.1c2.6-6.7,1.9-14.4-2-19.8c-3.8-5.4-9.9-8.5-15.7-8.4c-2.9,0-5.7,0.9-7.9,2.6
		c-2.2,1.7-3.6,4-4.4,6.3c-2.2,4.6-0.2,10,3.4,12.2c1.7,1.1,3.8,1.6,5.6,1.3c1.9-0.3,3.3-1.4,4.4-2.5c2.1-2.4,3-5.1,2.4-7.3
		c-0.4-1.6-1.8-2.3-2.7-2.3c-0.9-0.1-1.5,0.1-1.9,0.2c-0.8,0.2-0.9,0.3-0.9,0.4c0,0.1,0.1,0.1,0.9-0.1c0.4-0.1,1-0.2,1.8,0
		C139.2,179,140.4,179.5,140.6,180.9z"></path>
	<path class="st0" d="M180.5,99.9c2.3-0.7,5.9,0.8,8.8,4.3c2.9,3.4,5.4,9.1,3.6,15.4c-0.9,3.1-2.9,6-5.7,8.4
		c-2.7,2.4-6.2,4.5-10.2,5.2c-4,0.7-8.3-0.3-12-2.8c-3.7-2.4-6.8-6.1-9.1-10.3c-4.6-8.4-6.4-19.2-4.4-29.9c1-5.3,2.8-10.7,6.1-15.4
		c3.2-4.6,8-8.3,13.4-10.6c11-4.6,23.8-4.4,36.2-2.2c12.4,2.4,24.8,6.9,36.2,13.4c23.1,13,40.4,33,52.5,53.5
		c6.1,10.3,11,20.7,15.4,30.8l6.3,14.8c2.1,4.8,4,9.5,7,13.6c3,4,7.1,7.1,11.7,8.1c4.6,1.1,9.4,0.1,12.9-2.4
		c3.6-2.4,5.9-6.3,6.2-10.2c0.2-3.8-0.3-7.6-2.3-10.5c-2-2.9-5.6-4-8.5-3.7c-2.9,0.3-5.7,1.4-6.9,3.8c-1.2,2.2-1.1,4.5-0.4,6.3
		c0.7,1.8,2.1,2.8,3.3,3.2c1.8,0.5,2.8,0.3,3.2,0.3c0.5-0.1,0.5-0.2,0.5-0.2c0-0.1-0.1-0.1-0.5-0.1c-0.5,0-1.4,0.1-3-0.4
		c-1.1-0.4-2.3-1.3-2.9-2.9c-0.6-1.5-0.6-3.7,0.4-5.6c1-2,3.5-3,6.2-3.3c2.7-0.2,5.8,0.7,7.6,3.3c3.4,5.1,3.5,14.6-3.6,19.2
		c-3.3,2.3-7.7,3.2-12,2.2c-4.3-0.9-8.2-3.8-11.1-7.6c-2.9-3.8-4.8-8.6-6.9-13.3l-6.3-14.8c-4.4-10.1-9.3-20.6-15.5-31
		c-12.1-20.7-29.6-40.9-53-54c-11.6-6.6-24-11.2-36.6-13.5c-12.5-2.3-25.6-2.5-36.9,2.3c-5.6,2.4-10.5,6.2-13.9,11.1
		c-3.4,4.8-5.2,10.4-6.3,15.8c-2,11-0.3,22,4.6,30.7c2.4,4.3,5.6,8.1,9.5,10.6c3.9,2.5,8.6,3.6,12.8,2.9c4.3-0.7,7.8-3,10.7-5.5
		c2.9-2.5,5-5.6,6-8.9c1.9-6.7-0.9-12.7-4-16.2c-3.1-3.6-7.1-5.1-9.6-4.2c-1.8,0.6-2.3,1.6-2.6,2c-0.3,0.4-0.2,0.5-0.2,0.5
		c0.1,0,0.1,0,0.4-0.3C178.4,101.2,178.9,100.4,180.5,99.9z"></path>
	<path class="st0" d="M186.9,113.1c2.1-1,6-0.9,10,1.3c2,1.1,4,2.7,5.5,5c1.5,2.3,2.3,5.3,1.3,8.4c-1.9,5.9-8.6,11.8-16.8,11.3
		c-8.1-0.4-16.1-6.8-19.5-15.8c-3.6-9-2.5-20,2-29.8c2.3-4.9,5.8-9.4,10.4-12.6c4.6-3.2,10.3-5.1,16.1-5.8c11.8-1.3,24.2,1.4,36,5.7
		c11.8,4.4,23.6,10.3,33.9,18.5c10.3,8.1,18.8,18.2,25.6,28.8c6.8,10.7,12,22,16.8,32.9c2.4,5.5,4.7,10.9,7.1,16.1
		c2.5,5.2,4.8,10.4,8.3,14.8c3.5,4.4,8.5,7.5,13.7,8.5c5.2,1,10.6,0.2,15.1-2c4.5-2.2,8.1-6,9.6-10.5c0.7-2.2,0.9-4.6,0.5-6.8
		c-0.3-2.2-0.9-4.3-1.8-6.2c-1.7-3.9-4.7-7.1-8.2-8.7c-3.5-1.6-7.4-1.8-10.7-0.9c-6.8,1.7-10.2,8.6-8.8,13.3c0.6,2.4,2,4.2,3.6,5.2
		c1.6,1,3.4,1.1,4.6,0.7c1.8-0.6,2.4-1.4,2.7-1.7c0.3-0.4,0.3-0.4,0.3-0.5c-0.1-0.1-0.1-0.1-0.5,0.2c-0.4,0.3-1,1-2.6,1.4
		c-1.1,0.3-2.6,0.2-4.1-0.7c-1.4-0.9-2.7-2.6-3.2-4.8c-1.2-4.3,1.8-10.6,8.2-12.1c3.1-0.8,6.7-0.7,9.9,0.9c3.3,1.5,6.1,4.4,7.7,8.1
		c1.5,3.7,2.7,8.1,1.3,12.3c-1.3,4.2-4.7,7.7-9,9.8c-4.2,2.1-9.4,3-14.4,2c-5-0.9-9.7-3.9-13.1-8c-3.4-4.2-5.7-9.4-8.2-14.6
		c-2.4-5.2-4.7-10.6-7.1-16.1c-4.8-11-10-22.3-16.9-33.1c-6.8-10.8-15.4-20.9-25.9-29.2c-10.4-8.3-22.3-14.2-34.2-18.6
		c-12-4.3-24.5-7.1-36.6-5.8c-6,0.7-11.9,2.6-16.7,6c-4.8,3.4-8.5,8.1-10.8,13.1c-4.6,10.1-5.7,21.5-2,30.8
		c3.6,9.3,11.9,16,20.6,16.4c4.3,0.3,8.4-1.2,11.4-3.6c3-2.4,5.4-5.3,6.3-8.7c1-3.4,0.1-6.8-1.6-9.2c-1.6-2.4-3.8-4.1-5.9-5.2
		c-4.2-2.2-8.3-2.2-10.6-1c-1.6,0.8-2.2,1.7-2.4,2.1c-0.3,0.4-0.2,0.5-0.2,0.5c0.1,0,0.1,0,0.4-0.3
		C184.8,114.6,185.4,113.8,186.9,113.1z"></path>
	<path class="st0" d="M78.7,103c1.7-1.2,5.4-2.3,9-0.1c1.7,1.1,3,3.2,3,5.8c0,2.5-0.7,5.4-2.6,7.6c-4,4.5-12,4.9-19,2.2
		c-7-2.6-13.8-9.1-15.4-17.9c-1.2-8.8-0.1-18.9,5.1-27.6C64,64,73.4,57.9,83.9,54.5c10.5-3.4,22.2-4.6,33.9-4.6
		c11.8,0.1,23.7,2.9,35.3,7c23.1,8.3,43.8,20.8,62.6,32.5c18.9,11.9,36,23.6,51.9,32.6c15.7,9.2,30.9,14.8,43.3,15.7
		c6.2,0.5,11.6-0.4,15.7-2.2c4-1.8,6.5-4.3,8-6.1c2-2.6,1.9-2.9,1.8-3c-0.2-0.1-0.2,0.1-2.2,2.6c-1.5,1.7-3.9,4-7.9,5.7
		c-3.9,1.7-9.2,2.5-15.2,2c-12.2-1-27.2-6.4-42.8-15.7c-15.8-9-32.9-20.7-51.8-32.6c-18.9-11.8-39.6-24.3-62.9-32.7
		c-11.6-4.1-23.7-6.9-35.7-7c-11.9,0-23.6,1.2-34.3,4.7c-10.6,3.4-20.4,9.7-25.7,18.9c-2.7,4.5-4.3,9.4-5,14.2
		c-0.7,4.9-1,9.6-0.1,14.3c1.7,9.3,8.9,16.1,16.2,18.7c3.7,1.4,7.5,1.9,11.1,1.6c3.5-0.3,6.9-1.7,9.1-4.2c2.1-2.5,2.8-5.6,2.8-8.3
		c-0.1-2.8-1.6-5.2-3.5-6.4c-4.1-2.4-8-1-9.8,0.4c-1.3,1-1.8,1.8-2.1,2.2c-0.2,0.4-0.2,0.5-0.1,0.5l0.4-0.3
		C76.9,104.6,77.4,103.8,78.7,103z"></path>
	<path class="st0" d="M104.8,96.5c1.4,2.2,4.3,6.6,5.3,13.5c0.4,3.4,0.3,7.5-1.2,11.6c-1.4,4.1-4.2,8.3-8.3,11.5
		c-8.1,6.6-20.9,8.4-33.2,5.3c-12.2-3.3-24-13.2-27.8-26.8c-2-6.7-1.9-13.9-0.6-20.5c1.3-6.7,3.6-13,7.3-18.2
		c3.7-5.2,8.6-9.1,13.7-11.8c5.2-2.7,10.6-4.3,15.7-5.3c10.3-1.9,19.4-1.5,26.4-0.8c7,0.7,12,1.9,14.6,2.5c1.8,0.4,2,0.4,2,0.3
		c0-0.1,0-0.3-1.8-0.8c-2.5-0.8-7.5-2.1-14.6-2.9c-7.1-0.8-16.3-1.3-26.8,0.6c-5.2,1-10.7,2.6-16.1,5.4c-5.3,2.8-10.4,6.8-14.2,12.2
		c-3.8,5.3-6.2,11.9-7.5,18.6c-1.3,6.8-1.4,14.1,0.7,21.1c4,14.1,16.1,24.3,28.7,27.7c12.6,3.2,25.8,1.3,34.3-5.6
		c4.2-3.4,7.1-7.7,8.6-12c1.5-4.3,1.6-8.6,1.1-12.2c-1.1-7.2-4.3-11.6-5.8-13.7c-1.2-1.5-1.3-1.5-1.4-1.4
		C103.7,94.9,103.8,95,104.8,96.5z"></path>
	<path class="st0" d="M78.1,200.5c-1.3-0.6-3.3-1.8-4.3-4.3c-1-2.5-0.9-6.2,0.9-9.6c1.7-3.4,5.4-6.9,10.4-7.3
		c2.4-0.2,5.1,0.2,7.2,1.8c2.2,1.5,3.8,3.9,4.8,6.6c1.9,5.5,1.4,12.3-2,18c-3.3,5.7-9.9,9.5-17.1,10.1c-7.2,0.6-14.8-0.9-21.9-4
		c-7.1-3.1-13.6-7.9-19.2-13.6c-5.7-5.7-10.4-12.2-14.3-18.9c-4-6.7-7.3-13.6-9-20.7c-3.7-14.2-2.8-28.1-0.5-39.8
		c2.4-11.7,6.3-21.4,10.1-28.4c3.8-7.1,7.5-11.6,9.5-13.9c1.4-1.6,1.5-1.7,1.4-1.8c-0.1-0.1-0.3-0.1-1.8,1.4
		c-2.2,2.1-6.1,6.6-10,13.7c-3.9,7.1-7.9,16.8-10.4,28.7c-2.4,11.8-3.2,25.9,0.5,40.3c1.8,7.2,5.1,14.3,9.2,21
		c4,6.7,8.8,13.3,14.5,19.2c5.7,5.8,12.4,10.7,19.6,13.9c7.2,3.2,15,4.7,22.5,4.1c7.5-0.6,14.5-4.6,18-10.7c3.5-6,4.1-13.2,2-19
		c-1-2.9-2.8-5.5-5.3-7.2c-2.4-1.7-5.4-2.2-8-1.9c-5.4,0.5-9.3,4.3-11.1,8c-1.9,3.7-2,7.7-0.8,10.4c1.2,2.8,3.5,4,4.9,4.5
		c2.1,0.6,2.3,0.5,2.3,0.4C80.3,201.2,80.1,201.3,78.1,200.5z"></path>
	<path class="st0" d="M658.8,180.8c-0.5,2.2,0.4,5,2.5,7.3c1.1,1.1,2.6,2.2,4.4,2.5c1.8,0.3,3.9-0.2,5.6-1.4
		c3.5-2.2,5.4-7.6,3.2-12.2c-0.9-2.3-2.3-4.6-4.5-6.2c-2.2-1.6-5-2.5-7.9-2.5c-5.8,0-11.9,3.1-15.7,8.5c-3.9,5.4-4.4,13.1-1.8,19.8
		c2.5,6.8,7.1,13,13.1,18.1c6,5.1,13.2,9,21.2,11.7c15.9,5.4,34.6,6.1,52.8,0.8c18.2-5.2,35.4-17.1,47.3-33.9
		c12.2-16.7,18.1-38.4,16.9-60.1c-0.6-10.9-3.1-21.8-7.6-32.1c-4.5-10.2-11.1-19.7-19.7-27.1c-8.6-7.5-19-12.6-29.9-15.1
		c-10.8-2.5-21.8-3.8-32.7-3.9c-21.8-0.1-42.9,5-61.9,12.5c-19.1,7.5-36.4,17.2-52.3,27.1c-8,4.9-15.6,10.1-23,14.8
		c-7.5,4.8-14.9,9.2-22.1,13.2c-14.5,8-28.7,14.6-42.4,17.9c-13.6,3.5-27,2.9-37.1-1.8c-5-2.3-8.8-6.4-9.4-11.1
		c-0.6-4.6,1.3-9,3.9-11.7c2.6-3,6.5-2.9,9.3-2.1c2.9,0.8,5,2.4,6.2,4.1c1.7,2.4,1.1,4.2,0.9,4.9c-0.3,0.7-0.4,0.8-0.3,0.9
		c0,0,0.2,0,0.6-0.7c0.4-0.7,1.1-2.7-0.7-5.3c-1.2-1.8-3.4-3.5-6.4-4.4c-1.5-0.5-3.2-0.7-5-0.5c-1.9,0.1-3.7,1.2-5.1,2.6
		c-2.8,2.9-4.9,7.4-4.3,12.4c0.5,5.1,4.6,9.6,9.8,12c10.4,4.8,24,5.5,37.8,2c13.9-3.4,28.2-9.9,42.8-17.9c7.3-4,14.7-8.5,22.2-13.2
		c7.5-4.8,15.1-9.9,23-14.8c15.9-9.9,33.2-19.5,52.1-27c18.9-7.5,39.8-12.6,61.5-12.5c10.8,0,21.7,1.3,32.5,3.8
		c10.7,2.5,21,7.5,29.4,14.9c8.5,7.3,15,16.6,19.4,26.7c4.4,10.1,6.8,20.9,7.4,31.7c1.2,21.5-4.7,43-16.7,59.4
		c-11.8,16.6-28.8,28.3-46.7,33.4c-17.9,5.2-36.4,4.5-52.1-0.8c-7.8-2.7-15-6.5-20.8-11.5c-5.8-5-10.3-11.1-12.7-17.6
		c-2.5-6.5-1.9-13.7,1.8-18.8c3.5-5.1,9.4-8.1,14.8-8c2.7,0,5.3,0.8,7.3,2.4c2,1.5,3.4,3.6,4.2,5.8c2,4.3,0.3,9.2-2.9,11.2
		c-1.6,1.1-3.4,1.5-5,1.2c-1.6-0.2-3-1.2-4-2.3c-2-2.2-2.8-4.8-2.4-6.7c0.3-1.4,1.4-1.9,2.2-2c0.8-0.1,1.4,0,1.8,0.1
		c0.8,0.1,0.9,0.1,0.9,0.1c0-0.1,0-0.2-0.9-0.4c-0.4-0.1-1-0.3-2-0.2C660.6,178.5,659.2,179.1,658.8,180.8z"></path>
	<path class="st0" d="M619.6,99.4c-2.6-0.9-6.6,0.7-9.6,4.3c-3,3.5-5.8,9.5-3.9,16.2c0.9,3.3,3.1,6.4,6,8.9
		c2.8,2.5,6.4,4.7,10.7,5.5c4.3,0.7,8.9-0.4,12.8-2.9c3.9-2.6,7.1-6.3,9.5-10.7c4.8-8.7,6.6-19.8,4.5-30.7c-1.1-5.4-2.8-11-6.3-15.8
		c-3.4-4.8-8.3-8.7-13.9-11c-11.3-4.8-24.4-4.5-36.9-2.2c-12.6,2.4-25,7-36.6,13.5c-23.3,13.1-40.8,33.3-52.9,53.9
		c-6.1,10.3-11.1,20.8-15.5,30.9l-6.3,14.8c-2.1,4.7-4,9.5-6.9,13.3c-2.8,3.8-6.7,6.7-11,7.7c-4.3,1-8.7,0.1-12-2.2
		c-3.3-2.2-5.4-5.8-5.8-9.4c-0.2-3.6,0.3-7.2,2.1-9.8c1.8-2.6,4.9-3.6,7.6-3.4c2.7,0.2,5.2,1.3,6.2,3.2c1.1,1.9,1.1,4.1,0.5,5.6
		c-0.6,1.6-1.8,2.5-2.9,3c-1.6,0.6-2.5,0.4-3,0.5c-0.5,0-0.5,0-0.6,0.1c0,0.1,0,0.1,0.5,0.2c0.5,0.1,1.5,0.3,3.2-0.2
		c1.2-0.4,2.7-1.4,3.4-3.2c0.7-1.7,0.8-4.1-0.4-6.3c-1.1-2.3-4-3.5-6.8-3.8c-2.9-0.3-6.5,0.7-8.5,3.6c-2.1,2.9-2.6,6.6-2.4,10.5
		c0.3,3.9,2.6,7.8,6.1,10.2c3.5,2.5,8.3,3.5,12.9,2.4c4.6-1,8.8-4.1,11.8-8c3-4,4.9-8.8,7-13.6l6.3-14.8
		c4.4-10.1,9.3-20.5,15.4-30.8c12-20.5,29.4-40.6,52.5-53.5c11.5-6.5,23.8-11,36.2-13.4c12.4-2.3,25.3-2.5,36.2,2.2
		c5.4,2.3,10.2,6,13.4,10.6c3.3,4.6,5,10.1,6.1,15.4c2,10.7,0.2,21.5-4.4,29.9c-2.3,4.2-5.4,7.8-9.1,10.2c-3.7,2.4-8,3.4-12,2.7
		c-4-0.7-7.4-2.8-10.1-5.2c-2.8-2.4-4.8-5.3-5.7-8.4c-1.8-6.3,0.7-12,3.6-15.4c2.9-3.5,6.6-4.9,8.8-4.2c1.6,0.5,2.1,1.3,2.5,1.6
		c0.3,0.4,0.4,0.4,0.4,0.3c0.1,0,0.1-0.1-0.2-0.6C621.9,100.9,621.4,100,619.6,99.4z"></path>
	<path class="st0" d="M613.3,112.6c-2.3-1.1-6.4-1.2-10.6,1.1c-2.1,1.1-4.3,2.8-5.9,5.2c-1.6,2.4-2.5,5.8-1.5,9.2
		c1,3.3,3.4,6.3,6.4,8.6c3,2.3,7.1,3.8,11.4,3.5c8.7-0.4,17-7.2,20.6-16.5c3.7-9.3,2.6-20.7-2-30.8c-2.3-5-6-9.8-10.8-13.1
		c-4.8-3.4-10.7-5.3-16.7-6c-12.1-1.3-24.6,1.5-36.6,5.8c-11.9,4.4-23.8,10.3-34.2,18.6c-10.4,8.2-19,18.4-25.8,29.1
		c-6.9,10.8-12.1,22.1-16.9,33.1c-2.4,5.5-4.7,10.9-7.1,16.1c-2.5,5.1-4.8,10.4-8.2,14.6c-3.4,4.2-8.1,7.1-13,8.1
		c-5,1-10.1,0.2-14.3-1.9c-4.2-2.1-7.7-5.6-9-9.8c-1.4-4.2-0.3-8.6,1.2-12.3c1.6-3.7,4.4-6.6,7.7-8.2c3.3-1.5,6.9-1.7,9.9-0.9
		c6.4,1.6,9.4,7.8,8.2,12.1c-0.5,2.2-1.7,3.9-3.2,4.8c-1.4,1-3,1-4.1,0.8c-1.6-0.5-2.3-1.2-2.7-1.4c-0.4-0.3-0.5-0.3-0.5-0.3
		c-0.1,0.1-0.1,0.1,0.3,0.5c0.3,0.3,1,1.1,2.7,1.7c1.2,0.4,3,0.4,4.6-0.7c1.6-1,3-2.8,3.6-5.2c0.6-2.3,0.3-5.2-1.2-7.7
		c-1.5-2.5-4.2-4.7-7.5-5.6c-3.3-0.9-7.1-0.7-10.7,0.9c-3.5,1.6-6.6,4.7-8.3,8.6c-0.9,1.9-1.5,4-1.8,6.2c-0.4,2.2-0.3,4.6,0.5,6.8
		c1.4,4.5,5.1,8.3,9.5,10.5c4.5,2.3,9.9,3.1,15.1,2.1c5.3-1,10.2-4.1,13.8-8.4c3.5-4.4,5.8-9.6,8.3-14.8c2.4-5.2,4.7-10.7,7.1-16.2
		c4.8-11,9.9-22.3,16.8-32.9c6.8-10.7,15.3-20.7,25.6-28.9c10.3-8.2,22.1-14.1,33.9-18.5c11.8-4.3,24.2-7,36-5.7
		c5.9,0.7,11.5,2.6,16.1,5.8c4.6,3.2,8.1,7.8,10.4,12.7c4.5,9.8,5.5,20.9,1.9,29.8c-3.4,8.9-11.4,15.4-19.6,15.7
		c-8.2,0.5-14.8-5.5-16.7-11.4c-0.9-3-0.1-6.1,1.4-8.4c1.5-2.3,3.5-3.9,5.5-5c4-2.2,7.8-2.2,9.9-1.2c1.5,0.7,2.1,1.5,2.4,1.8
		c0.3,0.4,0.4,0.4,0.4,0.3c0.1,0,0.1-0.1-0.2-0.6C615.5,114.3,614.9,113.4,613.3,112.6z"></path>
	<path class="st0" d="M721.6,102.5c-1.8-1.3-5.7-2.7-9.8-0.3c-2,1.2-3.5,3.6-3.5,6.4c0,2.7,0.7,5.8,2.8,8.3c2.1,2.5,5.5,3.8,9.1,4.2
		c3.6,0.3,7.4-0.2,11.1-1.6c7.3-2.7,14.5-9.4,16.2-18.8c0.8-4.6,0.6-9.4-0.1-14.3c-0.7-4.8-2.4-9.8-5.1-14.2
		c-5.3-9.1-15.1-15.4-25.7-18.8c-10.7-3.5-22.4-4.7-34.3-4.6c-12,0.1-24,2.9-35.6,7c-23.3,8.4-44,20.8-62.9,32.6
		c-18.9,11.9-36,23.6-51.8,32.6c-15.6,9.2-30.6,14.7-42.8,15.7c-6.1,0.5-11.4-0.3-15.3-2c-3.9-1.7-6.4-4-7.9-5.7
		c-2.1-2.5-2.1-2.7-2.3-2.6c-0.1,0.1-0.2,0.3,1.8,3c1.4,1.8,3.9,4.3,8,6.1c4,1.8,9.5,2.7,15.7,2.2c12.4-0.9,27.6-6.4,43.3-15.6
		c15.9-9,33-20.7,51.9-32.6c18.9-11.8,39.5-24.2,62.7-32.6c11.6-4.1,23.5-6.9,35.3-7c11.8,0,23.4,1.2,33.9,4.6
		c10.5,3.4,19.9,9.5,25.1,18.3c5.1,8.7,6.3,18.9,5,27.6c-1.6,8.9-8.4,15.3-15.4,17.9c-6.9,2.7-15,2.2-19-2.3
		c-1.9-2.2-2.6-5.1-2.6-7.6c0-2.5,1.3-4.7,3.1-5.7c3.6-2.2,7.3-1,9,0.1c1.3,0.9,1.8,1.6,2.1,1.9l0.4,0.3c0.1,0,0.1-0.1-0.1-0.5
		C723.4,104.3,723,103.5,721.6,102.5z"></path>
	<path class="st0" d="M694.7,96.2c-1.5,2.1-4.7,6.5-5.8,13.7c-0.5,3.6-0.4,7.8,1.1,12.1c1.5,4.3,4.4,8.7,8.6,12
		c8.5,6.9,21.7,8.8,34.3,5.6c12.6-3.4,24.7-13.6,28.7-27.7c2-7,2-14.3,0.7-21c-1.3-6.8-3.7-13.3-7.5-18.6
		c-3.8-5.4-8.9-9.4-14.2-12.2c-5.3-2.8-10.8-4.4-16-5.4c-10.5-1.9-19.7-1.4-26.8-0.6c-7.1,0.8-12.1,2.1-14.6,2.9
		c-1.8,0.6-1.9,0.7-1.8,0.8c0,0.1,0.2,0.1,2-0.3c2.5-0.6,7.5-1.7,14.6-2.5c7-0.7,16.2-1.1,26.4,0.8c5.1,1,10.5,2.5,15.7,5.3
		c5.2,2.7,10.1,6.6,13.8,11.8c3.7,5.2,6,11.5,7.3,18.2c1.3,6.6,1.3,13.8-0.6,20.5c-3.9,13.7-15.7,23.5-27.9,26.8
		c-12.3,3.1-25.2,1.2-33.2-5.4c-4-3.2-6.8-7.3-8.2-11.5c-1.4-4.1-1.6-8.2-1.2-11.6c1-7,3.9-11.4,5.3-13.5c1-1.5,1.1-1.7,1-1.8
		C696,94.7,695.9,94.7,694.7,96.2z"></path>
	<path class="st0" d="M722.1,201c1.4-0.5,3.7-1.7,4.9-4.5c1.2-2.8,1.1-6.7-0.8-10.4c-1.8-3.7-5.7-7.4-11.2-7.9
		c-2.6-0.3-5.6,0.2-8,1.9c-2.5,1.6-4.2,4.3-5.3,7.2c-2.1,5.8-1.5,13,2.1,19c3.5,6.1,10.5,10.1,18,10.7c7.5,0.7,15.3-0.9,22.5-4.1
		c7.2-3.2,13.9-8,19.6-13.9c5.8-5.8,10.5-12.4,14.5-19.1c4.1-6.7,7.4-13.8,9.2-21c3.7-14.4,2.9-28.5,0.5-40.3
		c-2.4-11.8-6.4-21.6-10.3-28.7c-3.9-7.2-7.8-11.7-10-13.8c-1.6-1.5-1.7-1.5-1.8-1.4c-0.1,0.1,0,0.2,1.4,1.8c2,2.2,5.7,6.7,9.5,13.8
		c3.8,7.1,7.7,16.7,10.1,28.4c2.3,11.7,3.1,25.6-0.5,39.8c-1.7,7.1-5,14-9,20.7c-4,6.7-8.7,13.2-14.4,18.9
		c-5.6,5.8-12.2,10.5-19.3,13.6c-7.1,3.1-14.7,4.6-21.9,4c-7.2-0.6-13.8-4.4-17.1-10.1c-3.4-5.7-3.9-12.5-2-18
		c1-2.7,2.6-5.1,4.8-6.6c2.2-1.5,4.8-2,7.2-1.7c4.9,0.4,8.6,3.9,10.3,7.3c1.8,3.5,2,7.1,0.9,9.6c-1,2.5-3,3.8-4.3,4.3
		c-1.9,0.7-2.1,0.7-2.1,0.9C719.8,201.5,720,201.7,722.1,201z"></path>
	<path class="st0" d="M425.4,476.2c-0.9,2-1.8,4.6-2.3,7.8c-0.5,3.2-0.8,7,0.6,11.1c0.7,2,1.9,4.1,3.8,5.6c1.9,1.5,4.3,2.5,6.9,2.8
		c5.2,0.6,10.9-1.4,15.7-4.9c2.4-1.8,4.7-4,6.4-6.7c1.7-2.7,3-6.2,1.7-9.7c-0.6-1.7-1.9-3.1-3.4-4.1c-1.5-1-3.6-1.5-5.5-0.8
		c-3.7,1.5-5.6,5.1-7,8.5c-2.8,7.1-3.6,15-3.5,23.1c0.1,8.1,0.9,16.7,3.6,25.1c2.5,8.4,6.3,16.8,11.1,24.8c2.4,4,5.1,8,8.1,11.7
		c3,3.8,6.3,7.4,10.4,10.4c2,1.4,4.3,2.8,7.1,2.8c1.4,0,2.8-0.7,3.7-1.8c0.9-1.1,1.3-2.5,1.4-3.8c0.2-5.4-2.3-10.2-4.8-14.7
		c-5.3-8.9-12.8-16.9-22.1-22.5c-4.6-2.8-9.8-4.9-15.3-5.8c-5.5-0.8-11.3-0.2-16.5,2.1c-10.4,4.6-18.2,13.8-23.4,23.9
		c-5.1,10.3-8.1,21.7-9.1,33.3c-0.5,5.8-0.5,11.7,0.2,17.6c0.4,2.9,1,5.9,2,8.7c0.5,1.4,1.2,2.8,2.2,4c0.9,1.2,2.4,2.4,4.2,2.3
		c1.8,0,3.2-1.1,4.2-2.3c1-1.2,1.6-2.6,2.2-4c1.1-2.8,1.6-5.8,2-8.7c0.7-5.9,0.7-11.8,0.2-17.6c-1-11.6-3.9-23.1-9.1-33.3
		c-5.1-10.2-12.9-19.4-23.4-23.9c-5.2-2.3-11-2.9-16.5-2.1c-5.5,0.8-10.7,3-15.3,5.8c-9.2,5.7-16.7,13.6-22.1,22.5
		c-2.5,4.5-4.9,9.3-4.8,14.7c0.1,1.3,0.5,2.7,1.4,3.8c0.9,1.1,2.3,1.8,3.7,1.8c2.8,0,5.1-1.4,7.1-2.8c4.1-2.9,7.4-6.6,10.4-10.4
		c3-3.8,5.7-7.7,8.1-11.7c4.8-8.1,8.5-16.4,11.1-24.8c2.6-8.4,3.5-17,3.6-25.1c0-8.1-0.7-16.1-3.5-23.1c-1.4-3.4-3.4-7-7-8.5
		c-1.8-0.7-4-0.2-5.5,0.8c-1.5,1-2.8,2.4-3.4,4.1c-1.3,3.5,0.1,7.1,1.7,9.7c1.7,2.7,4,4.9,6.4,6.7c4.8,3.5,10.4,5.5,15.7,4.9
		c2.6-0.3,5-1.3,6.9-2.8c1.9-1.5,3.1-3.6,3.8-5.6c1.3-4.1,1.1-7.9,0.6-11.1c-0.5-3.2-1.4-5.8-2.3-7.8c-1.3-2.9-2.4-4.2-3-4.9
		c-0.7-0.6-0.8-0.6-0.8-0.6c-0.1,0.1,0,0.1,0.6,0.8c0.5,0.7,1.5,2,2.7,4.8c0.8,2,1.6,4.6,2.1,7.7c0.5,3.1,0.7,6.9-0.6,10.7
		c-0.7,1.9-1.8,3.8-3.5,5.2c-1.7,1.4-4,2.3-6.4,2.6c-4.9,0.6-10.3-1.3-15-4.7c-2.3-1.7-4.5-3.9-6.2-6.4c-1.6-2.5-2.8-5.8-1.7-8.8
		c1.1-2.8,4.3-5.5,7.4-4.4c3.1,1.1,5.1,4.5,6.4,7.8c2.7,6.8,3.5,14.7,3.5,22.7c-0.1,8.1-0.9,16.5-3.5,24.8
		c-2.5,8.3-6.2,16.6-11,24.6c-4.8,7.9-10.4,15.9-18.1,21.8c-1.9,1.4-4.2,2.6-6.4,2.7c-2.3,0.1-4-2-4.1-4.4c-0.2-4.8,2.1-9.6,4.6-14
		c5.2-8.7,12.6-16.6,21.6-22.2c4.5-2.7,9.6-4.8,14.9-5.6c5.3-0.8,10.8-0.2,15.8,1.9c10.1,4.4,17.8,13.4,22.8,23.4
		c5.1,10.1,8,21.4,9,32.9c0.5,5.8,0.5,11.6-0.2,17.4c-0.4,2.9-1,5.7-2,8.4c-1,2.5-2.6,5.5-5.3,5.6c-2.6-0.1-4.3-3.1-5.3-5.6
		c-1-2.7-1.6-5.6-2-8.4c-0.7-5.8-0.7-11.6-0.2-17.4c1-11.5,3.9-22.8,9-32.9c5.1-10,12.7-19,22.8-23.4c5-2.2,10.6-2.7,15.8-1.9
		c5.3,0.8,10.3,2.9,14.9,5.6c9,5.5,16.4,13.4,21.6,22.2c2.5,4.4,4.8,9.2,4.6,14c-0.1,2.3-1.8,4.5-4,4.4c-2.3,0-4.5-1.3-6.4-2.7
		c-7.7-5.9-13.3-13.9-18.1-21.8c-4.7-8-8.5-16.2-11-24.6c-2.6-8.3-3.4-16.7-3.5-24.8c0-8,0.8-15.9,3.5-22.7c1.4-3.3,3.3-6.7,6.4-7.8
		c3.1-1,6.4,1.7,7.4,4.4c1.1,3-0.1,6.2-1.7,8.8c-1.7,2.6-3.8,4.7-6.2,6.4c-4.7,3.4-10.1,5.3-15,4.7c-2.4-0.3-4.7-1.2-6.4-2.6
		c-1.7-1.4-2.8-3.3-3.5-5.2c-1.3-3.9-1.1-7.6-0.6-10.7c0.5-3.1,1.3-5.7,2.1-7.7c1.2-2.9,2.2-4.2,2.7-4.8c0.6-0.6,0.6-0.7,0.6-0.8
		c0-0.1-0.2-0.1-0.8,0.6C427.8,471.9,426.7,473.2,425.4,476.2z"></path>
	<path class="st0" d="M429.1,526.2c-1.3,1.3-3.1,3.5-4.5,6.8c-1.4,3.3-2.2,7.7-2,12.7c0.2,5,1.4,10.8,4.3,16.5
		c0.7,1.4,1.6,2.8,2.6,4.2c1.1,1.3,2.3,2.7,4.2,3.3c0.9,0.3,2.1,0.2,3-0.4c0.8-0.5,1.5-1.3,2-2.1c1-1.7,1.2-3.7,1.1-5.6
		c-0.8-7.7-5.1-14.7-9.9-21.5c-4.9-6.8-10.8-13.3-17.2-19.7c-6.4-6.3-12.2-13.9-15.4-22.9c-1.5-4.5-2.4-9.3-1.9-14.1
		c0.3-2.4,0.9-4.7,2.1-6.8c0.6-1,1.4-1.9,2.3-2.6c0.9-0.6,2.5-1.1,1.9-0.6l0-0.2l0.1,0l0.4,0.1l0.8,0.3c0.5,0.2,1,0.6,1.4,1
		c0.8,0.8,1.5,1.8,2,2.8c1.1,2.1,1.6,4.5,1.7,6.9c0.3,4.8-0.6,9.6-2.3,14c-3.3,8.9-9.2,16.3-15.6,22.5c-6.4,6.3-12.2,12.8-17.1,19.6
		c-2.4,3.4-4.6,6.8-6.3,10.4c-1.7,3.6-3.1,7.2-3.3,11.1c-0.1,1.9,0.2,3.9,1.3,5.5c0.5,0.8,1.3,1.5,2.1,2c0.9,0.5,2.1,0.5,3,0.1
		c3.5-1.7,5.1-4.8,6.6-7.6c2.8-5.7,3.9-11.4,4.2-16.4c0.2-5-0.6-9.4-2-12.6c-1.4-3.3-3.1-5.5-4.5-6.8c-1.9-1.9-2.2-1.8-2.3-1.7
		c-0.1,0.1,0,0.2,1.8,2.1c1.2,1.3,2.9,3.5,4.1,6.7c1.3,3.2,2,7.4,1.8,12.3c-0.3,4.9-1.4,10.5-4.1,16c-1.4,2.6-3.1,5.7-5.9,7
		c-1.4,0.7-2.8-0.3-3.7-1.6c-0.9-1.3-1.2-3.1-1.1-4.8c0.1-3.5,1.5-7.1,3.2-10.6c1.7-3.5,3.8-6.9,6.2-10.2
		c4.8-6.7,10.6-13.2,16.9-19.5c6.5-6.3,12.5-13.9,15.9-23c1.7-4.5,2.7-9.5,2.3-14.5c-0.2-2.5-0.7-5-1.9-7.3
		c-0.6-1.1-1.3-2.2-2.3-3.2c-0.5-0.5-1-0.8-1.7-1.2l-1-0.4l-0.5-0.1l-0.8-0.1c-0.2,0.9,0.3,0.5,0.6,0.6h0.5l0.2,0l-0.1-0.4
		c0-0.4-0.5-0.1-0.7-0.1l-0.6,0.1c-0.7,0.2-1.3,0.5-1.9,0.9c-1.1,0.8-2,1.8-2.6,2.9c-1.3,2.2-2,4.8-2.3,7.3c-0.5,5,0.4,10,1.9,14.6
		c3.2,9.2,9.2,17,15.7,23.3c6.4,6.3,12.3,12.8,17.1,19.5c4.7,6.7,9,13.7,9.7,20.9c0.1,1.8-0.1,3.5-1,4.9c-0.9,1.4-2.2,2.5-3.6,1.9
		c-2.9-1.1-4.7-4.3-6.1-6.9c-2.8-5.5-3.9-11.2-4.2-16c-0.3-4.9,0.5-9.2,1.8-12.4c1.2-3.2,2.9-5.4,4.1-6.7c1.8-1.9,2-1.9,1.8-2.1
		C431.3,524.4,431,524.3,429.1,526.2z"></path>
	<path class="st0" d="M659.4,449.3c-0.4-1.9,0.5-4.6,2.5-6.7c1-1.1,2.4-2,4-2.2c1.6-0.2,3.5,0.2,5,1.3c3.2,2.1,4.9,6.9,2.8,11.2
		c-0.8,2.2-2.2,4.3-4.2,5.8c-2,1.5-4.6,2.3-7.3,2.3c-5.4,0-11.2-3-14.8-8.1c-3.6-5.1-4.2-12.4-1.7-18.8c2.4-6.5,7-12.6,12.8-17.6
		c5.8-5,13-8.8,20.8-11.5c15.7-5.3,34.1-6,52-0.7c17.9,5.1,34.9,16.8,46.7,33.4c12,16.4,17.9,37.9,16.7,59.4
		c-0.6,10.8-3,21.6-7.4,31.7c-4.4,10.1-10.9,19.4-19.4,26.7c-8.4,7.3-18.7,12.4-29.4,14.9c-10.7,2.5-21.7,3.8-32.5,3.8
		c-21.6,0.1-42.5-5-61.4-12.4c-19-7.5-36.2-17.1-52.1-27c-8-4.9-15.5-10-23-14.8c-7.5-4.8-14.9-9.2-22.2-13.3
		c-14.6-8-28.9-14.6-42.7-18c-13.8-3.5-27.4-2.9-37.8,1.9c-5.2,2.4-9.3,6.8-9.9,11.9c-0.6,5,1.4,9.5,4.2,12.4
		c1.4,1.4,3.2,2.6,5.1,2.7c1.8,0.2,3.5,0,5-0.5c3-0.9,5.2-2.6,6.4-4.4c1.8-2.6,1.1-4.7,0.7-5.3c-0.4-0.8-0.6-0.8-0.6-0.7
		c-0.1,0,0,0.1,0.3,0.9c0.3,0.7,0.8,2.4-0.8,4.8c-1.2,1.6-3.3,3.2-6.1,4.1c-2.8,0.8-6.7,1-9.3-2c-2.6-2.7-4.6-7-4-11.7
		c0.5-4.7,4.3-8.9,9.3-11.2c10.1-4.7,23.5-5.3,37.1-1.8c13.7,3.3,27.9,9.9,42.4,17.9c7.3,4,14.7,8.5,22.1,13.2
		c7.5,4.8,15.1,9.9,23.1,14.8c16,9.9,33.3,19.6,52.3,27.1c19,7.5,40.1,12.7,61.9,12.5c10.9,0,21.9-1.3,32.8-3.9
		c10.9-2.5,21.3-7.6,29.9-15.1c8.6-7.4,15.2-16.9,19.7-27.1c4.5-10.2,6.9-21.2,7.6-32.1c1.2-21.8-4.8-43.5-16.9-60.2
		c-11.9-16.8-29.2-28.7-47.4-33.8c-18.2-5.3-36.9-4.6-52.8,0.8c-7.9,2.7-15.2,6.6-21.2,11.7c-5.9,5.1-10.5,11.3-13,18.1
		c-2.6,6.7-1.9,14.4,2,19.8c3.8,5.4,9.9,8.5,15.7,8.4c2.9,0,5.7-0.9,7.9-2.6c2.2-1.7,3.6-4,4.4-6.3c2.2-4.6,0.2-10-3.4-12.2
		c-1.7-1.1-3.8-1.6-5.6-1.3c-1.9,0.3-3.3,1.4-4.4,2.5c-2.1,2.4-3,5.1-2.4,7.3c0.4,1.6,1.8,2.3,2.7,2.3c0.9,0.1,1.5-0.1,1.9-0.2
		c0.8-0.2,0.9-0.3,0.8-0.4c0-0.1-0.1-0.1-0.9,0.1c-0.4,0.1-1,0.2-1.8,0C660.8,451.3,659.6,450.7,659.4,449.3z"></path>
	<path class="st0" d="M619.5,530.3c-2.3,0.7-5.9-0.8-8.8-4.3c-2.9-3.4-5.4-9.1-3.5-15.4c0.9-3.1,2.9-6,5.7-8.4
		c2.7-2.4,6.2-4.5,10.2-5.2c4-0.7,8.3,0.3,12,2.8c3.7,2.4,6.8,6.1,9.1,10.3c4.6,8.4,6.4,19.2,4.4,29.9c-1,5.3-2.8,10.7-6.1,15.4
		c-3.2,4.6-8,8.3-13.4,10.6c-11,4.7-23.8,4.5-36.2,2.2c-12.4-2.4-24.8-6.9-36.2-13.4c-23.1-13-40.4-33-52.5-53.5
		c-6.1-10.3-11-20.7-15.4-30.8l-6.3-14.8c-2.1-4.7-4-9.5-7-13.6c-3-4-7.1-7.1-11.7-8.1c-4.6-1.1-9.4-0.1-12.9,2.4
		c-3.6,2.4-5.9,6.3-6.2,10.2c-0.2,3.8,0.3,7.6,2.3,10.5c2,2.9,5.6,4,8.5,3.7c2.8-0.3,5.7-1.4,6.9-3.8c1.2-2.2,1.1-4.5,0.4-6.3
		c-0.7-1.8-2.1-2.8-3.3-3.2c-1.8-0.5-2.8-0.3-3.2-0.3c-0.5,0.1-0.5,0.2-0.5,0.2c0,0.1,0.1,0.1,0.5,0.1c0.5,0,1.4-0.1,3,0.4
		c1.1,0.4,2.3,1.3,2.9,2.9c0.6,1.5,0.6,3.7-0.4,5.6c-1,2-3.5,3-6.2,3.3c-2.7,0.2-5.8-0.7-7.6-3.3c-3.4-5-3.5-14.6,3.6-19.2
		c3.3-2.3,7.7-3.2,12-2.2c4.3,0.9,8.2,3.8,11.1,7.6c2.9,3.8,4.8,8.6,6.9,13.3l6.3,14.8c4.4,10.1,9.3,20.6,15.5,31
		c12.1,20.7,29.6,40.9,53,54c11.6,6.5,24,11.1,36.6,13.5c12.5,2.3,25.6,2.5,36.9-2.3c5.6-2.4,10.5-6.2,13.9-11.1
		c3.4-4.8,5.2-10.4,6.2-15.9c2-11,0.3-22-4.6-30.7c-2.4-4.3-5.6-8.1-9.5-10.6c-3.9-2.5-8.6-3.6-12.8-2.9c-4.3,0.7-7.9,3-10.7,5.5
		c-2.9,2.5-5,5.6-6,8.9c-1.9,6.7,0.9,12.7,4,16.2c3.1,3.6,7.1,5.1,9.6,4.2c1.8-0.6,2.3-1.6,2.6-2c0.3-0.4,0.2-0.5,0.2-0.5
		c-0.1,0-0.1,0-0.4,0.3C621.6,529,621.1,529.9,619.5,530.3z"></path>
	<path class="st0" d="M613.1,517.2c-2.1,1-6,0.9-10-1.3c-2-1.1-4-2.7-5.5-5c-1.5-2.3-2.3-5.3-1.3-8.4c1.9-5.9,8.6-11.8,16.8-11.3
		c8.1,0.4,16.1,6.8,19.5,15.8c3.6,9,2.5,20-2,29.8c-2.3,4.9-5.8,9.4-10.4,12.6c-4.6,3.2-10.3,5.1-16.1,5.8
		c-11.8,1.3-24.2-1.4-36-5.7c-11.8-4.4-23.6-10.3-33.9-18.4c-10.3-8.1-18.8-18.2-25.6-28.9c-6.8-10.7-12-22-16.8-32.9
		c-2.4-5.5-4.7-10.9-7.1-16.1c-2.5-5.2-4.8-10.4-8.3-14.8c-3.5-4.4-8.5-7.5-13.7-8.5c-5.2-1.1-10.6-0.2-15.1,2
		c-4.5,2.2-8.1,6-9.6,10.5c-0.7,2.2-0.9,4.6-0.5,6.8c0.3,2.2,0.9,4.3,1.8,6.3c1.7,3.9,4.7,7,8.2,8.7c3.5,1.6,7.4,1.8,10.7,0.9
		c6.8-1.7,10.2-8.6,8.8-13.3c-0.6-2.4-2-4.2-3.6-5.2c-1.6-1-3.4-1.1-4.6-0.7c-1.8,0.6-2.4,1.4-2.7,1.7c-0.3,0.4-0.3,0.4-0.3,0.5
		c0.1,0.1,0.1,0.1,0.5-0.2c0.4-0.3,1-1,2.6-1.4c1.1-0.3,2.6-0.2,4.1,0.7c1.4,0.9,2.7,2.6,3.2,4.8c1.2,4.3-1.8,10.6-8.2,12.1
		c-3.1,0.8-6.7,0.7-9.9-0.9c-3.3-1.5-6.1-4.4-7.7-8.1c-1.5-3.7-2.7-8.1-1.3-12.3c1.3-4.2,4.7-7.7,9-9.8c4.2-2.1,9.4-3,14.3-2
		c5,0.9,9.7,3.9,13.1,8c3.3,4.2,5.7,9.4,8.2,14.5c2.4,5.2,4.7,10.6,7.1,16.1c4.8,11,10,22.3,16.9,33.1c6.8,10.8,15.4,20.9,25.9,29.2
		c10.4,8.3,22.3,14.2,34.2,18.6c12,4.3,24.5,7.1,36.6,5.8c6-0.7,11.9-2.6,16.7-6c4.8-3.4,8.4-8.1,10.8-13.1
		c4.6-10.1,5.7-21.4,1.9-30.8c-3.6-9.3-12-16-20.6-16.4c-4.3-0.3-8.4,1.2-11.4,3.5c-3,2.4-5.4,5.3-6.3,8.7c-1,3.4-0.1,6.8,1.6,9.2
		c1.6,2.4,3.8,4.1,5.9,5.2c4.2,2.2,8.3,2.2,10.6,1c1.6-0.8,2.2-1.7,2.5-2.1c0.3-0.4,0.2-0.5,0.2-0.5c-0.1,0-0.1,0-0.5,0.3
		C615.2,515.7,614.6,516.5,613.1,517.2z"></path>
	<path class="st0" d="M721.3,527.3c-1.7,1.2-5.4,2.3-9,0.1c-1.7-1.1-3-3.2-3-5.7c0-2.5,0.7-5.4,2.6-7.6c4-4.5,12-4.9,19-2.2
		c7,2.6,13.8,9.1,15.4,17.9c1.2,8.7,0.1,18.9-5.1,27.6c-5.1,8.8-14.6,14.9-25.1,18.3c-10.5,3.4-22.1,4.6-33.9,4.6
		c-11.8-0.1-23.7-2.9-35.3-7c-23.1-8.3-43.8-20.8-62.7-32.5c-18.9-11.9-36-23.6-51.8-32.6c-15.7-9.2-30.9-14.8-43.3-15.7
		c-6.2-0.5-11.6,0.4-15.7,2.2c-4.1,1.8-6.6,4.3-8,6.1c-2,2.6-1.9,2.9-1.8,3c0.2,0.1,0.2-0.1,2.2-2.6c1.5-1.7,3.9-4,7.9-5.7
		c3.9-1.7,9.2-2.5,15.2-2c12.2,1,27.2,6.4,42.8,15.7c15.8,9,32.9,20.7,51.8,32.6c18.9,11.8,39.6,24.3,62.9,32.7
		c11.6,4.1,23.7,6.9,35.7,7c11.9,0,23.6-1.2,34.3-4.7c10.6-3.4,20.4-9.7,25.7-18.9c2.7-4.5,4.3-9.4,5-14.2c0.7-4.9,1-9.6,0.1-14.3
		c-1.7-9.3-8.9-16.1-16.2-18.7c-3.7-1.4-7.5-1.9-11.1-1.6c-3.5,0.3-6.9,1.7-9.1,4.2c-2.1,2.5-2.8,5.6-2.8,8.3
		c0.1,2.8,1.6,5.2,3.5,6.4c4.1,2.4,8,1,9.8-0.4c1.3-1,1.8-1.8,2-2.2c0.2-0.4,0.2-0.5,0.1-0.5l-0.4,0.3
		C723.1,525.7,722.6,526.4,721.3,527.3z"></path>
	<path class="st0" d="M695.2,533.7c-1.4-2.2-4.3-6.6-5.3-13.5c-0.5-3.4-0.3-7.5,1.2-11.7c1.4-4.1,4.2-8.3,8.2-11.4
		c8.1-6.6,20.9-8.4,33.2-5.3c12.2,3.3,24,13.2,27.8,26.8c2,6.8,1.9,13.9,0.6,20.5c-1.3,6.7-3.6,13-7.3,18.2
		c-3.7,5.2-8.6,9.1-13.7,11.8c-5.2,2.7-10.6,4.3-15.7,5.3c-10.3,1.9-19.4,1.5-26.4,0.8c-7-0.7-12-1.9-14.6-2.5
		c-1.8-0.4-1.9-0.4-2-0.3c-0.1,0.1,0,0.3,1.8,0.8c2.5,0.8,7.5,2.1,14.6,2.9c7.1,0.8,16.3,1.3,26.8-0.6c5.2-1,10.7-2.6,16.1-5.4
		c5.3-2.8,10.4-6.8,14.2-12.2c3.8-5.3,6.2-11.9,7.5-18.6c1.3-6.8,1.4-14.1-0.7-21.1c-4-14.1-16.1-24.3-28.7-27.7
		c-12.6-3.2-25.8-1.3-34.3,5.6c-4.2,3.3-7.1,7.7-8.6,12c-1.5,4.3-1.6,8.6-1.1,12.2c1.1,7.2,4.3,11.6,5.8,13.7
		c1.2,1.5,1.3,1.5,1.4,1.4C696.3,535.4,696.2,535.3,695.2,533.7z"></path>
	<path class="st0" d="M721.9,429.8c1.3,0.6,3.3,1.8,4.3,4.3c1,2.5,0.9,6.2-0.9,9.6c-1.7,3.4-5.4,6.9-10.4,7.3
		c-2.4,0.2-5.1-0.2-7.2-1.8c-2.2-1.5-3.8-3.9-4.8-6.6c-1.9-5.5-1.4-12.3,2-17.9c3.3-5.7,9.9-9.5,17.1-10.1c7.2-0.6,14.8,0.9,21.9,4
		c7.1,3.1,13.6,7.9,19.2,13.6c5.7,5.7,10.4,12.2,14.3,18.9c4,6.7,7.3,13.6,9,20.7c3.7,14.2,2.8,28.1,0.5,39.8
		c-2.4,11.7-6.3,21.4-10.1,28.5c-3.8,7.1-7.5,11.6-9.5,13.9c-1.5,1.6-1.5,1.7-1.4,1.8c0.1,0.1,0.3,0.1,1.8-1.4
		c2.2-2.1,6.1-6.6,10-13.7c3.9-7.1,7.9-16.8,10.4-28.7c2.4-11.8,3.2-25.9-0.5-40.3c-1.8-7.2-5.1-14.3-9.2-21
		c-4-6.7-8.8-13.3-14.5-19.1c-5.7-5.8-12.4-10.7-19.6-13.9c-7.2-3.2-15-4.7-22.5-4.1c-7.5,0.6-14.5,4.6-18,10.7
		c-3.6,6-4.1,13.2-2,19c1,2.9,2.8,5.5,5.3,7.2c2.4,1.7,5.4,2.2,8,1.9c5.4-0.5,9.3-4.3,11.1-8c1.9-3.7,2-7.7,0.8-10.4
		c-1.2-2.8-3.5-4-4.9-4.5c-2.1-0.6-2.3-0.5-2.3-0.4C719.7,429.1,719.9,429,721.9,429.8z"></path>
	<path class="st0" d="M141.2,449.5c0.5-2.2-0.4-5-2.5-7.3c-1-1.2-2.6-2.2-4.4-2.5c-1.8-0.3-3.9,0.2-5.6,1.4
		c-3.5,2.2-5.4,7.6-3.2,12.2c0.9,2.3,2.3,4.6,4.5,6.2c2.2,1.6,5,2.5,7.9,2.5c5.8,0,11.9-3.1,15.7-8.5c3.9-5.4,4.4-13.1,1.8-19.8
		c-2.5-6.8-7.1-13-13.1-18.1c-6-5.1-13.2-9-21.2-11.7c-15.9-5.4-34.6-6.1-52.8-0.8C50.2,408.4,33,420.3,21,437
		C8.9,453.7,2.9,475.4,4.2,497.2c0.6,10.9,3.1,21.8,7.6,32.1c4.5,10.2,11.1,19.7,19.7,27.1c8.6,7.5,19,12.6,29.9,15.1
		c10.8,2.5,21.8,3.8,32.7,3.9c21.8,0.1,42.9-5,61.9-12.5c19.1-7.5,36.4-17.2,52.3-27.1c8-4.9,15.6-10.1,23-14.8
		c7.5-4.8,14.9-9.2,22.1-13.2c14.5-8,28.7-14.6,42.4-17.9c13.6-3.5,27-2.9,37.1,1.8c5,2.3,8.8,6.4,9.4,11.1c0.6,4.6-1.3,9-3.9,11.7
		c-2.6,3-6.5,2.9-9.3,2.1c-2.9-0.8-5-2.4-6.2-4.1c-1.7-2.4-1.1-4.2-0.9-4.9c0.3-0.7,0.4-0.8,0.3-0.9c0,0-0.2,0-0.6,0.7
		c-0.4,0.7-1.1,2.6,0.7,5.3c1.2,1.8,3.4,3.5,6.4,4.4c1.5,0.5,3.2,0.7,5,0.5c1.9-0.1,3.7-1.2,5.1-2.6c2.8-2.9,4.9-7.4,4.3-12.4
		c-0.5-5.1-4.6-9.6-9.8-12c-10.4-4.8-24-5.5-37.8-2c-13.9,3.4-28.1,9.9-42.8,17.9c-7.3,4-14.7,8.5-22.2,13.2
		c-7.5,4.8-15.1,9.9-23,14.8c-15.9,9.9-33.2,19.5-52.1,27c-18.9,7.5-39.8,12.6-61.5,12.5c-10.8,0-21.7-1.3-32.5-3.8
		c-10.7-2.5-21-7.5-29.4-14.9c-8.5-7.3-15-16.6-19.4-26.7c-4.4-10.1-6.8-20.9-7.4-31.7c-1.2-21.5,4.7-43,16.7-59.4
		c11.8-16.6,28.8-28.3,46.7-33.4c17.9-5.2,36.4-4.5,52.1,0.8c7.8,2.7,15,6.5,20.8,11.5c5.8,5,10.3,11.1,12.7,17.6
		c2.5,6.5,1.9,13.7-1.8,18.8c-3.6,5.1-9.4,8-14.8,8c-2.7,0-5.3-0.8-7.3-2.4c-2-1.5-3.4-3.6-4.2-5.8c-2-4.3-0.3-9.2,2.9-11.2
		c1.6-1.1,3.4-1.5,5-1.2c1.6,0.2,3,1.2,4,2.2c2,2.2,2.8,4.8,2.4,6.7c-0.3,1.4-1.4,1.9-2.2,2c-0.8,0.1-1.4,0-1.8-0.1
		c-0.8-0.1-0.9-0.1-0.9-0.1c0,0.1,0,0.2,0.9,0.4c0.4,0.1,1,0.3,2,0.2C139.4,451.8,140.8,451.1,141.2,449.5z"></path>
	<path class="st0" d="M180.4,530.9c2.6,0.9,6.6-0.7,9.6-4.3c3-3.5,5.8-9.5,3.9-16.2c-0.9-3.3-3.1-6.4-6-8.9
		c-2.8-2.5-6.4-4.7-10.7-5.4c-4.2-0.7-8.9,0.4-12.8,2.9c-3.9,2.6-7.1,6.3-9.5,10.7c-4.8,8.7-6.5,19.8-4.5,30.7
		c1.1,5.4,2.8,11,6.3,15.8c3.4,4.8,8.3,8.7,13.9,11c11.3,4.8,24.4,4.5,36.9,2.2c12.6-2.4,25-7,36.6-13.5
		c23.3-13.1,40.8-33.3,52.9-53.9c6.1-10.3,11.1-20.8,15.5-30.9l6.3-14.8c2.1-4.7,4-9.5,6.9-13.3c2.8-3.8,6.8-6.7,11.1-7.7
		c4.3-1,8.7-0.1,12,2.2c3.3,2.2,5.4,5.8,5.8,9.4c0.2,3.6-0.3,7.2-2.1,9.8c-1.8,2.6-4.9,3.6-7.6,3.4c-2.7-0.2-5.2-1.3-6.2-3.2
		c-1.1-1.9-1.1-4.1-0.5-5.6c0.6-1.6,1.8-2.6,2.9-3c1.6-0.6,2.6-0.4,3-0.4c0.5,0,0.5,0,0.6-0.1c0-0.1,0-0.1-0.5-0.2
		c-0.5-0.1-1.5-0.3-3.2,0.2c-1.2,0.4-2.7,1.4-3.4,3.2c-0.7,1.7-0.8,4.1,0.4,6.3c1.1,2.3,4,3.5,6.8,3.8c2.9,0.3,6.4-0.7,8.5-3.6
		c2.1-2.9,2.6-6.7,2.4-10.5c-0.3-3.9-2.6-7.8-6.1-10.2c-3.5-2.5-8.3-3.5-12.9-2.4c-4.6,1-8.8,4.1-11.8,8c-3,4-4.9,8.8-7,13.5
		l-6.3,14.8c-4.4,10.1-9.3,20.5-15.4,30.8c-12,20.5-29.4,40.6-52.5,53.5c-11.5,6.5-23.8,11-36.2,13.4c-12.4,2.3-25.3,2.5-36.2-2.2
		c-5.4-2.3-10.1-6-13.4-10.6c-3.3-4.6-5-10.1-6-15.4c-2-10.7-0.3-21.5,4.4-29.9c2.3-4.2,5.4-7.8,9.1-10.2c3.7-2.4,8.1-3.4,12-2.7
		c4,0.7,7.4,2.8,10.1,5.2c2.8,2.4,4.8,5.3,5.7,8.4c1.8,6.3-0.7,12-3.6,15.4c-2.9,3.5-6.6,4.9-8.8,4.2c-1.6-0.5-2.1-1.3-2.5-1.6
		c-0.3-0.4-0.4-0.4-0.4-0.3c-0.1,0-0.1,0.1,0.2,0.5C178.1,529.3,178.6,530.3,180.4,530.9z"></path>
	<path class="st0" d="M186.7,517.7c2.3,1.1,6.4,1.2,10.6-1.1c2.1-1.1,4.2-2.8,5.9-5.2c1.6-2.4,2.5-5.8,1.5-9.2
		c-1-3.3-3.4-6.3-6.4-8.6c-3-2.3-7.2-3.8-11.4-3.5c-8.7,0.4-17,7.2-20.6,16.5c-3.7,9.3-2.6,20.7,2,30.8c2.3,5,6,9.8,10.8,13.1
		c4.8,3.4,10.7,5.3,16.7,6c12.1,1.3,24.6-1.5,36.6-5.8c11.9-4.4,23.8-10.4,34.2-18.6c10.4-8.2,19-18.4,25.8-29.1
		c6.9-10.8,12.1-22.1,16.9-33.1c2.4-5.5,4.7-10.9,7.1-16.1c2.5-5.1,4.8-10.4,8.2-14.6c3.4-4.2,8.1-7.1,13-8c5-1,10.1-0.2,14.3,1.9
		c4.3,2.1,7.7,5.6,9,9.8c1.4,4.2,0.3,8.6-1.2,12.3c-1.6,3.7-4.4,6.6-7.7,8.2c-3.3,1.5-6.9,1.7-9.9,0.9c-6.4-1.6-9.4-7.8-8.2-12.1
		c0.5-2.2,1.8-3.9,3.2-4.8c1.4-1,2.9-1,4.1-0.8c1.6,0.5,2.3,1.2,2.7,1.4c0.4,0.3,0.5,0.3,0.5,0.3c0.1-0.1,0.1-0.1-0.3-0.5
		c-0.3-0.3-1-1.1-2.7-1.7c-1.2-0.4-3-0.4-4.6,0.7c-1.6,1-3,2.8-3.6,5.2c-0.6,2.3-0.3,5.2,1.2,7.7c1.5,2.6,4.2,4.7,7.5,5.6
		c3.3,0.9,7.1,0.8,10.7-0.9c3.5-1.6,6.6-4.7,8.3-8.6c0.9-1.9,1.5-4.1,1.8-6.2c0.4-2.2,0.3-4.6-0.5-6.8c-1.4-4.5-5.1-8.3-9.5-10.5
		c-4.5-2.3-9.9-3.1-15.1-2.1c-5.3,1-10.2,4.1-13.8,8.4c-3.5,4.4-5.8,9.6-8.3,14.8c-2.4,5.2-4.7,10.7-7.1,16.2
		c-4.7,11-9.9,22.3-16.8,32.9c-6.8,10.7-15.3,20.7-25.6,28.9c-10.3,8.2-22.1,14-33.9,18.5c-11.9,4.3-24.2,7-36.1,5.7
		c-5.9-0.7-11.5-2.6-16.1-5.8c-4.6-3.2-8.1-7.8-10.4-12.7c-4.5-9.8-5.5-20.9-1.9-29.8c3.4-8.9,11.4-15.3,19.6-15.7
		c8.2-0.5,14.8,5.5,16.7,11.4c0.9,3,0.1,6.1-1.4,8.4c-1.5,2.3-3.5,3.9-5.5,5c-4,2.2-7.8,2.2-10,1.2c-1.5-0.7-2.1-1.5-2.4-1.8
		c-0.3-0.4-0.4-0.4-0.4-0.3c-0.1,0-0.1,0.1,0.2,0.6C184.5,516,185.1,516.9,186.7,517.7z"></path>
	<path class="st0" d="M78.4,527.7c1.8,1.3,5.8,2.7,9.8,0.3c2-1.2,3.5-3.6,3.5-6.4c0-2.7-0.7-5.8-2.8-8.3c-2.1-2.5-5.5-3.8-9.1-4.2
		c-3.6-0.4-7.4,0.2-11.1,1.6c-7.3,2.7-14.5,9.4-16.2,18.8c-0.8,4.6-0.6,9.4,0.1,14.3c0.7,4.8,2.4,9.8,5.1,14.2
		c5.3,9.1,15.1,15.4,25.7,18.8c10.7,3.5,22.4,4.7,34.3,4.6c12-0.1,24-2.9,35.6-7c23.3-8.4,44-20.9,62.9-32.6
		c18.9-11.9,36-23.6,51.8-32.6c15.6-9.2,30.6-14.7,42.8-15.7c6.1-0.5,11.4,0.3,15.3,2c3.9,1.7,6.4,4,7.9,5.7
		c2.1,2.5,2.1,2.7,2.3,2.6c0.1,0,0.2-0.3-1.8-2.9c-1.4-1.8-3.9-4.3-8-6.1c-4-1.8-9.5-2.7-15.7-2.2c-12.4,0.9-27.6,6.4-43.3,15.6
		c-15.9,9-33,20.7-51.9,32.6c-18.9,11.8-39.5,24.2-62.7,32.6c-11.6,4.1-23.5,6.8-35.3,7c-11.8,0-23.4-1.2-33.9-4.6
		c-10.5-3.4-19.9-9.5-25.1-18.3c-5.1-8.7-6.3-18.9-5-27.6c1.6-8.9,8.4-15.3,15.4-17.9c7-2.7,15-2.2,19,2.3c1.9,2.2,2.6,5.1,2.6,7.6
		c0,2.5-1.3,4.6-3.1,5.7c-3.6,2.2-7.3,1-9-0.1c-1.3-0.9-1.8-1.6-2.1-1.9l-0.4-0.3c-0.1,0-0.1,0.1,0.2,0.5
		C76.6,526,77,526.8,78.4,527.7z"></path>
	<path class="st0" d="M105.3,534.1c1.5-2.1,4.7-6.5,5.8-13.7c0.5-3.6,0.4-7.8-1.1-12.2c-1.5-4.3-4.3-8.7-8.6-12
		c-8.5-6.9-21.7-8.8-34.3-5.6c-12.5,3.4-24.7,13.6-28.7,27.7c-2,7-2,14.3-0.7,21.1c1.3,6.8,3.7,13.3,7.5,18.6
		c3.8,5.4,8.9,9.4,14.2,12.2c5.3,2.8,10.8,4.4,16.1,5.4c10.5,1.9,19.7,1.4,26.8,0.6c7.1-0.8,12.1-2.1,14.6-2.9
		c1.8-0.6,1.9-0.7,1.8-0.8c0-0.2-0.2-0.1-2,0.3c-2.5,0.6-7.5,1.7-14.6,2.5c-7,0.7-16.1,1.1-26.4-0.8c-5.1-1-10.5-2.5-15.7-5.3
		c-5.2-2.7-10.1-6.6-13.8-11.8c-3.7-5.2-6-11.5-7.3-18.2c-1.3-6.6-1.3-13.8,0.6-20.5c3.9-13.7,15.7-23.5,27.9-26.8
		c12.3-3.1,25.2-1.2,33.2,5.4c4,3.2,6.8,7.3,8.2,11.5c1.4,4.1,1.6,8.2,1.2,11.6c-1,7-3.9,11.4-5.3,13.5c-1,1.5-1.1,1.6-1,1.7
		C104,535.6,104.1,535.6,105.3,534.1z"></path>
	<path class="st0" d="M77.9,429.2c-1.4,0.5-3.7,1.7-4.9,4.5c-1.2,2.7-1.1,6.7,0.8,10.4c1.8,3.7,5.7,7.4,11.2,7.9
		c2.6,0.3,5.6-0.2,8-1.9c2.4-1.6,4.2-4.3,5.3-7.2c2.1-5.8,1.5-13-2.1-19c-3.5-6.1-10.5-10.1-18-10.7c-7.5-0.7-15.3,0.9-22.5,4.1
		c-7.2,3.2-13.9,8-19.6,13.9c-5.8,5.8-10.5,12.4-14.5,19.1c-4,6.7-7.4,13.8-9.1,21c-3.7,14.4-2.9,28.5-0.5,40.3
		c2.4,11.8,6.4,21.6,10.4,28.7c3.9,7.2,7.8,11.7,10,13.8c1.6,1.5,1.7,1.5,1.8,1.4c0.1-0.1,0-0.2-1.4-1.8c-2-2.2-5.7-6.7-9.5-13.8
		c-3.8-7.1-7.7-16.7-10.1-28.4c-2.3-11.7-3.1-25.6,0.5-39.8c1.8-7.1,5-14,9-20.7c4-6.7,8.7-13.2,14.4-18.9
		c5.6-5.8,12.2-10.5,19.3-13.6c7.1-3.1,14.7-4.6,21.9-4c7.2,0.6,13.8,4.4,17.1,10.1c3.4,5.7,3.9,12.5,2,18c-1,2.7-2.6,5.1-4.8,6.6
		c-2.2,1.5-4.8,2-7.2,1.7c-5-0.4-8.6-3.9-10.4-7.3c-1.8-3.5-2-7.1-0.9-9.6c1-2.6,3-3.8,4.3-4.3c1.9-0.7,2.1-0.7,2.1-0.9
		C80.2,428.8,80,428.6,77.9,429.2z"></path>
</g>
</svg>