<!--?xml version="1.0" encoding="utf-8"?-->
<!-- Generator: Adobe Illustrator 22.1.0, SVG Export Plug-In . SVG Version: 6.00 Build 0)  -->
<svg version="1.1" id="_x33_" xmlns="http://www.w3.org/2000/svg" xmlns:xlink="http://www.w3.org/1999/xlink" x="0px" y="0px" viewBox="0 0 800 579.4" style="enable-background:new 0 0 800 579.4;" xml:space="preserve">
<style type="text/css">
	.st0{fill:#737575;}
</style>
<g>
	<path class="st0" d="M275.8,122.2c6.1-8.4-2-19.4-11.3-18.6c-0.3,0.1-0.5,0.2-0.7,0.3c-2.1,0.3-3.7,2-3.7,4.2
		c0,2.4,1.9,4.3,4.3,4.3c1.1,0,2.1-0.4,2.8-1.1c2.6,0.9,5.5,4.1,2.9,8c-2.5,5.5-10.9,6.1-16.2,0c-11.5-12.3,12.4-34,30-21.9
		c17,9.5,18.7,34.1,5.1,45.4c-6.1,5.9-15,9-20,5.4c-4.5-2.4-1.8-6.2,0.3-7.1c0.9,1,2.2,1.6,3.7,1.6c2.8,0,5-2.2,5-5
		c0-2.7-2.2-4.9-4.8-5c-0.1-0.1-0.2-0.1-0.3-0.2c-13.1-2.6-20.2,15.6-8.2,21.5c10.4,5.8,22.3-0.2,28.9-7.1
		c15.3-13.8,13.4-42.3-7-53.5c-23.9-15.6-52.4,10.1-37,29.3C255.1,131.3,271.5,131.3,275.8,122.2z M228.3,144.6
		c-11.3,0.2-34.5-9.1-53-14.5c-12.7-4.1-38-5.6-45.9,1.5c6.3-0.9,21.5,3.5,23.5,6.2c-11.3,0.2-26.4,12.7-25.9,16.4
		c0,0-8.6,7.9-5,21.5c3.2-16.8,43.2-29.7,73.9-25.6c23.9,3.2,36.7,2.1,53.8-7.8C249.7,142.3,239.6,144.5,228.3,144.6z M382.4,77.3
		c8.5,9.4,14.3,21.1,14.9,46.8l-7.3,24.6c1.1,0,9.3,19.5,9.9,18.8c0.6,0.7,8.8-18.8,9.9-18.8l-7.3-24.6c0.7-25.6,6.5-37.4,14.9-46.8
		c11.4-12.7,30.9-8.5,30.9-8.5c-0.6-5.3-13.6-15.9-25.1-9.9c4.2-3.2,9.7-12.6,15.6-19.3c-13.2,1.7-13,1.9-20.2,5.1
		c2.7-3.5,4.5-16.7,2.7-20.2c-6.8-1.3-14.2,7.9-14.2,7.9s0.5-17.2-4.6-27.2c-1,1.1-1.9-3.3-2.7-2.2c-0.8-1.1-1.7,3.3-2.7,2.2
		c-5.2,10.1-4.6,27.2-4.6,27.2s-7.5-9.2-14.2-7.9c-1.8,3.5,0,16.7,2.7,20.2c-7.2-3.2-6.9-3.4-20.2-5.1c5.9,6.7,11.3,16,15.6,19.3
		c-11.5-6.1-24.5,4.6-25.1,9.9C351.5,68.9,371,64.6,382.4,77.3z M399.2,84.2c-4.3-27.6,0.7-45,0.7-45s5.4,18.4,0.3,47.5
		c4.6-19.7,12.9-29.8,12.9-29.8s-1.6,13.6-13.1,31c0,0,0,0,0,0c0,0.1,0,0.1,0,0.2c0,0,0-0.1-0.1-0.1c0,0.2-0.1,0.4-0.1,0.7
		c-0.1-0.4-0.1-0.8-0.2-1.2c-11.3-17.3-12.9-30.7-12.9-30.7S394.5,66.1,399.2,84.2z M301.2,92.7c5.3,6.7,8.9,15.2,9.5,33.6
		l-5.7,17.8c0.7,0,7.2,7.2,7.6,6.7c0.4,0.5,6.7-6.8,7.4-6.8l-6-17.7c0.2-18.5,3.7-27,8.8-33.8c6.9-9.2,18.9-6.3,18.9-6.3
		c-0.4-3.8-8.4-11.4-15.5-7c2.6-2.4,5.8-9.1,9.4-14c-8.1,1.3-8,1.5-12.3,3.8c1.6-2.5,2.6-12.1,1.5-14.6c-4.2-0.9-8.7,5.8-8.7,5.8
		s0.2-12.4-3-19.6c-0.6,0.8-1.2-2.4-1.7-1.5c-0.5-0.8-1,2.4-1.6,1.6c-3.1,7.3-2.6,19.6-2.6,19.6s-4.7-6.6-8.8-5.6
		c-1.1,2.5,0.1,12,1.8,14.5c-4.4-2.2-4.3-2.4-12.4-3.5c3.7,4.8,7.1,11.5,9.7,13.8c-7.1-4.3-15,3.4-15.3,7.2
		C282.1,86.8,294.1,83.6,301.2,92.7z M335.9,97.9c-18.1,14.1-15.1,42.3,2.4,53.8c7.7,5.8,20.4,10.2,29.8,2.9
		c10.4-6.9,2.2-22.5-9.3-20.7c-0.3,0-0.5-0.2-0.8-0.2c-2.8,0-5,2.2-5,5c0,2.8,2.2,5,5,5c1.3,0,2.5-0.5,3.3-1.3
		c2.2,0.6,5.5,3.8,1.6,6.9c-4.2,4.3-13.5,2.8-20.6-2.1c-15.5-9-18.4-33.5-3.3-45.6c15.1-14.7,42.7,3.2,33.5,17.1
		c-4.2,6.7-12.6,7.4-16,2.3c-3.2-3.3-1-6.9,1.3-8.2c0.6,0.4,1.4,0.7,2.2,0.7c2.4,0,4.3-1.9,4.3-4.3c0-2.4-1.9-4.3-4.3-4.3
		c-0.1,0-0.1,0-0.2,0c-0.2,0-0.4-0.2-0.6-0.2c-9.5,0.6-15.4,12.8-7.8,20.1c5.9,8.3,22,5.7,26.1-3.7C389.3,100,355.9,78.9,335.9,97.9
		z M673,154.2c0.5-3.6-14.6-16.2-25.9-16.4c2-2.7,17.2-7.1,23.5-6.2c-7.9-7.1-33.1-5.6-45.9-1.5c-18.6,5.5-41.8,14.7-53.1,14.5
		c-11.3-0.2-21.5-2.4-21.5-2.4c17.2,9.9,29.9,11,53.8,7.8c30.7-4.1,70.7,8.8,73.9,25.6C681.6,162.1,673,154.2,673,154.2z
		 M247.4,137.4c0,0-12.7,1.8-21-5.1c-8.3-7-0.5-20,8.2-16c4.3,1.6,6.9,8.6,2.3,10.1c7.9-1.1,7.5-15.2-1.7-17.5
		c-8.7-9.9-32.9,1.8-28.1,18.2C211.9,143.3,240.9,142.8,247.4,137.4z M674.4,127.7c52.8,20,57.1-7.1,57.1-7.1
		c-3.6,3.6-18.1,16.5-55.6,3.6c-43.5-15-77,12.1-77,12.1S639.4,114.8,674.4,127.7z M707.2,153.3c-26.4-2.1-47.1-17.8-47.1-17.8
		s44.2,49.2,97.7,39.9c17.1-4.3,22.1-10.7,22.1-10.7s-39.2,12.8-73.5-5.7c19.3,7.8,72.8,14.3,87-11.4c7.8-15-4.3-27.1-15-26.4
		c-10.7,0.7-18.5,12.8-9.3,20c0,0,1.4-14.3,11.4-12.1C790.6,131.2,798.5,164,707.2,153.3z M552.6,137.4c6.5,5.4,35.5,5.9,40.3-10.5
		c4.8-16.4-19.4-28-28.1-18.2c-9.2,2.4-9.7,16.4-1.7,17.5c-4.6-1.4-2-8.5,2.3-10.1c8.7-3.9,16.5,9.1,8.2,16
		C565.2,139.2,552.6,137.4,552.6,137.4z M477.2,92.5c5.1,6.8,8.6,15.3,8.8,33.8l-6,17.7c0.7,0,7,7.3,7.4,6.8
		c0.4,0.5,6.9-6.7,7.6-6.7l-5.7-17.8c0.6-18.5,4.3-26.9,9.5-33.6c7.1-9.1,19.1-5.9,19.1-5.9c-0.3-3.8-8.2-11.5-15.3-7.2
		c2.6-2.3,6-9,9.7-13.8c-8.1,1.2-8,1.3-12.4,3.5c1.7-2.5,2.9-12,1.8-14.5c-4.2-1-8.8,5.6-8.8,5.6s0.5-12.4-2.6-19.6
		c-0.6,0.8-1.1-2.4-1.6-1.6c-0.5-0.8-1.1,2.3-1.7,1.5c-3.2,7.2-3,19.6-3,19.6s-4.5-6.7-8.7-5.8c-1.1,2.5-0.1,12,1.5,14.6
		c-4.4-2.3-4.2-2.5-12.3-3.8c3.6,4.8,6.8,11.6,9.4,14c-7-4.4-15.1,3.2-15.5,7C458.3,86.3,470.3,83.3,477.2,92.5z M506.6,146.9
		c6.5,6.9,18.5,12.9,28.9,7.1c12.1-5.8,5-24.1-8.1-21.5c-0.1,0-0.2,0.1-0.3,0.2c-2.7,0.1-4.8,2.3-4.8,5c0,2.8,2.2,5,5,5
		c1.5,0,2.7-0.6,3.7-1.6c2.1,0.9,4.8,4.7,0.3,7.1c-5,3.6-13.9,0.6-20-5.4c-13.6-11.3-11.9-35.8,5.1-45.4c17.5-12.1,41.4,9.5,30,21.9
		c-5.3,6-13.7,5.5-16.2,0c-2.6-3.8,0.3-7.1,2.9-8c0.8,0.7,1.7,1.1,2.8,1.1c2.4,0,4.3-1.9,4.3-4.3c0-2.2-1.6-3.9-3.7-4.2
		c-0.2-0.1-0.4-0.3-0.7-0.3c-9.4-0.8-17.4,10.2-11.3,18.6c4.2,9.1,20.6,9.1,26.4,0.5c15.4-19.2-13.1-44.9-37-29.3
		C493.2,104.7,491.3,133.1,506.6,146.9z M464.1,97.9c-20-19-53.3,2.1-41.7,23.3c4.1,9.4,20.2,12,26.1,3.7c7.6-7.3,1.7-19.5-7.8-20.1
		c-0.2,0-0.4,0.1-0.6,0.2c-0.1,0-0.1,0-0.2,0c-2.4,0-4.3,1.9-4.3,4.3c0,2.4,1.9,4.3,4.3,4.3c0.8,0,1.5-0.3,2.2-0.7
		c2.3,1.3,4.5,4.9,1.3,8.2c-3.4,5.1-11.8,4.4-16-2.3c-9.2-13.9,18.4-31.8,33.5-17.1c15.1,12.1,12.2,36.6-3.3,45.6
		c-7.1,4.9-16.4,6.4-20.6,2.1c-3.8-3-0.5-6.3,1.6-6.9c0.9,0.8,2.1,1.3,3.4,1.3c2.8,0,5-2.2,5-5c0-2.8-2.2-5-5-5
		c-0.3,0-0.5,0.1-0.8,0.2c-11.5-1.8-19.6,13.8-9.3,20.7c9.4,7.2,22.1,2.9,29.8-2.9C479.2,140.3,482.2,112.1,464.1,97.9z
		 M125.6,127.7c35-12.8,75.6,8.6,75.6,8.6s-33.5-27.1-77-12.1c-37.6,12.9-52.1,0-55.6-3.6C68.6,120.5,72.8,147.6,125.6,127.7z
		 M93.5,159c-34.2,18.5-73.5,5.7-73.5,5.7s5,6.4,22.1,10.7c53.5,9.3,97.7-39.9,97.7-39.9s-20.7,15.7-47.1,17.8
		C1.5,164,9.4,131.2,19.3,129.1c10-2.1,11.4,12.1,11.4,12.1c9.3-7.1,1.4-19.3-9.3-20c-10.7-0.7-22.8,11.4-15,26.4
		C20.8,173.3,74.3,166.9,93.5,159z M552.6,442c0,0,12.7-1.8,21,5.1c8.3,7,0.5,20-8.2,16c-4.3-1.6-6.9-8.6-2.3-10.1
		c-7.9,1.1-7.5,15.2,1.7,17.5c8.7,9.9,32.9-1.8,28.1-18.2C588.1,436.1,559.1,436.6,552.6,442z M524.2,457.2
		c-6.1,8.4,2,19.4,11.3,18.6c0.3-0.1,0.5-0.2,0.7-0.3c2.1-0.3,3.7-2,3.7-4.2c0-2.4-1.9-4.3-4.3-4.3c-1.1,0-2.1,0.4-2.8,1.1
		c-2.5-0.9-5.5-4.1-2.9-8c2.5-5.5,10.9-6.1,16.2,0c11.5,12.3-12.4,34-30,21.9c-17-9.5-18.7-34.1-5.1-45.4c6.1-5.9,15-9,20-5.4
		c4.5,2.4,1.8,6.2-0.3,7.1c-0.9-1-2.2-1.6-3.7-1.6c-2.8,0-5,2.2-5,5c0,2.7,2.2,4.9,4.8,5c0.1,0.1,0.2,0.1,0.3,0.2
		c13.1,2.6,20.2-15.6,8.1-21.5c-10.4-5.8-22.3,0.2-28.9,7.1c-15.3,13.8-13.4,42.2,7,53.5c23.9,15.6,52.4-10.1,37-29.3
		C544.9,448.1,528.5,448.1,524.2,457.2z M498.8,486.7c-5.3-6.7-8.9-15.1-9.5-33.6l5.7-17.8c-0.7,0-7.2-7.2-7.6-6.7
		c-0.4-0.5-6.7,6.8-7.4,6.8l6,17.7c-0.2,18.5-3.7,27-8.8,33.8c-6.9,9.2-18.9,6.3-18.9,6.3c0.4,3.8,8.4,11.4,15.5,7
		c-2.6,2.4-5.8,9.1-9.4,14c8.1-1.3,8-1.5,12.3-3.8c-1.6,2.6-2.6,12.1-1.5,14.6c4.2,0.9,8.7-5.8,8.7-5.8s-0.2,12.4,3,19.6
		c0.6-0.8,1.2,2.4,1.7,1.5c0.5,0.8,1-2.4,1.6-1.6c3.1-7.3,2.6-19.6,2.6-19.6s4.7,6.6,8.8,5.6c1.1-2.5-0.1-12-1.8-14.5
		c4.4,2.2,4.3,2.4,12.4,3.5c-3.7-4.8-7.1-11.5-9.7-13.8c7.1,4.3,15-3.4,15.3-7.2C517.9,492.6,505.9,495.8,498.8,486.7z M674.4,451.7
		c-34.9,12.8-75.6-8.6-75.6-8.6s33.5,27.1,77,12.1c37.6-12.9,52.1,0,55.6,3.6C731.4,458.9,727.2,431.8,674.4,451.7z M706.5,420.4
		c34.2-18.5,73.5-5.7,73.5-5.7s-5-6.4-22.1-10.7c-53.5-9.3-97.7,39.9-97.7,39.9s20.7-15.7,47.1-17.8c91.3-10.7,83.5,22.1,73.5,24.2
		c-10,2.1-11.4-12.1-11.4-12.1c-9.3,7.1-1.4,19.3,9.3,20c10.7,0.7,22.8-11.4,15-26.4C779.2,406.1,725.7,412.5,706.5,420.4z
		 M195.9,429.3c-30.7,4.1-70.7-8.8-73.9-25.6c-3.6,13.6,5,21.5,5,21.5c-0.5,3.6,14.6,16.2,25.9,16.4c-2,2.7-17.2,7.1-23.5,6.2
		c7.9,7.1,33.2,5.6,45.9,1.5c18.6-5.5,41.8-14.7,53-14.5c11.3,0.2,21.5,2.4,21.5,2.4C232.6,427.2,219.8,426.1,195.9,429.3z
		 M604.1,429.3c-23.9-3.2-36.7-2.1-53.8,7.8c0,0,10.2-2.2,21.5-2.4c11.3-0.2,34.5,9.1,53.1,14.5c12.7,4.1,38,5.6,45.9-1.5
		c-6.3,0.9-21.5-3.5-23.5-6.2c11.3-0.2,26.4-12.7,25.9-16.4c0,0,8.6-7.9,5-21.5C674.8,420.5,634.8,433.4,604.1,429.3z M417.6,502.1
		c-8.5-9.4-14.3-21.1-14.9-46.8l7.3-24.6c-1.1,0-9.3-19.5-9.9-18.8c-0.6-0.7-8.8,18.8-9.9,18.8l7.3,24.6
		c-0.7,25.6-6.5,37.4-14.9,46.8c-11.4,12.7-30.9,8.5-30.9,8.5c0.6,5.3,13.6,15.9,25.1,9.9c-4.2,3.3-9.7,12.6-15.6,19.3
		c13.2-1.7,13-1.9,20.2-5.1c-2.7,3.5-4.5,16.7-2.7,20.2c6.8,1.3,14.2-7.9,14.2-7.9s-0.5,17.2,4.6,27.3c1-1.1,1.9,3.3,2.7,2.2
		c0.8,1.1,1.7-3.3,2.7-2.2c5.2-10.1,4.6-27.3,4.6-27.3s7.5,9.2,14.3,7.9c1.8-3.5,0-16.7-2.7-20.2c7.2,3.2,6.9,3.4,20.2,5.1
		c-5.9-6.7-11.3-16-15.6-19.3c11.5,6.1,24.5-4.6,25.1-9.9C448.5,510.5,429,514.8,417.6,502.1z M400.8,495.2c4.3,27.6-0.7,45-0.7,45
		s-5.4-18.4-0.3-47.4c-4.6,19.7-12.9,29.8-12.9,29.8s1.6-13.6,13.1-31v0c0-0.1,0-0.1,0-0.2c0,0,0,0.1,0.1,0.1c0-0.2,0.1-0.4,0.1-0.7
		c0.1,0.4,0.1,0.8,0.2,1.1c11.3,17.3,12.9,30.7,12.9,30.7S405.5,513.3,400.8,495.2z M361.4,436.9c-0.9-0.8-2.1-1.3-3.3-1.3
		c-2.8,0-5,2.2-5,5c0,2.8,2.2,5,5,5c0.3,0,0.5-0.1,0.8-0.2c11.5,1.8,19.6-13.8,9.3-20.7c-9.4-7.2-22.1-2.9-29.8,2.9
		c-17.5,11.5-20.5,39.7-2.4,53.8c20,19,53.3-2.1,41.7-23.3c-4.1-9.4-20.2-12-26.1-3.7c-7.6,7.3-1.7,19.5,7.8,20.1
		c0.2,0,0.4-0.1,0.6-0.2c0.1,0,0.1,0,0.2,0c2.4,0,4.3-1.9,4.3-4.3c0-2.4-1.9-4.3-4.3-4.3c-0.8,0-1.5,0.3-2.2,0.7
		c-2.3-1.3-4.6-4.9-1.3-8.2c3.4-5.1,11.8-4.4,16,2.3c9.2,13.9-18.4,31.8-33.5,17.1c-15.1-12.1-12.2-36.6,3.3-45.6
		c7.1-4.9,16.4-6.4,20.6-2.1C366.9,433.1,363.6,436.4,361.4,436.9z M125.6,451.7c-52.8-20-57.1,7.1-57.1,7.1
		c3.6-3.6,18.1-16.5,55.6-3.6c43.5,15,77-12.1,77-12.1S160.6,464.6,125.6,451.7z M92.8,426.1c26.4,2.1,47.1,17.8,47.1,17.8
		s-44.2-49.2-97.7-39.9c-17.1,4.3-22.1,10.7-22.1,10.7s39.2-12.8,73.5,5.7c-19.3-7.8-72.8-14.3-87,11.4c-7.8,15,4.3,27.1,15,26.4
		c10.7-0.7,18.5-12.8,9.3-20c0,0-1.4,14.3-11.4,12.1C9.4,448.2,1.5,415.4,92.8,426.1z M293.4,432.5c-6.5-6.9-18.5-12.9-28.9-7.1
		c-12.1,5.8-5,24.1,8.2,21.5c0.1,0,0.2-0.1,0.3-0.2c2.7-0.1,4.8-2.3,4.8-5c0-2.7-2.2-5-5-5c-1.5,0-2.7,0.6-3.7,1.6
		c-2.1-0.9-4.8-4.7-0.3-7.1c5-3.6,13.9-0.6,20,5.4c13.6,11.3,11.9,35.8-5.1,45.4c-17.5,12.1-41.4-9.5-30-21.9c5.3-6,13.7-5.5,16.2,0
		c2.6,3.8-0.3,7.1-2.9,8c-0.8-0.7-1.7-1.1-2.8-1.1c-2.4,0-4.3,1.9-4.3,4.3c0,2.2,1.6,3.9,3.7,4.2c0.2,0.1,0.4,0.3,0.7,0.3
		c9.3,0.8,17.4-10.2,11.3-18.6c-4.2-9.1-20.6-9.1-26.4-0.5c-15.4,19.2,13.1,44.9,37,29.3C306.8,474.7,308.7,446.3,293.4,432.5z
		 M322.8,486.9c-5.1-6.8-8.6-15.3-8.8-33.8l6-17.7c-0.7,0-7-7.3-7.4-6.8c-0.4-0.5-6.9,6.7-7.6,6.7l5.7,17.8
		c-0.6,18.5-4.3,26.9-9.5,33.6c-7.1,9.1-19.1,5.9-19.1,5.9c0.3,3.8,8.2,11.5,15.3,7.2c-2.6,2.3-6,9-9.7,13.8c8.1-1.2,8-1.3,12.4-3.5
		c-1.7,2.5-2.9,12-1.8,14.5c4.2,1,8.8-5.6,8.8-5.6s-0.5,12.4,2.6,19.6c0.6-0.8,1.1,2.4,1.6,1.6c0.5,0.8,1.1-2.4,1.7-1.5
		c3.2-7.2,3-19.6,3-19.6s4.5,6.7,8.7,5.8c1.1-2.5,0.1-12-1.5-14.6c4.4,2.3,4.2,2.5,12.3,3.8c-3.6-4.8-6.8-11.6-9.4-14
		c7,4.4,15.1-3.2,15.5-7C341.7,493.1,329.7,496.1,322.8,486.9z M442,466.6c-0.6-0.4-1.4-0.7-2.2-0.7c-2.4,0-4.3,1.9-4.3,4.3
		c0,2.4,1.9,4.3,4.3,4.3c0.1,0,0.1,0,0.2,0c0.2,0,0.4,0.2,0.6,0.2c9.5-0.6,15.4-12.8,7.8-20.1c-5.9-8.3-22-5.7-26.1,3.7
		c-11.6,21.2,21.8,42.3,41.7,23.3c18.1-14.1,15.1-42.3-2.4-53.8c-7.7-5.8-20.4-10.2-29.8-2.9c-10.4,6.9-2.2,22.5,9.3,20.7
		c0.3,0,0.5,0.2,0.8,0.2c2.8,0,5-2.2,5-5c0-2.7-2.2-5-5-5c-1.3,0-2.5,0.5-3.4,1.3c-2.2-0.6-5.5-3.8-1.6-6.9
		c4.2-4.3,13.5-2.8,20.6,2.1c15.5,9,18.4,33.5,3.3,45.6c-15.1,14.7-42.7-3.2-33.5-17.1c4.2-6.7,12.6-7.4,16-2.3
		C446.5,461.7,444.3,465.3,442,466.6z M247.4,442c-6.5-5.4-35.5-5.9-40.3,10.5c-4.8,16.4,19.4,28,28.1,18.2
		c9.2-2.4,9.7-16.4,1.7-17.5c4.6,1.4,2,8.4-2.3,10.1c-8.7,3.9-16.5-9.1-8.2-16C234.7,440.2,247.4,442,247.4,442z"></path>
</g>
</svg>
