<?xml version="1.0" encoding="UTF-8"?>
<svg width="797px" height="235px" viewBox="0 0 797 235" xmlns="http://www.w3.org/2000/svg" xmlns:xlink="http://www.w3.org/1999/xlink" version="1.1" preserveAspectRatio="none">
 <!-- Generated by Pixelmator Pro 2.3 -->
 <path id="Path-copy-13" d="M373 156.1 C373.9 154.1 374.8 151.5 375.3 148.3 375.8 145.1 376.1 141.3 374.7 137.2 374 135.2 372.8 133.1 370.9 131.6 369 130.1 366.6 129.1 364 128.8 358.8 128.2 353.1 130.2 348.3 133.7 345.9 135.5 343.6 137.7 341.9 140.4 340.2 143.1 338.9 146.6 340.2 150.1 340.8 151.8 342.1 153.2 343.6 154.2 345.1 155.3 347.2 155.7 349.1 155 352.8 153.5 354.7 149.9 356.1 146.5 358.9 139.4 359.7 131.5 359.6 123.3 359.5 115.2 358.7 106.6 356 98.2 353.5 89.8 349.7 81.4 344.9 73.4 342.5 69.4 339.8 65.4 336.8 61.7 333.8 58 330.5 54.3 326.4 51.3 324.4 49.9 322.1 48.5 319.3 48.5 317.9 48.5 316.5 49.2 315.6 50.3 314.7 51.4 314.3 52.8 314.2 54.1 314.1 59.5 316.5 64.3 319 68.8 324.4 77.7 331.8 85.7 341.1 91.3 345.7 94.1 350.9 96.2 356.4 97.1 361.9 97.9 367.7 97.3 372.9 95 383.3 90.4 391.1 81.2 396.3 71.1 401.4 60.8 404.4 49.4 405.4 37.8 405.9 32 405.9 26.1 405.2 20.2 404.8 17.3 404.2 14.3 403.2 11.5 402.7 10.1 402 8.7 401 7.5 400 6.3 398.6 5.1 396.8 5.2 395 5.2 393.6 6.3 392.6 7.5 391.6 8.7 391 10.1 390.4 11.5 389.3 14.3 388.8 17.3 388.4 20.2 387.6 26.1 387.7 32 388.2 37.8 389.2 49.4 392.2 60.9 397.3 71.1 402.4 81.3 410.2 90.5 420.7 95 425.9 97.2 431.7 97.9 437.2 97.1 442.7 96.3 447.9 94.1 452.5 91.3 461.8 85.6 469.2 77.7 474.6 68.8 477.1 64.3 479.5 59.5 479.4 54.1 479.3 52.8 478.9 51.4 478 50.3 477.1 49.2 475.7 48.5 474.3 48.5 471.5 48.5 469.2 49.9 467.2 51.3 463.1 54.2 459.8 57.9 456.8 61.7 453.8 65.5 451.1 69.4 448.7 73.4 443.9 81.5 440.1 89.8 437.6 98.2 435 106.6 434.1 115.2 434 123.3 434 131.4 434.7 139.4 437.5 146.5 438.9 149.9 440.9 153.5 444.5 155 446.3 155.7 448.5 155.2 450 154.2 451.5 153.2 452.8 151.8 453.4 150.1 454.7 146.6 453.3 143 451.7 140.4 450 137.7 447.7 135.4 445.3 133.7 440.5 130.2 434.8 128.2 429.6 128.8 427 129.1 424.6 130.1 422.7 131.6 420.8 133.1 419.6 135.2 418.9 137.2 417.6 141.3 417.8 145.1 418.3 148.3 418.8 151.5 419.7 154.1 420.6 156.1 421.9 159 423 160.3 423.6 161 424.2 161.6 424.4 161.6 424.4 161.6 424.5 161.5 424.4 161.5 423.8 160.8 423.3 160.1 422.3 158.8 421.1 156 420.3 154 419.5 151.4 419 148.3 418.5 145.2 418.3 141.4 419.6 137.6 420.3 135.7 421.4 133.8 423.1 132.4 424.8 131 427.1 130.1 429.5 129.8 434.4 129.2 439.8 131.1 444.5 134.5 446.8 136.2 449 138.4 450.7 140.9 452.3 143.4 453.5 146.7 452.4 149.7 451.3 152.5 448.1 155.2 445 154.1 441.9 153 439.9 149.6 438.6 146.3 435.9 139.5 435.1 131.6 435.1 123.6 435.2 115.5 436 107.1 438.6 98.8 441.1 90.5 444.8 82.2 449.6 74.2 454.4 66.3 460 58.3 467.7 52.4 469.6 51 471.9 49.8 474.1 49.7 476.4 49.6 478.1 51.7 478.2 54.1 478.4 58.9 476.1 63.7 473.6 68.1 468.4 76.8 461 84.7 452 90.3 447.5 93 442.5 95.1 437.1 95.9 431.8 96.7 426.3 96.1 421.3 94 411.2 89.6 403.6 80.6 398.5 70.6 393.4 60.5 390.5 49.2 389.5 37.7 389 31.9 389 26.1 389.7 20.3 390.1 17.4 390.6 14.5 391.7 11.9 392.7 9.4 394.3 6.4 397 6.3 399.6 6.4 401.3 9.4 402.3 11.9 403.3 14.6 403.9 17.5 404.3 20.3 405 26.1 405 31.9 404.5 37.7 403.5 49.2 400.6 60.5 395.5 70.6 390.4 80.6 382.8 89.6 372.7 94 367.7 96.2 362.1 96.7 356.9 95.9 351.6 95.1 346.6 93 342 90.3 333 84.7 325.6 76.9 320.4 68.1 317.9 63.7 315.6 58.9 315.8 54.1 315.9 51.8 317.6 49.6 319.9 49.7 322.2 49.7 324.4 51 326.3 52.4 334 58.3 339.6 66.3 344.4 74.2 349.1 82.2 352.9 90.4 355.4 98.8 358 107.1 358.8 115.5 358.9 123.6 358.9 131.6 358.1 139.5 355.4 146.3 354 149.6 352.1 153 349 154.1 345.9 155.1 342.6 152.4 341.6 149.7 340.5 146.7 341.7 143.5 343.3 140.9 344.9 138.3 347.1 136.2 349.5 134.5 354.1 131.1 359.6 129.2 364.5 129.8 366.9 130.1 369.2 131 370.9 132.4 372.6 133.8 373.7 135.7 374.4 137.6 375.7 141.5 375.4 145.2 375 148.3 374.5 151.4 373.7 154 372.9 156 371.7 158.8 370.7 160.2 370.2 160.8 369.7 161.4 369.6 161.5 369.6 161.6 369.6 161.6 369.8 161.7 370.4 161 370.7 160.3 371.8 159 373 156.1 Z" fill="#383838" fill-opacity="1" stroke="none"/>
 <path id="Path-copy-12" d="M369.3 106.1 C370.6 104.8 372.4 102.6 373.8 99.3 375.2 96 376 91.6 375.8 86.6 375.5 81.6 374.4 75.8 371.5 70.1 370.8 68.7 369.9 67.3 368.9 65.9 367.8 64.6 366.6 63.2 364.7 62.6 363.8 62.3 362.6 62.4 361.7 63 360.9 63.5 360.2 64.3 359.7 65.1 358.7 66.8 358.5 68.8 358.6 70.7 359.4 78.4 363.7 85.4 368.5 92.2 373.4 99 379.3 105.5 385.7 111.9 392.1 118.2 397.9 125.8 401.1 134.8 402.6 139.3 403.5 144.1 403 148.9 402.7 151.3 402.1 153.6 400.9 155.7 400.3 156.7 399.5 157.6 398.6 158.3 397.7 158.9 396.1 159.4 396.7 158.9 L396.7 159.1 396.6 159.1 396.2 159 395.4 158.7 C394.9 158.5 394.4 158.1 394 157.7 393.2 156.9 392.5 155.9 392 154.9 390.9 152.8 390.4 150.4 390.3 148 390 143.2 390.9 138.4 392.5 134 395.8 125.1 401.7 117.7 408.1 111.5 414.5 105.2 420.3 98.6 425.2 91.9 427.6 88.5 429.8 85.1 431.5 81.5 433.2 78 434.6 74.3 434.8 70.4 434.9 68.5 434.6 66.5 433.5 64.9 433 64.1 432.3 63.4 431.4 62.9 430.5 62.4 429.3 62.4 428.4 62.8 424.9 64.5 423.3 67.6 421.8 70.4 419 76.1 417.9 81.8 417.6 86.8 417.4 91.8 418.2 96.2 419.6 99.4 421 102.7 422.7 104.9 424.1 106.2 426 108.1 426.3 108 426.4 107.9 426.5 107.8 426.3 107.7 424.6 105.8 423.4 104.5 421.7 102.3 420.5 99.1 419.2 95.9 418.5 91.7 418.7 86.8 419 81.9 420.1 76.3 422.8 70.8 424.2 68.2 425.9 65.1 428.7 63.8 430.1 63.1 431.5 64.1 432.4 65.4 433.3 66.7 433.6 68.5 433.5 70.2 433.4 73.7 432 77.3 430.3 80.8 428.6 84.3 426.5 87.7 424.1 91 419.3 97.7 413.5 104.2 407.2 110.5 400.7 116.8 394.7 124.4 391.3 133.5 389.6 138 388.6 143 389 148 389.2 150.5 389.7 153 390.9 155.3 391.5 156.5 392.2 157.5 393.2 158.5 393.7 159 394.2 159.4 394.9 159.7 L395.9 160.1 396.4 160.2 397.2 160.3 C397.4 159.4 396.9 159.8 396.6 159.7 L396.1 159.7 395.9 159.7 396 160 C396 160.4 396.5 160.1 396.7 160.1 L397.2 160 C397.9 159.8 398.5 159.5 399.1 159.1 400.2 158.3 401.1 157.3 401.7 156.2 403 153.9 403.7 151.4 404 148.9 404.5 143.9 403.6 138.9 402.1 134.3 398.8 125.1 392.9 117.3 386.4 111 380 104.7 374.1 98.2 369.3 91.5 364.6 84.8 360.3 77.8 359.6 70.6 359.5 68.8 359.7 67.1 360.6 65.7 361.5 64.3 362.8 63.2 364.2 63.7 367.1 64.8 368.9 68 370.3 70.6 373.1 76.1 374.2 81.8 374.5 86.6 374.8 91.5 374 95.8 372.7 99 371.5 102.2 369.8 104.4 368.6 105.7 366.8 107.6 366.6 107.6 366.8 107.8 367.1 107.9 367.4 107.9 369.3 106.1 Z" fill="#383838" fill-opacity="1" stroke="none"/>
 <path id="Path-copy-11" d="M136.6 182.9 C137 184.8 136.1 187.5 134.1 189.6 133.1 190.7 131.8 191.6 130.1 191.8 128.5 192 126.6 191.6 125.1 190.5 121.9 188.4 120.2 183.6 122.3 179.3 123.1 177.1 124.5 175 126.5 173.5 128.5 172 131.1 171.2 133.8 171.2 139.2 171.2 145.1 174.2 148.6 179.3 152.2 184.4 152.8 191.7 150.3 198.1 147.9 204.6 143.3 210.7 137.6 215.7 131.8 220.7 124.6 224.5 116.8 227.2 101.2 232.5 82.6 233.2 64.8 227.9 46.9 222.8 29.9 211.1 18.1 194.5 6.1 178.1 0.2 156.6 1.4 135.1 2 124.3 4.4 113.5 8.8 103.4 13.2 93.3 19.7 84 28.2 76.7 36.6 69.4 46.9 64.3 57.6 61.8 68.3 59.3 79.3 58 90.1 58 111.8 57.9 132.6 63 151.5 70.4 170.5 77.9 187.7 87.5 203.6 97.4 211.6 102.3 219.1 107.4 226.6 112.2 234.1 117 241.5 121.4 248.8 125.4 263.4 133.4 277.7 140 291.5 143.4 305.3 146.9 318.9 146.3 329.3 141.5 334.5 139.1 338.6 134.7 339.2 129.6 339.8 124.6 337.8 120.1 335 117.2 333.6 115.8 331.8 114.7 329.9 114.5 328.1 114.3 326.4 114.5 324.9 115 321.9 115.9 319.7 117.6 318.5 119.4 316.7 122 317.4 124.1 317.8 124.7 318.2 125.5 318.4 125.5 318.4 125.5 318.5 125.4 318.4 125.4 318.1 124.6 317.9 123.9 317.3 122.2 318.9 119.8 320.1 118.2 322.2 116.6 325 115.7 327.8 114.9 331.7 114.7 334.3 117.7 336.9 120.4 338.9 124.7 338.3 129.4 337.8 134.1 334 138.3 329 140.6 318.9 145.3 305.5 145.9 291.9 142.4 278.2 139.1 264 132.5 249.5 124.5 242.2 120.5 234.8 116 227.3 111.3 219.8 106.5 212.2 101.4 204.2 96.5 188.2 86.6 170.9 76.9 151.9 69.4 132.9 61.9 111.9 56.7 90 56.9 79.1 56.9 68.1 58.2 57.2 60.8 46.5 63.3 36 68.4 27.4 75.9 18.8 83.3 12.2 92.8 7.7 103 3.2 113.2 0.8 124.2 0.2 135.1 -1 156.9 5 178.6 17.1 195.3 29 212.1 46.3 224 64.5 229.1 82.7 234.4 101.4 233.7 117.3 228.3 125.2 225.6 132.5 221.7 138.5 216.6 144.4 211.5 149 205.3 151.5 198.5 154.1 191.8 153.4 184.1 149.5 178.7 145.7 173.3 139.6 170.2 133.8 170.3 130.9 170.3 128.1 171.2 125.9 172.9 123.7 174.6 122.3 176.9 121.5 179.2 119.3 183.8 121.3 189.2 124.9 191.4 126.6 192.5 128.7 193 130.5 192.7 132.4 192.4 133.8 191.3 134.9 190.2 137 187.8 137.9 185.1 137.3 182.9 136.9 181.3 135.5 180.6 134.6 180.6 133.7 180.5 133.1 180.7 132.7 180.8 131.9 181 131.8 181.1 131.8 181.2 131.8 181.3 131.9 181.3 132.7 181.1 133.1 181 133.7 180.9 134.5 181.1 135.2 181 136.4 181.5 136.6 182.9 Z" fill="#383838" fill-opacity="1" stroke="none"/>
 <path id="Path-copy-10" d="M176.5 101.9 C178.8 101.2 182.4 102.7 185.3 106.2 188.2 109.6 190.7 115.3 188.9 121.6 188 124.7 186 127.6 183.2 130 180.5 132.4 177 134.5 173 135.2 169 135.9 164.7 134.9 161 132.4 157.3 130 154.2 126.3 151.9 122.1 147.3 113.7 145.5 102.9 147.5 92.2 148.5 86.9 150.3 81.5 153.6 76.8 156.8 72.2 161.6 68.5 167 66.2 178 61.6 190.8 61.8 203.2 64 215.6 66.4 228 70.9 239.4 77.4 262.5 90.4 279.8 110.4 291.9 130.9 298 141.2 302.9 151.6 307.3 161.7 L313.6 176.5 C315.7 181.3 317.6 186 320.6 190.1 323.6 194.1 327.7 197.2 332.3 198.2 336.9 199.3 341.7 198.3 345.2 195.8 348.8 193.4 351.1 189.5 351.4 185.6 351.6 181.8 351.1 178 349.1 175.1 347.1 172.2 343.5 171.1 340.6 171.4 337.7 171.7 334.9 172.8 333.7 175.2 332.5 177.4 332.6 179.7 333.3 181.5 334 183.3 335.4 184.3 336.6 184.7 338.4 185.2 339.4 185 339.8 185 340.3 184.9 340.3 184.8 340.3 184.8 340.3 184.7 340.2 184.7 339.8 184.7 339.3 184.7 338.4 184.8 336.8 184.3 335.7 183.9 334.5 183 333.9 181.4 333.3 179.9 333.3 177.7 334.3 175.8 335.3 173.8 337.8 172.8 340.5 172.5 343.2 172.3 346.3 173.2 348.1 175.8 351.5 180.9 351.6 190.4 344.5 195 341.2 197.3 336.8 198.2 332.5 197.2 328.2 196.3 324.3 193.4 321.4 189.6 318.5 185.8 316.6 181 314.5 176.3 L308.2 161.5 C303.8 151.4 298.9 140.9 292.7 130.5 280.6 109.8 263.1 89.6 239.7 76.5 228.1 69.9 215.7 65.3 203.1 63 190.6 60.7 177.5 60.5 166.2 65.3 160.6 67.7 155.7 71.5 152.3 76.4 148.9 81.2 147.1 86.8 146 92.2 144 103.2 145.7 114.2 150.6 122.9 153 127.2 156.2 131 160.1 133.5 164 136 168.7 137.1 172.9 136.4 177.2 135.7 180.7 133.4 183.6 130.9 186.5 128.4 188.6 125.3 189.6 122 191.5 115.3 188.7 109.3 185.6 105.8 182.5 102.2 178.5 100.7 176 101.6 174.2 102.2 173.7 103.2 173.4 103.6 173.1 104 173.2 104.1 173.2 104.1 173.3 104.1 173.3 104.1 173.6 103.8 174.4 103.2 174.9 102.4 176.5 101.9 Z" fill="#383838" fill-opacity="1" stroke="none"/>
 <path id="Path-copy-9" d="M182.9 115.1 C185 114.1 188.9 114.2 192.9 116.4 194.9 117.5 196.9 119.1 198.4 121.4 199.9 123.7 200.7 126.7 199.7 129.8 197.8 135.7 191.1 141.6 182.9 141.1 174.8 140.7 166.8 134.3 163.4 125.3 159.8 116.3 160.9 105.3 165.4 95.5 167.7 90.6 171.2 86.1 175.8 82.9 180.4 79.7 186.1 77.8 191.9 77.1 203.7 75.8 216.1 78.5 227.9 82.8 239.7 87.2 251.5 93.1 261.8 101.3 272.1 109.4 280.6 119.5 287.4 130.1 294.2 140.8 299.4 152.1 304.2 163 306.6 168.5 308.9 173.9 311.3 179.1 313.8 184.3 316.1 189.5 319.6 193.9 323.1 198.3 328.1 201.4 333.3 202.4 338.5 203.4 343.9 202.6 348.4 200.4 352.9 198.2 356.5 194.4 358 189.9 358.7 187.7 358.9 185.3 358.5 183.1 358.2 180.9 357.6 178.8 356.7 176.9 355 173 352 169.8 348.5 168.2 345 166.6 341.1 166.4 337.8 167.3 331 169 327.6 175.9 329 180.6 329.6 183 331 184.8 332.6 185.8 334.2 186.8 336 186.9 337.2 186.5 339 185.9 339.6 185.1 339.9 184.8 340.2 184.4 340.2 184.4 340.2 184.3 340.1 184.2 340.1 184.2 339.7 184.5 339.3 184.8 338.7 185.5 337.1 185.9 336 186.2 334.5 186.1 333 185.2 331.6 184.3 330.3 182.6 329.8 180.4 328.6 176.1 331.6 169.8 338 168.3 341.1 167.5 344.7 167.6 347.9 169.2 351.2 170.7 354 173.6 355.6 177.3 357.1 181 358.3 185.4 356.9 189.6 355.6 193.8 352.2 197.3 347.9 199.4 343.7 201.5 338.5 202.4 333.5 201.4 328.5 200.5 323.8 197.5 320.4 193.4 317 189.2 314.7 184 312.2 178.8 309.8 173.6 307.5 168.2 305.1 162.7 300.3 151.7 295.1 140.4 288.2 129.6 281.4 118.8 272.8 108.7 262.3 100.4 251.9 92.1 240 86.2 228.1 81.8 216.1 77.5 203.6 74.7 191.5 76 185.5 76.7 179.6 78.6 174.8 82 170 85.4 166.3 90.1 164 95.1 159.4 105.2 158.3 116.6 162 125.9 165.6 135.2 173.9 141.9 182.6 142.3 186.9 142.6 191 141.1 194 138.7 197 136.3 199.4 133.4 200.3 130 201.3 126.6 200.4 123.2 198.7 120.8 197.1 118.4 194.9 116.7 192.8 115.6 188.6 113.4 184.5 113.4 182.2 114.6 180.6 115.4 180 116.3 179.8 116.7 179.5 117.1 179.6 117.2 179.6 117.2 179.7 117.2 179.7 117.2 180 116.9 180.8 116.6 181.4 115.8 182.9 115.1 Z" fill="#383838" fill-opacity="1" stroke="none"/>
 <path id="Path-copy-8" d="M74.7 105 C76.4 103.8 80.1 102.7 83.7 104.9 85.4 106 86.7 108.1 86.7 110.7 86.7 113.2 86 116.1 84.1 118.3 80.1 122.8 72.1 123.2 65.1 120.5 58.1 117.9 51.3 111.4 49.7 102.6 48.5 93.8 49.6 83.7 54.8 75 60 66 69.4 59.9 79.9 56.5 90.4 53.1 102.1 51.9 113.8 51.9 125.6 52 137.5 54.8 149.1 58.9 172.2 67.2 192.9 79.7 211.7 91.4 230.6 103.3 247.7 115 263.6 124 279.3 133.2 294.5 138.8 306.9 139.7 313.1 140.2 318.5 139.3 322.6 137.5 326.6 135.7 329.1 133.2 330.6 131.4 332.6 128.8 332.5 128.5 332.4 128.4 332.2 128.3 332.2 128.5 330.2 131 328.7 132.7 326.3 135 322.3 136.7 318.4 138.4 313.1 139.2 307.1 138.7 294.9 137.7 279.9 132.3 264.3 123 248.5 114 231.4 102.3 212.5 90.4 193.6 78.6 172.9 66.1 149.6 57.7 138 53.6 125.9 50.8 113.9 50.7 102 50.7 90.3 51.9 79.6 55.4 69 58.8 59.2 65.1 53.9 74.3 51.2 78.8 49.6 83.7 48.9 88.5 48.2 93.4 47.9 98.1 48.8 102.8 50.5 112.1 57.7 118.9 65 121.5 68.7 122.9 72.5 123.4 76.1 123.1 79.6 122.8 83 121.4 85.2 118.9 87.3 116.4 88 113.3 88 110.6 87.9 107.8 86.4 105.4 84.5 104.2 80.4 101.8 76.5 103.2 74.7 104.6 73.4 105.6 72.9 106.4 72.6 106.8 72.4 107.2 72.4 107.3 72.5 107.3 L72.9 107 C72.9 106.6 73.4 105.8 74.7 105 Z" fill="#383838" fill-opacity="1" stroke="none"/>
 <path id="Path-copy-7" d="M100.8 98.5 C102.2 100.7 105.1 105.1 106.1 112 106.5 115.4 106.4 119.5 104.9 123.6 103.5 127.7 100.7 131.9 96.6 135.1 88.5 141.7 75.7 143.5 63.4 140.4 51.2 137.1 39.4 127.2 35.6 113.6 33.6 106.9 33.7 99.7 35 93.1 36.3 86.4 38.6 80.1 42.3 74.9 46 69.7 50.9 65.8 56 63.1 61.2 60.4 66.6 58.8 71.7 57.8 82 55.9 91.1 56.3 98.1 57 105.1 57.7 110.1 58.9 112.7 59.5 114.5 59.9 114.7 59.9 114.7 59.8 114.7 59.7 114.7 59.5 112.9 59 110.4 58.2 105.4 56.9 98.3 56.1 91.2 55.3 82 54.8 71.5 56.7 66.3 57.7 60.8 59.3 55.4 62.1 50.1 64.9 45 68.9 41.2 74.3 37.4 79.6 35 86.2 33.7 92.9 32.4 99.7 32.3 107 34.4 114 38.4 128.1 50.5 138.3 63.1 141.7 75.7 144.9 88.9 143 97.4 136.1 101.6 132.7 104.5 128.4 106 124.1 107.5 119.8 107.6 115.5 107.1 111.9 106 104.7 102.8 100.3 101.3 98.2 100.1 96.7 100 96.7 99.9 96.8 99.7 96.9 99.8 97 100.8 98.5 Z" fill="#383838" fill-opacity="1" stroke="none"/>
 <path id="Path-copy-6" d="M74.1 202.5 C72.8 201.9 70.8 200.7 69.8 198.2 68.8 195.7 68.9 192 70.7 188.6 72.4 185.2 76.1 181.7 81.1 181.3 83.5 181.1 86.2 181.5 88.3 183.1 90.5 184.6 92.1 187 93.1 189.7 95 195.2 94.5 202 91.1 207.7 87.8 213.4 81.2 217.2 74 217.8 66.8 218.4 59.2 216.9 52.1 213.8 45 210.7 38.5 205.9 32.9 200.2 27.2 194.5 22.5 188 18.6 181.3 14.6 174.6 11.3 167.7 9.6 160.6 5.9 146.4 6.8 132.5 9.1 120.8 11.5 109.1 15.4 99.4 19.2 92.4 23 85.3 26.7 80.8 28.7 78.5 30.1 76.9 30.2 76.8 30.1 76.7 30 76.6 29.8 76.6 28.3 78.1 26.1 80.2 22.2 84.7 18.3 91.8 14.4 98.9 10.4 108.6 7.9 120.5 5.5 132.3 4.7 146.4 8.4 160.8 10.2 168 13.5 175.1 17.6 181.8 21.6 188.5 26.4 195.1 32.1 201 37.8 206.8 44.5 211.7 51.7 214.9 58.9 218.1 66.7 219.6 74.2 219 81.7 218.4 88.7 214.4 92.2 208.3 95.7 202.3 96.3 195.1 94.2 189.3 93.2 186.4 91.4 183.8 88.9 182.1 86.5 180.4 83.5 179.9 80.9 180.2 75.5 180.7 71.6 184.5 69.8 188.2 67.9 191.9 67.8 195.9 69 198.6 70.2 201.4 72.5 202.6 73.9 203.1 76 203.7 76.2 203.6 76.2 203.5 76.3 203.2 76.1 203.3 74.1 202.5 Z" fill="#383838" fill-opacity="1" stroke="none"/>
 <path id="Path-copy-5" d="M654.8 182.8 C654.3 185 655.2 187.8 657.3 190.1 658.4 191.2 659.9 192.3 661.7 192.6 663.5 192.9 665.6 192.4 667.3 191.2 670.8 189 672.7 183.6 670.5 179 669.6 176.7 668.2 174.4 666 172.8 663.8 171.2 661 170.3 658.1 170.3 652.3 170.3 646.2 173.4 642.4 178.8 638.5 184.2 638 191.9 640.6 198.6 643.1 205.4 647.7 211.6 653.7 216.7 659.7 221.8 666.9 225.7 674.9 228.4 690.8 233.8 709.5 234.5 727.7 229.2 745.9 224 763.1 212.1 775 195.3 787.2 178.6 793.1 156.9 791.9 135.2 791.3 124.3 788.8 113.4 784.3 103.1 779.8 92.9 773.2 83.4 764.6 76 756 68.5 745.6 63.4 734.7 60.9 723.9 58.4 712.9 57.1 702 57 680.2 56.9 659.1 62 640.1 69.5 621 77 603.7 86.7 587.8 96.6 579.8 101.5 572.2 106.7 564.8 111.4 557.3 116.2 549.9 120.6 542.7 124.6 528.2 132.6 514 139.2 500.3 142.5 486.7 146 473.3 145.4 463.2 140.7 458.2 138.4 454.4 134.3 453.8 129.6 453.2 125 455.1 120.6 457.7 117.9 460.3 114.9 464.2 115 467 115.8 469.9 116.6 472 118.2 473.2 119.9 474.9 122.3 474.3 124.1 474.1 124.8 473.8 125.5 473.7 125.6 473.8 125.7 473.8 125.7 474 125.7 474.4 125 474.8 124.3 475.5 122.3 473.7 119.7 472.5 117.9 470.3 116.2 467.3 115.3 465.8 114.8 464.1 114.6 462.3 114.8 460.4 114.9 458.6 116 457.2 117.4 454.4 120.3 452.3 124.8 452.9 129.8 453.4 134.9 457.5 139.4 462.7 141.8 473.1 146.6 486.7 147.3 500.5 143.8 514.4 140.4 528.7 133.9 543.3 125.9 550.6 121.9 558 117.4 565.5 112.7 573 107.9 580.6 102.8 588.5 97.9 604.4 88 621.7 78.4 640.6 70.9 659.5 63.4 680.4 58.3 702.1 58.4 712.9 58.4 723.8 59.7 734.6 62.2 745.3 64.7 755.6 69.7 764 77.1 772.5 84.4 779 93.7 783.4 103.8 787.8 113.9 790.2 124.7 790.8 135.5 792 157 786.1 178.5 774.1 194.9 762.3 211.5 745.3 223.2 727.4 228.3 709.5 233.5 691 232.8 675.3 227.5 667.5 224.8 660.3 221 654.5 216 648.7 211 644.2 204.9 641.8 198.4 639.3 191.9 639.9 184.7 643.6 179.6 647.1 174.5 653 171.5 658.4 171.6 661.1 171.6 663.7 172.4 665.7 174 667.7 175.5 669.1 177.6 669.9 179.8 671.9 184.1 670.2 189 667 191 665.4 192.1 663.6 192.5 662 192.2 660.4 192 659 191 658 189.9 656 187.7 655.2 185.1 655.6 183.2 655.9 181.8 657 181.3 657.8 181.2 658.6 181.1 659.2 181.2 659.6 181.3 660.4 181.4 660.5 181.4 660.5 181.4 660.5 181.3 660.5 181.2 659.6 181 659.2 180.9 658.6 180.7 657.6 180.8 656.6 180.5 655.2 181.1 654.8 182.8 Z" fill="#383838" fill-opacity="1" stroke="none"/>
 <path id="Path-copy-4" d="M615.6 101.4 C613 100.5 609 102.1 606 105.7 603 109.2 600.2 115.2 602.1 121.9 603 125.2 605.2 128.3 608.1 130.8 610.9 133.3 614.5 135.5 618.8 136.3 623.1 137 627.7 135.9 631.6 133.4 635.5 130.8 638.7 127.1 641.1 122.7 645.9 114 647.7 102.9 645.6 92 644.5 86.6 642.8 81 639.3 76.2 635.9 71.4 631 67.5 625.4 65.2 614.1 60.4 601 60.7 588.5 63 575.9 65.4 563.5 70 551.9 76.5 528.6 89.6 511.1 109.8 499 130.4 492.9 140.7 487.9 151.2 483.5 161.3 L477.2 176.1 C475.1 180.8 473.2 185.6 470.3 189.4 467.5 193.2 463.6 196.1 459.3 197.1 455 198.1 450.6 197.2 447.3 194.9 444 192.7 441.9 189.1 441.5 185.5 441.3 181.9 441.8 178.3 443.6 175.7 445.4 173.1 448.5 172.1 451.2 172.3 453.9 172.5 456.4 173.6 457.4 175.5 458.5 177.4 458.5 179.6 457.9 181.1 457.3 182.7 456.1 183.6 455 184.1 453.4 184.7 452.5 184.5 452 184.6 451.5 184.6 451.5 184.6 451.4 184.7 451.4 184.8 451.4 184.8 451.9 184.9 452.4 185 453.4 185.2 455.1 184.7 456.3 184.3 457.8 183.3 458.5 181.5 459.2 179.8 459.3 177.4 458.1 175.2 457 172.9 454.1 171.7 451.3 171.4 448.4 171.1 444.8 172.1 442.8 175 440.7 177.9 440.2 181.6 440.4 185.5 440.7 189.4 443 193.3 446.5 195.7 450 198.2 454.8 199.2 459.4 198.1 464 197.1 468.2 194 471.2 190.1 474.2 186.1 476.1 181.3 478.2 176.5 L484.5 161.7 C488.9 151.6 493.8 141.2 499.9 130.9 511.9 110.4 529.3 90.3 552.4 77.4 563.9 70.9 576.2 66.4 588.6 64 601 61.7 613.9 61.5 624.8 66.2 630.2 68.5 635 72.2 638.2 76.8 641.5 81.4 643.2 86.9 644.3 92.2 646.3 102.9 644.5 113.7 639.9 122.1 637.6 126.3 634.5 129.9 630.8 132.3 627.1 134.7 622.8 135.7 618.8 135 614.8 134.3 611.4 132.2 608.7 129.8 605.9 127.4 603.9 124.5 603 121.4 601.2 115.1 603.7 109.4 606.6 106 609.5 102.5 613.2 101.1 615.4 101.8 617 102.3 617.5 103.1 617.9 103.4 618.2 103.8 618.3 103.8 618.3 103.7 618.4 103.7 618.4 103.6 618.1 103.1 617.9 102.9 617.4 102 615.6 101.4 Z" fill="#383838" fill-opacity="1" stroke="none"/>
 <path id="Path-copy-3" d="M609.3 113.6 C607 112.5 602.9 112.4 598.7 114.7 596.6 115.8 594.4 117.5 592.8 119.9 591.2 122.3 590.3 125.7 591.3 129.1 592.3 132.4 594.7 135.4 597.7 137.7 600.7 140 604.8 141.5 609.1 141.2 617.8 140.8 626.1 134 629.7 124.7 633.4 115.4 632.3 104 627.7 93.9 625.4 88.9 621.7 84.1 616.9 80.8 612.1 77.4 606.2 75.5 600.2 74.8 588.1 73.5 575.6 76.3 563.6 80.6 551.7 85 539.8 90.9 529.4 99.2 519 107.4 510.4 117.6 503.6 128.3 496.7 139.1 491.5 150.4 486.7 161.4 484.3 166.9 482 172.3 479.6 177.5 477.1 182.6 474.8 187.9 471.4 192.1 468 196.3 463.3 199.2 458.4 200.2 453.4 201.2 448.3 200.4 444.1 198.3 439.9 196.2 436.4 192.7 435.1 188.5 433.7 184.3 434.8 179.9 436.3 176.2 437.9 172.5 440.7 169.6 444 168 447.3 166.5 450.9 166.3 453.9 167.1 460.3 168.7 463.3 174.9 462.1 179.2 461.6 181.4 460.4 183.1 458.9 184 457.5 185 455.9 185 454.8 184.8 453.2 184.3 452.5 183.6 452.1 183.4 451.7 183.1 451.6 183.1 451.6 183.1 451.5 183.2 451.5 183.2 451.9 183.6 452.2 183.9 452.9 184.7 454.6 185.3 455.8 185.7 457.6 185.7 459.2 184.6 460.8 183.6 462.2 181.8 462.8 179.4 463.4 177.1 463.1 174.2 461.6 171.7 460.1 169.2 457.4 167 454.1 166.1 450.8 165.2 447 165.4 443.4 167 439.9 168.6 436.8 171.7 435.1 175.6 434.2 177.5 433.6 179.6 433.3 181.8 432.9 184 433 186.4 433.8 188.6 435.2 193.1 438.9 196.9 443.3 199.1 447.8 201.4 453.2 202.2 458.4 201.2 463.7 200.2 468.6 197.1 472.2 192.8 475.7 188.4 478 183.2 480.5 178 482.9 172.8 485.2 167.3 487.6 161.8 492.4 150.8 497.5 139.5 504.4 128.9 511.2 118.2 519.7 108.2 530 100 540.3 91.8 552.1 85.9 563.9 81.5 575.7 77.2 588.1 74.5 599.9 75.8 605.8 76.5 611.4 78.4 616 81.6 620.6 84.8 624.1 89.4 626.4 94.3 630.9 104.1 631.9 115.2 628.3 124.1 624.9 133 616.9 139.5 608.7 139.8 600.5 140.3 593.9 134.3 592 128.4 591.1 125.4 591.9 122.3 593.4 120 594.9 117.7 596.9 116.1 598.9 115 602.9 112.8 606.7 112.8 608.8 113.8 610.3 114.5 610.9 115.3 611.2 115.6 611.5 116 611.6 116 611.6 115.9 611.7 115.9 611.7 115.8 611.4 115.3 611.5 115.3 610.9 114.4 609.3 113.6 Z" fill="#383838" fill-opacity="1" stroke="none"/>
 <path id="Path-copy-2" d="M717.6 104.5 C715.8 103.2 711.9 101.8 707.8 104.2 705.8 105.4 704.3 107.8 704.3 110.6 704.3 113.3 705 116.4 707.1 118.9 709.2 121.4 712.6 122.7 716.2 123.1 719.8 123.4 723.6 122.9 727.3 121.5 734.6 118.8 741.8 112.1 743.5 102.7 744.3 98.1 744.1 93.3 743.4 88.4 742.7 83.6 741 78.6 738.3 74.2 733 65.1 723.2 58.8 712.6 55.4 701.9 51.9 690.2 50.7 678.3 50.8 666.3 50.9 654.3 53.7 642.7 57.8 619.4 66.2 598.7 78.6 579.8 90.4 560.9 102.3 543.8 114 528 123 512.4 132.2 497.4 137.7 485.2 138.7 479.1 139.2 473.8 138.4 469.9 136.7 466 135 463.5 132.7 462 131 459.9 128.5 459.9 128.3 459.7 128.4 459.6 128.5 459.5 128.7 461.5 131.4 462.9 133.2 465.4 135.7 469.5 137.5 473.5 139.3 479 140.2 485.2 139.7 497.6 138.8 512.8 133.3 528.5 124.1 544.4 115.1 561.5 103.4 580.4 91.5 599.3 79.7 619.9 67.3 643.1 58.9 654.7 54.8 666.6 52 678.4 51.9 690.2 51.9 701.8 53.1 712.3 56.5 722.8 59.9 732.2 66 737.4 74.8 742.5 83.5 743.7 93.7 742.4 102.4 740.8 111.3 734 117.7 727 120.3 720.1 123 712 122.5 708 118 706.1 115.8 705.4 112.9 705.4 110.4 705.4 107.9 706.7 105.7 708.5 104.7 712.1 102.5 715.8 103.7 717.5 104.8 718.8 105.7 719.3 106.4 719.6 106.7 L720 107 C720.1 107 720.1 106.9 719.9 106.5 719.4 106.3 719 105.5 717.6 104.5 Z" fill="#383838" fill-opacity="1" stroke="none"/>
 <path id="Path-copy-1" d="M690.7 98.2 C689.2 100.3 686 104.7 684.9 111.9 684.4 115.5 684.5 119.7 686 124 687.5 128.3 690.4 132.7 694.6 136 703.1 142.9 716.3 144.8 728.9 141.6 741.5 138.2 753.6 128 757.6 113.9 759.6 106.9 759.6 99.6 758.3 92.9 757 86.1 754.6 79.6 750.8 74.3 747 68.9 741.9 64.9 736.6 62.1 731.3 59.3 725.8 57.7 720.6 56.7 710.1 54.8 700.9 55.3 693.8 56.1 686.7 56.9 681.7 58.2 679.2 59 677.4 59.6 677.3 59.7 677.4 59.8 677.4 59.9 677.6 59.9 679.4 59.5 681.9 58.9 686.9 57.8 694 57 701 56.3 710.2 55.9 720.4 57.8 725.5 58.8 730.9 60.3 736.1 63.1 741.3 65.8 746.2 69.7 749.9 74.9 753.6 80.1 755.9 86.4 757.2 93.1 758.5 99.7 758.5 106.9 756.6 113.6 752.7 127.3 740.9 137.1 728.7 140.4 716.4 143.5 703.5 141.6 695.5 135 691.5 131.8 688.7 127.7 687.3 123.5 685.9 119.4 685.7 115.3 686.1 111.9 687.1 104.9 690 100.5 691.4 98.4 692.4 96.9 692.5 96.7 692.4 96.6 692 96.7 691.9 96.7 690.7 98.2 Z" fill="#383838" fill-opacity="1" stroke="none"/>
 <path id="Path-copy" d="M718.1 203 C719.5 202.5 721.8 201.3 723 198.5 724.2 195.7 724.1 191.8 722.2 188.1 720.4 184.4 716.5 180.7 711 180.2 708.4 179.9 705.4 180.4 703 182.1 700.5 183.7 698.8 186.4 697.7 189.3 695.6 195.1 696.2 202.3 699.8 208.3 703.3 214.4 710.3 218.4 717.8 219 725.3 219.7 733.1 218.1 740.3 214.9 747.5 211.7 754.2 206.9 759.9 201 765.7 195.2 770.4 188.6 774.4 181.9 778.5 175.2 781.8 168.1 783.6 160.9 787.3 146.5 786.5 132.4 784.1 120.6 781.7 108.8 777.7 99 773.8 91.9 769.9 84.7 766 80.2 763.8 78.1 762.2 76.6 762.1 76.6 762 76.7 761.9 76.8 762 76.9 763.4 78.5 765.4 80.7 769.1 85.2 772.9 92.3 776.7 99.4 780.6 109 783 120.7 785.3 132.4 786.1 146.3 782.5 160.5 780.8 167.6 777.5 174.5 773.5 181.2 769.5 187.9 764.8 194.4 759.1 200.1 753.5 205.9 746.9 210.6 739.8 213.7 732.7 216.8 725.1 218.3 717.9 217.7 710.7 217.1 704.1 213.3 700.8 207.6 697.4 201.9 696.9 195.1 698.8 189.6 699.8 186.9 701.4 184.5 703.6 183 705.8 181.5 708.4 181 710.8 181.3 715.7 181.7 719.4 185.2 721.1 188.6 722.9 192.1 723.1 195.7 722 198.2 721 200.7 719 202 717.7 202.5 715.8 203.2 715.6 203.2 715.6 203.4 715.8 203.5 716 203.7 718.1 203 Z" fill="#383838" fill-opacity="1" stroke="none"/>
</svg>